<?xml version="1.0" encoding="iso-8859-1"?>
<!-- Generator: Adobe Illustrator 19.1.0, SVG Export Plug-In . SVG Version: 6.00 Build 0)  -->
<svg version="1.1" id="Capa_1" xmlns="http://www.w3.org/2000/svg" xmlns:xlink="http://www.w3.org/1999/xlink" x="0px" y="0px"
	 viewBox="0 0 559.463 559.463" style="enable-background:new 0 0 559.463 559.463;" xml:space="preserve">
<g>
	<path d="M371.558,263.727c17.733,0,32.117-14.375,32.117-32.117c0-17.742-14.384-32.126-32.117-32.126
		c-17.742,0-32.108,14.384-32.108,32.126C339.45,249.352,353.816,263.727,371.558,263.727z"/>
	<path d="M393.422,332.245c-7.434,0-13.468,5.825-13.468,13.269c0,41.671-33.267,74.109-75.737,74.109H259.61
		c-41.761,0-75.746-33.453-75.746-74.828c0-7.443-6.025-13.373-13.459-13.373c-7.443,0-13.468,5.909-13.468,13.352
		c0,56.226,46.053,101.848,102.673,101.848h44.607c57.563,0,102.673-44.295,102.673-101.078
		C406.89,338.101,400.865,332.245,393.422,332.245z"/>
	<path d="M218.954,227.127c0-7.443-6.034-13.504-13.468-13.504h-53.873c-7.434,0-13.468,6.061-13.468,13.504
		c0,7.434,6.034,13.496,13.468,13.496h53.873C212.929,240.622,218.954,234.561,218.954,227.127z"/>
	<path d="M279.723,0C125.529,0,0.076,125.488,0.067,279.736c0,154.239,125.453,279.727,279.655,279.727
		c154.212,0,279.673-125.488,279.673-279.727C559.396,125.488,433.935,0,279.723,0z M279.723,532.527
		c-139.352,0-252.719-113.403-252.719-252.791S140.371,26.945,279.723,26.945c139.361,0,252.737,113.403,252.737,252.791
		S419.084,532.527,279.723,532.527z"/>
</g>
<g>
</g>
<g>
</g>
<g>
</g>
<g>
</g>
<g>
</g>
<g>
</g>
<g>
</g>
<g>
</g>
<g>
</g>
<g>
</g>
<g>
</g>
<g>
</g>
<g>
</g>
<g>
</g>
<g>
</g>
</svg>
