<?xml version="1.0" encoding="iso-8859-1"?>
<!-- Generator: Adobe Illustrator 19.1.0, SVG Export Plug-In . SVG Version: 6.00 Build 0)  -->
<svg version="1.1" id="Capa_1" xmlns="http://www.w3.org/2000/svg" xmlns:xlink="http://www.w3.org/1999/xlink" x="0px" y="0px"
	 viewBox="0 0 575.599 575.599" style="enable-background:new 0 0 575.599 575.599;" xml:space="preserve">
<g>
	<path d="M167.505,205.562c12.777-12.768,34.793-12.292,48.091,1.006c2.631,2.631,6.07,3.942,9.518,3.942
		c3.448,0,6.896-1.311,9.527-3.942c5.262-5.262,5.262-13.792,0-19.053c-23.614-23.632-63.076-24.09-86.179-1.015
		c-5.262,5.262-5.262,13.792,0,19.053C153.723,210.815,162.243,210.815,167.505,205.562z"/>
	<path d="M356.268,205.553c6.168-6.168,14.653-9.41,23.758-9.266c9.114,0.189,17.976,3.933,24.315,10.281
		c2.631,2.631,6.079,3.942,9.527,3.942c3.439,0,6.896-1.311,9.518-3.942c5.262-5.262,5.262-13.792,0-19.053
		c-11.367-11.376-26.577-17.823-42.802-18.164c-16.081-0.287-31.965,5.746-43.368,17.159c-5.253,5.253-5.253,13.792,0,19.044
		C342.476,210.815,351.006,210.815,356.268,205.553z"/>
	<path d="M315.037,321.601h-49.734c-62.277,0-112.936,49.996-112.936,112.722c0,0.458,0.024,0.818,0.068,1.258
		c-0.335,3.521,0.696,7.121,3.182,10.012c4.84,5.648,13.343,6.281,18.99,1.423c0.089-0.076,0.177-0.161,0.266-0.237l229.503,0.193
		c0.032,0.035,0.064,0.068,0.089,0.096c2.658,2.972,6.348,4.488,10.047,4.488c3.179,0,6.393-1.132,8.961-3.422
		c3.172-2.833,4.681-6.828,4.474-10.767c0.006-0.161,0.025-0.129,0.025-0.297C427.973,374.381,376.254,321.601,315.037,321.601z
		 M265.312,348.601h49.734c35.477,0,66.763,23.325,79.693,55.776c-40.337-27.642-117.968-60.57-210.355,1.581
		C196.33,372.493,228.086,348.601,265.312,348.601z M375.529,423.129l-166.357-1.278
		C282.083,378.215,342.018,401.166,375.529,423.129z"/>
	<path d="M287.804,0C129.147,0,0.067,129.107,0.067,287.799s129.08,287.799,287.736,287.799
		c158.647,0,287.727-129.107,287.727-287.799S446.451,0,287.804,0z M287.804,548.653c-143.805,0-260.8-117.021-260.8-260.854
		s116.995-260.854,260.8-260.854s260.791,117.021,260.791,260.854S431.6,548.653,287.804,548.653z"/>
</g>
<g>
</g>
<g>
</g>
<g>
</g>
<g>
</g>
<g>
</g>
<g>
</g>
<g>
</g>
<g>
</g>
<g>
</g>
<g>
</g>
<g>
</g>
<g>
</g>
<g>
</g>
<g>
</g>
<g>
</g>
</svg>
