<?xml version="1.0" encoding="iso-8859-1"?>
<!-- Generator: Adobe Illustrator 19.1.0, SVG Export Plug-In . SVG Version: 6.00 Build 0)  -->
<svg version="1.1" id="Capa_1" xmlns="http://www.w3.org/2000/svg" xmlns:xlink="http://www.w3.org/1999/xlink" x="0px" y="0px"
	 viewBox="0 0 567.41 567.41" style="enable-background:new 0 0 567.41 567.41;" xml:space="preserve">
<g>
	<path d="M380.977,173.822c-33.967,0-61.604,27.646-61.604,61.622c0,33.976,27.637,61.622,61.604,61.622
		c33.967,0,61.604-27.646,61.604-61.622C442.581,201.468,414.944,173.822,380.977,173.822z M380.977,270.12
		c-16.554,0-30.427-11.665-33.85-27.211c5.929,4.43,13.285,7.054,21.253,7.054c19.637,0,35.556-15.919,35.556-35.556
		c0-1.782-0.135-3.533-0.388-5.245c7.397,6.365,12.097,15.784,12.097,26.282C415.645,254.568,400.093,270.12,380.977,270.12z"/>
	<path d="M184.565,297.065c33.976,0,61.604-27.646,61.604-61.622c0-33.976-27.637-61.622-61.604-61.622
		c-33.967,0-61.604,27.646-61.604,61.622C122.961,269.419,150.598,297.065,184.565,297.065z M219.232,235.444
		c0,19.125-15.551,34.676-34.667,34.676c-16.56,0-30.436-11.673-33.854-27.227c5.932,4.44,13.297,7.07,21.274,7.07
		c19.637,0,35.547-15.919,35.547-35.556c0-1.781-0.135-3.529-0.387-5.24C214.538,215.531,219.232,224.948,219.232,235.444z"/>
	<path d="M283.7,0C127.298,0,0.067,127.266,0.067,283.705S127.307,567.41,283.7,567.41s283.642-127.266,283.642-283.705
		S440.103,0,283.7,0z M283.7,540.473c-141.543,0-256.696-115.19-256.696-256.768S142.158,26.945,283.7,26.945
		s256.706,115.181,256.706,256.759S425.252,540.473,283.7,540.473z"/>
	<path d="M403.712,393.622H152.304c-7.435,0-13.468,6.061-13.468,13.496c0,7.443,6.034,13.504,13.468,13.504h251.408
		c7.434,0,13.468-6.061,13.468-13.504C417.18,399.684,411.146,393.622,403.712,393.622z"/>
</g>
<g>
</g>
<g>
</g>
<g>
</g>
<g>
</g>
<g>
</g>
<g>
</g>
<g>
</g>
<g>
</g>
<g>
</g>
<g>
</g>
<g>
</g>
<g>
</g>
<g>
</g>
<g>
</g>
<g>
</g>
</svg>
