<?xml version="1.0" encoding="iso-8859-1"?>
<!-- Generator: Adobe Illustrator 19.1.0, SVG Export Plug-In . SVG Version: 6.00 Build 0)  -->
<svg version="1.1" id="Capa_1" xmlns="http://www.w3.org/2000/svg" xmlns:xlink="http://www.w3.org/1999/xlink" x="0px" y="0px"
	 viewBox="0 0 567.41 567.41" style="enable-background:new 0 0 567.41 567.41;" xml:space="preserve">
<g>
	<path d="M380.977,173.822c-33.967,0-61.604,27.646-61.604,61.622c0,33.976,27.637,61.622,61.604,61.622
		c33.976,0,61.604-27.646,61.604-61.622C442.581,201.468,414.944,173.822,380.977,173.822z M380.977,270.12
		c-16.553,0-30.426-11.671-33.849-27.213c5.93,4.431,13.289,7.055,21.261,7.055c19.628,0,35.547-15.919,35.547-35.556
		c0-1.785-0.135-3.538-0.389-5.252c7.398,6.364,12.097,15.784,12.097,26.289C415.645,254.56,400.093,270.12,380.977,270.12z"/>
	<path d="M184.574,297.065c33.967,0,61.604-27.646,61.604-61.622c0-33.976-27.637-61.622-61.604-61.622
		c-33.967,0-61.604,27.646-61.604,61.622C122.97,269.419,150.607,297.065,184.574,297.065z M219.241,235.444
		c0,19.116-15.551,34.676-34.667,34.676c-16.556,0-30.429-11.674-33.851-27.219c5.93,4.435,13.291,7.061,21.263,7.061
		c19.637,0,35.556-15.919,35.556-35.556c0-1.782-0.135-3.532-0.388-5.243C214.546,215.526,219.241,224.943,219.241,235.444z"/>
	<path d="M283.709,0C127.307,0,0.067,127.266,0.067,283.705c0,156.43,127.239,283.705,283.642,283.705
		c156.385,0,283.633-127.275,283.633-283.705C567.342,127.266,440.103,0,283.709,0z M283.709,540.464
		c-141.552,0-256.705-115.181-256.705-256.759S142.158,26.945,283.709,26.945c141.534,0,256.697,115.181,256.697,256.759
		S425.252,540.464,283.709,540.464z"/>
	<path d="M414.181,352.622h-274.43c-7.434,0-13.468,6.164-13.468,13.607c0,61.9,55.283,112.393,123.235,112.393h54.897
		c67.952,0,123.235-50.492,123.235-112.393C427.649,358.786,421.616,352.622,414.181,352.622z M304.424,451.622h-54.897
		c-47.929,0-87.786-31-95.095-72h245.087C392.21,420.622,352.353,451.622,304.424,451.622z"/>
</g>
<g>
</g>
<g>
</g>
<g>
</g>
<g>
</g>
<g>
</g>
<g>
</g>
<g>
</g>
<g>
</g>
<g>
</g>
<g>
</g>
<g>
</g>
<g>
</g>
<g>
</g>
<g>
</g>
<g>
</g>
</svg>
