<?xml version="1.0" encoding="iso-8859-1"?>
<!-- Generator: Adobe Illustrator 19.1.0, SVG Export Plug-In . SVG Version: 6.00 Build 0)  -->
<svg version="1.1" id="Capa_1" xmlns="http://www.w3.org/2000/svg" xmlns:xlink="http://www.w3.org/1999/xlink" x="0px" y="0px"
	 viewBox="0 0 567.41 567.41" style="enable-background:new 0 0 567.41 567.41;" xml:space="preserve">
<g>
	<path d="M372.537,173.822c-33.967,0-61.604,27.646-61.604,61.622c0,33.976,27.637,61.622,61.604,61.622
		s61.613-27.646,61.613-61.622C434.15,201.468,406.504,173.822,372.537,173.822z M372.537,270.12
		c-16.555,0-30.428-11.666-33.85-27.213c5.93,4.431,13.29,7.056,21.262,7.056c19.628,0,35.547-15.919,35.547-35.556
		c0-1.785-0.135-3.538-0.389-5.252c7.403,6.365,12.106,15.787,12.106,26.29C407.214,254.568,391.653,270.12,372.537,270.12z"/>
	<path d="M176.125,297.065c33.967,0,61.613-27.646,61.613-61.622c0-33.976-27.646-61.622-61.613-61.622
		c-33.967,0-61.604,27.646-61.604,61.622C114.521,269.419,142.158,297.065,176.125,297.065z M210.801,235.444
		c0,19.125-15.56,34.676-34.676,34.676c-16.557,0-30.431-11.669-33.852-27.219c5.93,4.435,13.291,7.062,21.263,7.062
		c19.637,0,35.547-15.919,35.547-35.556c0-1.785-0.135-3.538-0.389-5.252C206.098,215.519,210.801,224.941,210.801,235.444z"/>
	<path d="M283.7,0C127.307,0,0.067,127.266,0.067,283.705S127.307,567.41,283.7,567.41c156.403,0,283.642-127.266,283.642-283.705
		S440.103,0,283.7,0z M283.7,540.473c-141.543,0-256.696-115.19-256.696-256.768S142.158,26.945,283.7,26.945
		s256.706,115.181,256.706,256.759S425.243,540.473,283.7,540.473z"/>
	<path d="M414.19,348.622H139.751c-7.435,0-13.468,6.159-13.468,13.603c0,61.9,55.292,112.397,123.244,112.397h54.888
		c67.961,0,123.244-50.497,123.244-112.397C427.658,354.782,421.625,348.622,414.19,348.622z M393.561,394.406
		c-1.423-0.512-2.949-0.784-4.548-0.784h-49.785v-18h60.281C398.336,382.622,396.313,388.455,393.561,394.406z M249.228,393.622v-18
		h63v18H249.228z M222.228,375.622v18h-62.233c-2.564-6-4.459-12-5.581-18H222.228z M304.406,447.622h-54.888
		c-27.628,0-52.558-10-70.136-27h195.163C356.967,437.622,332.034,447.622,304.406,447.622z"/>
</g>
<g>
</g>
<g>
</g>
<g>
</g>
<g>
</g>
<g>
</g>
<g>
</g>
<g>
</g>
<g>
</g>
<g>
</g>
<g>
</g>
<g>
</g>
<g>
</g>
<g>
</g>
<g>
</g>
<g>
</g>
</svg>
