<?xml version="1.0" encoding="iso-8859-1"?>
<!-- Generator: Adobe Illustrator 19.1.0, SVG Export Plug-In . SVG Version: 6.00 Build 0)  -->
<svg version="1.1" id="Capa_1" xmlns="http://www.w3.org/2000/svg" xmlns:xlink="http://www.w3.org/1999/xlink" x="0px" y="0px"
	 viewBox="0 0 567.41 567.41" style="enable-background:new 0 0 567.41 567.41;" xml:space="preserve">
<g>
	<path d="M372.537,173.822c-33.967,0-61.604,27.646-61.604,61.622c0,33.976,27.637,61.622,61.604,61.622
		s61.613-27.646,61.613-61.622C434.15,201.468,406.504,173.822,372.537,173.822z M372.537,270.12
		c-5.585,0-10.861-1.336-15.538-3.693c17.024-2.644,30.048-17.365,30.048-35.131c0-12.89-6.856-24.182-17.121-30.42
		c0.863-0.065,1.732-0.108,2.611-0.108c19.116,0,34.676,15.551,34.676,34.676C407.214,254.56,391.653,270.12,372.537,270.12z"/>
	<path d="M176.125,297.065c33.967,0,61.613-27.646,61.613-61.622c0-33.976-27.646-61.622-61.613-61.622
		c-33.967,0-61.604,27.646-61.604,61.622C114.521,269.419,142.158,297.065,176.125,297.065z M176.125,200.767
		c0.924,0,1.838,0.047,2.744,0.119c-10.258,6.24-17.11,17.527-17.11,30.409c0,17.727,12.975,32.42,29.945,35.112
		c-4.688,2.369-9.979,3.713-15.579,3.713c-19.116,0-34.667-15.56-34.667-34.676C141.457,216.319,157.009,200.767,176.125,200.767z"
		/>
	<path d="M283.7,0C127.307,0,0.067,127.266,0.067,283.705c0,156.43,127.239,283.705,283.633,283.705
		c156.403,0,283.642-127.275,283.642-283.705C567.342,127.266,440.103,0,283.7,0z M283.7,540.464
		c-141.543,0-256.696-115.181-256.696-256.759S142.158,26.945,283.7,26.945s256.706,115.181,256.706,256.759
		S425.243,540.464,283.7,540.464z"/>
	<path d="M414.19,352.622H139.751c-7.435,0-13.468,6.164-13.468,13.607c0,61.9,55.292,112.393,123.244,112.393h54.888
		c67.961,0,123.244-50.492,123.244-112.393C427.658,358.786,421.625,352.622,414.19,352.622z M393.569,398.409
		c-1.425-0.514-2.954-0.787-4.556-0.787h-49.785v-18h60.29C398.345,386.622,396.321,392.457,393.569,398.409z M249.228,397.622v-18
		h63v18H249.228z M222.228,379.622v18h-62.224c-2.564-6-4.459-12-5.581-18H222.228z M249.527,451.622c-27.63,0-52.562-11-70.139-27
		h195.17c-17.578,16-42.513,27-70.143,27H249.527z"/>
</g>
<g>
</g>
<g>
</g>
<g>
</g>
<g>
</g>
<g>
</g>
<g>
</g>
<g>
</g>
<g>
</g>
<g>
</g>
<g>
</g>
<g>
</g>
<g>
</g>
<g>
</g>
<g>
</g>
<g>
</g>
</svg>
