<?xml version="1.0" encoding="iso-8859-1"?>
<!-- Generator: Adobe Illustrator 19.1.0, SVG Export Plug-In . SVG Version: 6.00 Build 0)  -->
<svg version="1.1" id="Capa_1" xmlns="http://www.w3.org/2000/svg" xmlns:xlink="http://www.w3.org/1999/xlink" x="0px" y="0px"
	 viewBox="0 0 567.41 567.41" style="enable-background:new 0 0 567.41 567.41;" xml:space="preserve">
<g>
	<path d="M380.982,173.822c-33.976,0-61.613,27.646-61.613,61.622c0,33.976,27.637,61.622,61.613,61.622
		c33.967,0,61.604-27.646,61.604-61.622C442.586,201.468,414.949,173.822,380.982,173.822z M346.305,235.444
		c0-19.125,15.56-34.676,34.676-34.676c0.923,0,1.835,0.047,2.74,0.118c-10.259,6.24-17.115,17.527-17.115,30.41
		c0,17.728,12.984,32.423,29.951,35.112c-4.687,2.369-9.976,3.712-15.576,3.712C361.866,270.12,346.305,254.56,346.305,235.444z"/>
	<path d="M184.578,297.065c33.967,0,61.604-27.646,61.604-61.622c0-33.976-27.637-61.622-61.604-61.622
		c-33.976,0-61.613,27.646-61.613,61.622C122.965,269.419,150.602,297.065,184.578,297.065z M219.246,235.444
		c0,19.116-15.551,34.676-34.667,34.676c-5.308,0-10.341-1.204-14.844-3.346c0.743,0.046,1.491,0.078,2.246,0.078
		c19.637,0,35.547-15.919,35.547-35.556c0-12.529-6.483-23.541-16.273-29.876C207.186,204.541,219.246,218.604,219.246,235.444z"/>
	<path d="M283.705,0C127.302,0,0.063,127.266,0.063,283.705c0,156.43,127.239,283.705,283.642,283.705
		s283.642-127.275,283.642-283.705C567.347,127.266,440.108,0,283.705,0z M283.705,540.464
		c-141.552,0-256.705-115.181-256.705-256.759S142.153,26.945,283.705,26.945c141.543,0,256.706,115.181,256.706,256.759
		S425.248,540.464,283.705,540.464z"/>
	<path d="M414.186,352.622H139.747c-7.435,0-13.459,6.164-13.459,13.607c0,61.9,55.283,112.393,123.235,112.393h54.888
		c67.961,0,123.244-50.492,123.244-112.393C427.654,358.786,421.62,352.622,414.186,352.622z M393.525,398.49
		c-1.487-0.566-3.092-0.868-4.777-0.868h-50.525v-18h61.29C398.335,386.622,396.297,392.514,393.525,398.49z M249.224,397.622v-18
		h63v18H249.224z M222.224,379.622v18h-62.224c-2.564-6-4.459-12-5.581-18H222.224z M249.522,451.622c-27.63,0-52.562-11-70.139-27
		h195.17c-17.578,16-42.513,27-70.143,27H249.522z"/>
</g>
<g>
</g>
<g>
</g>
<g>
</g>
<g>
</g>
<g>
</g>
<g>
</g>
<g>
</g>
<g>
</g>
<g>
</g>
<g>
</g>
<g>
</g>
<g>
</g>
<g>
</g>
<g>
</g>
<g>
</g>
</svg>
