<?xml version="1.0" encoding="iso-8859-1"?>
<!-- Generator: Adobe Illustrator 19.1.0, SVG Export Plug-In . SVG Version: 6.00 Build 0)  -->
<svg version="1.1" id="Capa_1" xmlns="http://www.w3.org/2000/svg" xmlns:xlink="http://www.w3.org/1999/xlink" x="0px" y="0px"
	 viewBox="0 0 572.691 572.691" style="enable-background:new 0 0 572.691 572.691;" xml:space="preserve">
<g>
	<path d="M383.685,175.599c-31.866,0-57.797,25.922-57.797,57.797s25.931,57.806,57.797,57.806
		c31.857,0,57.788-25.931,57.788-57.806S415.542,175.599,383.685,175.599z M383.685,264.266c-10.142,0-19.155-4.92-24.784-12.499
		c4.036,1.779,8.497,2.775,13.192,2.775c18.074,0,32.728-14.654,32.728-32.737c0-4.693-0.994-9.152-2.772-13.187
		c7.571,5.629,12.487,14.64,12.487,24.778C414.537,250.42,400.691,264.266,383.685,264.266z"/>
	<path d="M202.851,175.599c-31.866,0-57.797,25.922-57.797,57.797s25.931,57.806,57.797,57.806
		c31.866,0,57.779-25.931,57.779-57.806S234.717,175.599,202.851,175.599z M202.851,264.266c-10.14,0-19.153-4.919-24.782-12.496
		c4.034,1.778,8.491,2.772,13.182,2.772c18.083,0,32.728-14.654,32.728-32.737c0-4.695-0.994-9.155-2.773-13.191
		c7.572,5.629,12.488,14.642,12.488,24.783C233.693,250.42,219.857,264.266,202.851,264.266z"/>
	<path d="M548.564,262.281C548.564,117.659,430.932,0,286.345,0C141.75,0,24.127,117.659,24.127,262.281
		c0,128.11,95.175,239.424,221.489,259.136c1.936,25.534,15.581,50.767,41.726,51.273c0.162,0.009,0.305-0.089,0.467-0.089
		c0.099,0,0.216,0,0.341,0c0.153,0,0.323,0,0.485,0c27.554,0,53.347-29.238,55.358-54.498
		C463.164,491.426,548.564,385.589,548.564,262.281z M245.309,447.748c-42-2.033-53.851-36.147-56.393-63.147h56.393V447.748z
		 M291.873,545.861c-11.008-0.171-19.564-16.62-19.564-30.779V500.95c0,7.443,6.066,13.476,13.5,13.476
		c7.435,0,13.5-6.034,13.5-13.477v-80.828c0-7.443-6.066-13.468-13.5-13.468c-7.434,0-13.5,6.024-13.5,13.467v-35.518h45v67.853
		c-2,2.33-3.089,5.32-3.089,8.582s1.089,6.253,3.089,8.582v45.461C317.309,529.106,303.546,545.69,291.873,545.861z
		 M344.309,384.601h43.803c-2.369,27-12.803,54.151-43.803,61.211V384.601z M344.309,490.483V473.24
		c45-7.146,71.384-44.16,71.384-102.341c0-7.443-6.122-13.297-13.556-13.297H174.846c-7.435,0-13.497,5.854-13.497,13.297
		c0,63.565,30.96,101.957,83.96,103.817v19.348c-111-19.555-194.274-118.321-194.274-231.782
		c0-129.762,105.552-235.336,235.296-235.336c129.735,0,235.377,105.573,235.377,235.336
		C521.708,370.832,448.309,464.382,344.309,490.483z"/>
</g>
<g>
</g>
<g>
</g>
<g>
</g>
<g>
</g>
<g>
</g>
<g>
</g>
<g>
</g>
<g>
</g>
<g>
</g>
<g>
</g>
<g>
</g>
<g>
</g>
<g>
</g>
<g>
</g>
<g>
</g>
</svg>
