<?xml version="1.0" encoding="iso-8859-1"?>
<!-- Generator: Adobe Illustrator 19.1.0, SVG Export Plug-In . SVG Version: 6.00 Build 0)  -->
<svg version="1.1" id="Capa_1" xmlns="http://www.w3.org/2000/svg" xmlns:xlink="http://www.w3.org/1999/xlink" x="0px" y="0px"
	 viewBox="0 0 567.41 567.41" style="enable-background:new 0 0 567.41 567.41;" xml:space="preserve">
<g>
	<path d="M160.313,248.921l66.892-27.287c4.795-1.957,8.045-6.492,8.35-11.664c0.323-5.172-2.361-10.065-6.887-12.579l-65.86-36.67
		c-6.519-3.627-14.698-1.284-18.317,5.217c-3.627,6.501-1.284,14.707,5.217,18.326l41.339,23.013l-40.899,16.692
		c-6.896,2.81-10.2,10.676-7.39,17.563c2.137,5.217,7.165,8.386,12.481,8.386C156.937,249.917,158.652,249.594,160.313,248.921z"/>
	<path d="M335.284,221.14l65.86,33.895c1.966,1.015,4.076,1.499,6.151,1.499c4.885,0,9.598-2.667,11.987-7.318
		c3.403-6.617,0.799-14.734-5.809-18.146l-43.494-22.375l43.88-24.432c6.492-3.618,8.835-11.825,5.217-18.326
		c-3.618-6.501-11.825-8.844-18.317-5.217l-65.86,36.67c-4.346,2.415-6.995,7.021-6.923,11.987
		C328.056,214.343,330.875,218.86,335.284,221.14z"/>
	<path d="M283.7,0C127.307,0,0.067,127.266,0.067,283.705c0,156.43,127.239,283.705,283.633,283.705
		c156.403,0,283.642-127.275,283.642-283.705C567.342,127.266,440.103,0,283.7,0z M283.7,540.464
		c-141.543,0-256.696-115.181-256.696-256.759S142.158,26.945,283.7,26.945s256.706,115.181,256.706,256.759
		S425.243,540.464,283.7,540.464z"/>
	<path d="M421.696,420.515c-4.098-57.942-52.386-103.893-111.167-103.893h-48.989c-57.908,0-105.635,44.77-110.947,101.687
		c-0.491,1.759-0.616,3.633-0.376,5.444c-0.077,1.712-0.122,3.447-0.122,5.178c0,3.583,1.419,7.106,3.951,9.629
		c2.532,2.523,5.944,4.062,9.518,4.062c0.009,0,0.009,0,0.018,0l244.952-0.472c7.435-0.009,13.45-6.113,13.45-13.547
		c0-1.326-0.032-2.693-0.077-4.008C422.037,423.252,421.97,421.846,421.696,420.515z M261.541,343.622h48.989
		c31.209,0,58.507,17.118,73.146,42.452c-40.118-25.69-111.412-52.22-195.784,1.036C202.4,361.183,229.976,343.622,261.541,343.622z
		 M379.141,415.141l-185.083,0.269C278.658,356.912,347.189,391.142,379.141,415.141z"/>
</g>
<g>
</g>
<g>
</g>
<g>
</g>
<g>
</g>
<g>
</g>
<g>
</g>
<g>
</g>
<g>
</g>
<g>
</g>
<g>
</g>
<g>
</g>
<g>
</g>
<g>
</g>
<g>
</g>
<g>
</g>
</svg>
