<?xml version="1.0" encoding="iso-8859-1"?>
<!-- Generator: Adobe Illustrator 19.1.0, SVG Export Plug-In . SVG Version: 6.00 Build 0)  -->
<svg version="1.1" id="Capa_1" xmlns="http://www.w3.org/2000/svg" xmlns:xlink="http://www.w3.org/1999/xlink" x="0px" y="0px"
	 viewBox="0 0 567.41 567.41" style="enable-background:new 0 0 567.41 567.41;" xml:space="preserve">
<g>
	<path d="M160.317,248.921l66.884-27.287c4.804-1.957,8.054-6.492,8.359-11.664c0.314-5.172-2.37-10.065-6.887-12.579l-65.851-36.67
		c-6.492-3.627-14.707-1.284-18.317,5.226c-3.628,6.492-1.284,14.698,5.217,18.317l41.33,23.022l-40.908,16.683
		c-6.887,2.81-10.191,10.676-7.381,17.563c2.128,5.226,7.165,8.386,12.481,8.386C156.932,249.917,158.656,249.594,160.317,248.921z"
		/>
	<path d="M335.288,221.14l65.86,33.895c1.966,1.015,4.076,1.499,6.151,1.499c4.885,0,9.589-2.667,11.987-7.309
		c3.403-6.617,0.799-14.743-5.809-18.146l-43.494-22.384l43.88-24.431c6.492-3.619,8.835-11.825,5.217-18.317
		c-3.627-6.51-11.825-8.853-18.317-5.226l-65.86,36.67c-4.346,2.415-7.003,7.021-6.923,11.987
		C328.06,214.343,330.871,218.869,335.288,221.14z"/>
	<path d="M408.421,316.514l-244.952,1.751c-7.399,0.054-13.37,6.081-13.37,13.48c0,59.925,48.953,106.878,111.445,106.878h48.998
		c62.493,0,111.446-47.725,111.446-108.629c0-3.591-1.428-7.036-3.987-9.568C415.452,317.893,412.183,316.469,408.421,316.514z
		 M310.543,411.622h-48.998c-43.341,0-77.092-27.783-83.432-66.536l215.825-1.552C387.429,382.655,353.138,411.622,310.543,411.622z
		"/>
	<path d="M283.705,0C127.311,0,0.072,127.266,0.072,283.705S127.311,567.41,283.705,567.41s283.633-127.266,283.633-283.705
		S440.099,0,283.705,0z M283.705,540.473c-141.543,0-256.696-115.19-256.696-256.768S142.162,26.945,283.705,26.945
		s256.697,115.181,256.697,256.759S425.248,540.473,283.705,540.473z"/>
</g>
<g>
</g>
<g>
</g>
<g>
</g>
<g>
</g>
<g>
</g>
<g>
</g>
<g>
</g>
<g>
</g>
<g>
</g>
<g>
</g>
<g>
</g>
<g>
</g>
<g>
</g>
<g>
</g>
<g>
</g>
</svg>
