<?xml version="1.0" encoding="iso-8859-1"?>
<!-- Generator: Adobe Illustrator 19.1.0, SVG Export Plug-In . SVG Version: 6.00 Build 0)  -->
<svg version="1.1" id="Capa_1" xmlns="http://www.w3.org/2000/svg" xmlns:xlink="http://www.w3.org/1999/xlink" x="0px" y="0px"
	 viewBox="0 0 567.41 567.41" style="enable-background:new 0 0 567.41 567.41;" xml:space="preserve">
<g>
	<path d="M405.705,176.919c-8.816,0-17.239,1.696-24.983,4.748c-7.065,1.915-13.361,5.689-18.334,10.77
		c-15.276,12.546-25.039,31.572-25.039,52.838c0,37.702,30.663,68.365,68.356,68.365c37.684,0,68.338-30.663,68.338-68.365
		C474.043,207.582,443.389,176.919,405.705,176.919z M405.705,286.695c-20.772,0-38.025-15.376-40.971-35.35
		c7.121,6.208,16.424,9.976,26.613,9.976c22.384,0,40.531-18.146,40.531-40.531c0-2.823-0.29-5.579-0.839-8.239
		c9.766,7.585,16.067,19.431,16.067,32.725C447.107,268.118,428.538,286.695,405.705,286.695z"/>
	<path d="M179.429,176.919c-8.821,0-17.248,1.698-24.997,4.756c-7.046,1.915-13.328,5.68-18.293,10.747
		c-15.286,12.546-25.057,31.578-25.057,52.853c0,37.702,30.663,68.365,68.347,68.365c37.693,0,68.356-30.663,68.356-68.365
		C247.785,207.582,217.122,176.919,179.429,176.919z M179.429,286.695c-20.774,0-38.019-15.378-40.962-35.354
		c7.122,6.21,16.427,9.98,26.614,9.98c22.384,0,40.522-18.146,40.522-40.531c0-2.826-0.291-5.583-0.84-8.245
		c9.775,7.584,16.086,19.433,16.086,32.731C220.848,268.118,202.262,286.695,179.429,286.695z"/>
	<path d="M283.7,0C127.307,0,0.067,127.266,0.067,283.705c0,156.43,127.239,283.705,283.633,283.705
		c156.403,0,283.642-127.275,283.642-283.705C567.342,127.266,440.103,0,283.7,0z M283.7,540.464
		c-141.543,0-256.696-115.181-256.696-256.759S142.158,26.945,283.7,26.945s256.706,115.181,256.706,256.759
		S425.243,540.464,283.7,540.464z"/>
</g>
<g>
</g>
<g>
</g>
<g>
</g>
<g>
</g>
<g>
</g>
<g>
</g>
<g>
</g>
<g>
</g>
<g>
</g>
<g>
</g>
<g>
</g>
<g>
</g>
<g>
</g>
<g>
</g>
<g>
</g>
</svg>
