<?xml version="1.0" encoding="iso-8859-1"?>
<!-- Generator: Adobe Illustrator 19.1.0, SVG Export Plug-In . SVG Version: 6.00 Build 0)  -->
<svg version="1.1" id="Capa_1" xmlns="http://www.w3.org/2000/svg" xmlns:xlink="http://www.w3.org/1999/xlink" x="0px" y="0px"
	 viewBox="0 0 567.419 567.419" style="enable-background:new 0 0 567.419 567.419;" xml:space="preserve">
<g>
	<g>
		<g id="group-22svg">
			<path id="path-1_13_" d="M162.998,267.022c-5.315,0-10.353-3.161-12.481-8.386c-2.81-6.887,0.503-14.752,7.381-17.563
				l41.231-16.817l-41.662-23.192c-6.492-3.618-8.835-11.825-5.217-18.326c3.627-6.492,11.834-8.844,18.317-5.217l66.183,36.849
				c4.516,2.514,7.201,7.408,6.887,12.579c-0.305,5.172-3.556,9.706-8.359,11.664l-67.207,27.412
				C166.41,266.699,164.686,267.022,162.998,267.022z"/>
			<path id="path-2_13_" d="M416.264,273.676c-2.083,0-4.184-0.485-6.16-1.499l-66.174-34.057c-4.409-2.281-7.228-6.797-7.3-11.762
				c-0.081-4.965,2.577-9.571,6.914-11.987l66.174-36.849c6.474-3.618,14.689-1.293,18.317,5.217
				c3.627,6.501,1.284,14.707-5.217,18.326l-44.194,24.611l43.808,22.546c6.608,3.403,9.221,11.529,5.818,18.146
				C425.854,271,421.14,273.676,416.264,273.676z"/>
			<path id="path-3_13_" d="M185.14,436.345c-3.852,0-7.686-1.643-10.353-4.84c-4.759-5.72-3.987-14.214,1.724-18.981l35.449-29.54
				c4.911-4.094,12.05-4.166,17.024-0.171l28.158,22.519l25.482-22.16c5.064-4.418,12.606-4.418,17.679,0l25.653,22.312
				l29.657-22.833c5.172-3.969,12.445-3.672,17.275,0.718l32.486,29.54c5.504,5.001,5.908,13.522,0.907,19.035
				c-5.01,5.504-13.522,5.899-19.026,0.898l-24.144-21.962l-29.46,22.672c-5.082,3.906-12.22,3.699-17.06-0.512l-25.132-21.854
				l-25.123,21.854c-4.902,4.274-12.157,4.418-17.248,0.359l-28.337-22.672L193.75,433.23
				C191.236,435.331,188.174,436.345,185.14,436.345z"/>
			<path id="path-4_13_" d="M283.709,567.419c-156.403,0-283.642-127.275-283.642-283.714C0.067,127.275,127.307,0,283.709,0
				s283.642,127.275,283.642,283.705C567.351,440.143,440.103,567.419,283.709,567.419z M283.709,26.946
				c-141.552,0-256.705,115.181-256.705,256.759c0,141.588,115.154,256.768,256.705,256.768s256.705-115.181,256.705-256.768
				C540.415,142.126,425.252,26.946,283.709,26.946z"/>
		</g>
	</g>
</g>
<g>
</g>
<g>
</g>
<g>
</g>
<g>
</g>
<g>
</g>
<g>
</g>
<g>
</g>
<g>
</g>
<g>
</g>
<g>
</g>
<g>
</g>
<g>
</g>
<g>
</g>
<g>
</g>
<g>
</g>
</svg>
