<?xml version="1.0" encoding="iso-8859-1"?>
<!-- Generator: Adobe Illustrator 19.1.0, SVG Export Plug-In . SVG Version: 6.00 Build 0)  -->
<svg version="1.1" id="Capa_1" xmlns="http://www.w3.org/2000/svg" xmlns:xlink="http://www.w3.org/1999/xlink" x="0px" y="0px"
	 viewBox="0 0 567.41 567.41" style="enable-background:new 0 0 567.41 567.41;" xml:space="preserve">
<g>
	<g>
		<g id="group-23svg">
			<path id="path-2_14_" d="M423.075,216.597c0,15.515-12.57,28.086-28.077,28.086c-15.507,0-28.077-12.57-28.077-28.086
				c0-15.506,12.57-28.077,28.077-28.077C410.504,188.52,423.075,201.09,423.075,216.597z"/>
			<path id="path-3_14_" d="M398.338,288.913c-38.025,0-68.958-30.941-68.958-68.967c0-38.034,30.932-68.976,68.958-68.976
				s68.958,30.941,68.958,68.976C467.296,257.971,436.363,288.913,398.338,288.913z M398.338,177.916
				c-23.165,0-42.021,18.856-42.021,42.03s18.856,42.03,42.021,42.03c23.174,0,42.021-18.856,42.021-42.03
				S421.512,177.916,398.338,177.916z"/>
			<path id="path-4_14_" d="M188.493,288.913c-38.025,0-68.958-30.941-68.958-68.967c0-38.034,30.932-68.976,68.958-68.976
				c38.016,0,68.949,30.941,68.949,68.976C257.442,257.971,226.51,288.913,188.493,288.913z M188.493,177.916
				c-23.174,0-42.021,18.856-42.021,42.03s18.847,42.03,42.021,42.03c23.165,0,42.012-18.856,42.012-42.03
				S211.659,177.916,188.493,177.916z"/>
			<path id="path-5_9_" d="M213.221,216.597c0,15.515-12.561,28.086-28.077,28.086c-15.506,0-28.077-12.57-28.077-28.086
				c0-15.506,12.57-28.077,28.077-28.077C200.659,188.52,213.221,201.09,213.221,216.597z"/>
			<path id="path-6_7_" d="M283.705,567.41c-156.403,0-283.642-127.275-283.642-283.705C0.063,127.266,127.302,0,283.705,0
				s283.642,127.266,283.642,283.705C567.347,440.135,440.108,567.41,283.705,567.41z M283.705,26.946
				c-141.552,0-256.705,115.181-256.705,256.759s115.154,256.759,256.705,256.759S540.41,425.283,540.41,283.705
				S425.257,26.946,283.705,26.946z"/>
		</g>
	</g>
</g>
<g>
</g>
<g>
</g>
<g>
</g>
<g>
</g>
<g>
</g>
<g>
</g>
<g>
</g>
<g>
</g>
<g>
</g>
<g>
</g>
<g>
</g>
<g>
</g>
<g>
</g>
<g>
</g>
<g>
</g>
</svg>
