<?xml version="1.0" encoding="iso-8859-1"?>
<!-- Generator: Adobe Illustrator 19.1.0, SVG Export Plug-In . SVG Version: 6.00 Build 0)  -->
<svg version="1.1" id="Capa_1" xmlns="http://www.w3.org/2000/svg" xmlns:xlink="http://www.w3.org/1999/xlink" x="0px" y="0px"
	 viewBox="0 0 567.419 567.419" style="enable-background:new 0 0 567.419 567.419;" xml:space="preserve">
<g>
	<path d="M395.007,188.52c-15.515,0-28.086,12.57-28.086,28.086c0,15.515,12.57,28.086,28.086,28.086
		c15.507,0,28.068-12.57,28.068-28.086C423.075,201.09,410.513,188.52,395.007,188.52z"/>
	<path d="M398.347,150.97c-38.025,0-68.958,30.95-68.958,68.976c0,38.034,30.932,68.976,68.958,68.976
		c38.016,0,68.949-30.941,68.949-68.976C467.296,181.921,436.363,150.97,398.347,150.97z M398.347,261.985
		c-23.174,0-42.021-18.856-42.021-42.039c0-23.174,18.847-42.03,42.021-42.03c23.165,0,42.012,18.856,42.012,42.03
		C440.359,243.129,421.512,261.985,398.347,261.985z"/>
	<path d="M188.502,288.922c38.016,0,68.949-30.941,68.949-68.976c0-38.025-30.932-68.976-68.949-68.976
		c-38.034,0-68.967,30.95-68.967,68.976C119.536,257.98,150.468,288.922,188.502,288.922z M188.502,177.916
		c23.165,0,42.012,18.856,42.012,42.03c0,23.183-18.847,42.039-42.012,42.039c-23.183,0-42.03-18.856-42.03-42.039
		C146.472,196.772,165.319,177.916,188.502,177.916z"/>
	<path d="M185.153,244.692c15.507,0,28.077-12.57,28.077-28.086c0-15.516-12.57-28.086-28.077-28.086
		c-15.506,0-28.086,12.57-28.086,28.086C157.067,232.121,169.646,244.692,185.153,244.692z"/>
	<path d="M283.714,0C127.311,0,0.072,127.275,0.072,283.705c0,156.439,127.239,283.714,283.642,283.714
		c156.394,0,283.633-127.275,283.633-283.714C567.347,127.275,440.108,0,283.714,0z M283.714,540.473
		c-141.552,0-256.705-115.181-256.705-256.768c0-141.579,115.154-256.759,256.705-256.759
		c141.543,0,256.697,115.181,256.697,256.759C540.41,425.292,425.257,540.473,283.714,540.473z"/>
	<path d="M404.291,397.622H152.883c-7.435,0-13.468,6.052-13.468,13.495c0,7.443,6.034,13.505,13.468,13.505h251.408
		c7.434,0,13.468-6.061,13.468-13.505C417.759,403.675,411.725,397.622,404.291,397.622z"/>
</g>
<g>
</g>
<g>
</g>
<g>
</g>
<g>
</g>
<g>
</g>
<g>
</g>
<g>
</g>
<g>
</g>
<g>
</g>
<g>
</g>
<g>
</g>
<g>
</g>
<g>
</g>
<g>
</g>
<g>
</g>
</svg>
