<?xml version="1.0" encoding="iso-8859-1"?>
<!-- Generator: Adobe Illustrator 19.1.0, SVG Export Plug-In . SVG Version: 6.00 Build 0)  -->
<svg version="1.1" id="Capa_1" xmlns="http://www.w3.org/2000/svg" xmlns:xlink="http://www.w3.org/1999/xlink" x="0px" y="0px"
	 viewBox="0 0 567.419 567.419" style="enable-background:new 0 0 567.419 567.419;" xml:space="preserve">
<g>
	<g>
		<g id="group-25svg">
			<path id="path-1_16_" d="M288.589,483.152c-38.034,0-68.967-30.941-68.967-68.967c0-38.034,30.932-68.976,68.967-68.976
				c38.016,0,68.949,30.941,68.949,68.976C357.538,452.211,326.606,483.152,288.589,483.152z M288.589,372.147
				c-23.174,0-42.03,18.856-42.03,42.039c0,23.174,18.856,42.021,42.03,42.021c23.165,0,42.021-18.847,42.021-42.021
				C330.61,391.002,311.755,372.147,288.589,372.147z"/>
			<path id="path-2_16_" d="M423.075,216.606c0,15.515-12.57,28.086-28.077,28.086c-15.507,0-28.077-12.57-28.077-28.086
				s12.57-28.086,28.077-28.086C410.504,188.52,423.075,201.09,423.075,216.606z"/>
			<path id="path-3_16_" d="M398.338,288.922c-38.016,0-68.949-30.941-68.949-68.976c0-38.025,30.932-68.976,68.949-68.976
				c38.025,0,68.958,30.95,68.958,68.976C467.296,257.98,436.363,288.922,398.338,288.922z M398.338,177.916
				c-23.165,0-42.012,18.856-42.012,42.03c0,23.183,18.847,42.039,42.012,42.039c23.174,0,42.021-18.856,42.021-42.039
				C440.359,196.772,421.512,177.916,398.338,177.916z"/>
			<path id="path-4_16_" d="M188.493,288.922c-38.025,0-68.958-30.941-68.958-68.976c0-38.025,30.932-68.976,68.958-68.976
				s68.958,30.95,68.958,68.976C257.451,257.98,226.519,288.922,188.493,288.922z M188.493,177.916
				c-23.174,0-42.021,18.856-42.021,42.03c0,23.183,18.847,42.039,42.021,42.039c23.165,0,42.021-18.856,42.021-42.039
				C230.514,196.772,211.659,177.916,188.493,177.916z"/>
			<path id="path-5_11_" d="M213.23,216.606c0,15.515-12.57,28.086-28.077,28.086s-28.086-12.57-28.086-28.086
				s12.579-28.086,28.086-28.086S213.23,201.09,213.23,216.606z"/>
			<path id="path-6_9_" d="M283.705,567.419c-156.394,0-283.633-127.275-283.633-283.714C0.072,127.275,127.311,0,283.705,0
				c156.403,0,283.642,127.275,283.642,283.705C567.347,440.143,440.108,567.419,283.705,567.419z M283.705,26.946
				c-141.543,0-256.697,115.181-256.697,256.759c0,141.588,115.154,256.768,256.697,256.768
				c141.552,0,256.705-115.181,256.705-256.768C540.41,142.126,425.257,26.946,283.705,26.946z"/>
		</g>
	</g>
</g>
<g>
</g>
<g>
</g>
<g>
</g>
<g>
</g>
<g>
</g>
<g>
</g>
<g>
</g>
<g>
</g>
<g>
</g>
<g>
</g>
<g>
</g>
<g>
</g>
<g>
</g>
<g>
</g>
<g>
</g>
</svg>
