<?xml version="1.0" encoding="iso-8859-1"?>
<!-- Generator: Adobe Illustrator 19.1.0, SVG Export Plug-In . SVG Version: 6.00 Build 0)  -->
<svg version="1.1" id="Capa_1" xmlns="http://www.w3.org/2000/svg" xmlns:xlink="http://www.w3.org/1999/xlink" x="0px" y="0px"
	 viewBox="0 0 565.622 565.622" style="enable-background:new 0 0 565.622 565.622;" xml:space="preserve">
<g>
	<path d="M545.03,262.281C545.03,117.659,427.407,0,282.811,0C138.225,0,20.593,117.659,20.593,262.281
		c0,124.945,90.542,233.895,212.196,257.49c2.516,26.725,26.3,45.046,51.117,45.385c0.126,0.009,0.251,0.238,0.368,0.238
		c0.108-0.009,0.224,0.229,0.35,0.229c0.117,0,0.233,0,0.359,0c24.384,0,43.989-17.969,46.136-45.287
		C455.139,497.238,545.03,388.78,545.03,262.281z M232.796,442.796c-36-6.946-45.199-42.174-47.405-66.174h47.405V442.796z
		 M288.635,538.219c-13.001-0.099-28.839-10.739-28.839-23.138v-21.765c0,7.443,6.066,13.468,13.5,13.468
		c7.434,0,13.5-6.025,13.5-13.468v-80.828c0-7.443-6.066-13.477-13.5-13.477c-7.435,0-13.5,6.034-13.5,13.477v-35.866h45v138.458
		C304.796,525.586,301.942,538.112,288.635,538.219z M331.796,376.622h52.764c-2.426,27-13.764,61.193-52.764,64.873V376.622z
		 M331.796,492.6v-24.066c50-3.479,80.52-43.21,80.52-105.446c0-7.434-6.27-13.466-13.704-13.466h-227.3
		c-7.434,0-13.349,6.032-13.349,13.466c0,60.922,27.833,100.709,74.833,106.997v22.138c-107-23.279-185.147-119.673-185.147-229.942
		c0-129.771,105.487-235.336,235.222-235.336c129.745,0,235.488,105.564,235.488,235.336
		C518.359,374.03,439.796,469.887,331.796,492.6z"/>
	<path d="M380.582,154.553c-35.592,0-64.549,28.966-64.549,64.576c0,35.601,28.957,64.567,64.549,64.567
		c35.601,0,64.558-28.966,64.558-64.567C445.14,183.519,416.183,154.553,380.582,154.553z M380.582,256.759
		c-20.75,0-37.612-16.88-37.612-37.63c0-20.75,16.862-37.63,37.612-37.63s37.621,16.88,37.621,37.63
		C418.203,239.879,401.332,256.759,380.582,256.759z"/>
	<path d="M187.375,154.553c-35.592,0-64.558,28.966-64.558,64.576c0,35.601,28.966,64.567,64.558,64.567
		c35.592,0,64.558-28.966,64.558-64.567C251.933,183.519,222.967,154.553,187.375,154.553z M187.375,256.759
		c-20.741,0-37.621-16.88-37.621-37.63c0-20.75,16.88-37.63,37.621-37.63c20.75,0,37.621,16.88,37.621,37.63
		C224.996,239.879,208.125,256.759,187.375,256.759z"/>
	<path d="M377.511,190.19c-14.285,0-25.859,11.583-25.859,25.859c0,14.285,11.574,25.859,25.859,25.859
		c14.276,0,25.85-11.574,25.85-25.859C403.361,201.773,391.788,190.19,377.511,190.19z"/>
	<path d="M184.295,190.19c-14.276,0-25.85,11.583-25.85,25.859c0,14.285,11.574,25.859,25.85,25.859
		c14.285,0,25.859-11.574,25.859-25.859C210.154,201.773,198.581,190.19,184.295,190.19z"/>
</g>
<g>
</g>
<g>
</g>
<g>
</g>
<g>
</g>
<g>
</g>
<g>
</g>
<g>
</g>
<g>
</g>
<g>
</g>
<g>
</g>
<g>
</g>
<g>
</g>
<g>
</g>
<g>
</g>
<g>
</g>
</svg>
