<?xml version="1.0" encoding="iso-8859-1"?>
<!-- Generator: Adobe Illustrator 19.1.0, SVG Export Plug-In . SVG Version: 6.00 Build 0)  -->
<svg version="1.1" id="Capa_1" xmlns="http://www.w3.org/2000/svg" xmlns:xlink="http://www.w3.org/1999/xlink" x="0px" y="0px"
	 viewBox="0 0 559.463 559.463" style="enable-background:new 0 0 559.463 559.463;" xml:space="preserve">
<g>
	<path d="M371.891,246.146c17.787,0,32.207-14.42,32.207-32.216c0-17.778-14.42-32.207-32.207-32.207
		c-17.778,0-32.198,14.429-32.198,32.207C339.693,231.726,354.113,246.146,371.891,246.146z"/>
	<path d="M186.738,246.146c17.787,0,32.198-14.42,32.198-32.216c0-17.778-14.42-32.207-32.198-32.207s-32.207,14.429-32.207,32.207
		C154.531,231.726,168.96,246.146,186.738,246.146z"/>
	<path d="M407.267,319.423c0-7.443-6.034-13.468-13.468-13.468c-7.435,0-13.468,5.789-13.468,13.232
		c0,41.312-33.374,73.436-75.979,73.436h-44.724c-42.605,0-75.97-32.636-75.97-74.603c0-7.434-6.034-13.35-13.468-13.35
		c-7.443,0-13.468,5.884-13.468,13.319c0,56.118,46.16,101.635,102.907,101.635h43.794c-0.112,3,0.432,5.179,1.738,7.473
		l22.196,39.064c5.271,9.051,14.142,16.385,24.324,20.039c4.714,1.679,9.527,2.54,14.223,2.54c6.564,0,12.885-1.612,18.362-4.809
		c0.206-0.117,0.395-0.227,0.584-0.353c9.033-5.594,15.264-15.288,17.168-26.763c1.751-10.559-0.26-21.799-5.459-30.715
		l-16.88-29.647c-0.959-1.683-2.23-3.073-3.693-4.156C395.369,374.102,407.272,348.374,407.267,319.423z M356.258,409.786
		l16.952,29.765c2.128,3.645,2.963,8.376,2.227,12.776c-0.377,2.272-1.517,6.296-4.947,8.296h-0.009
		c-3.457,2-7.56,0.953-9.724,0.171c-4.247-1.517-8.027-4.529-10.056-8.022l-20.432-35.845c8.84-2.164,17.188-5.413,24.898-9.609
		C355.444,408.156,355.805,408.99,356.258,409.786z"/>
	<path d="M279.732,0C125.529,0,0.067,125.488,0.067,279.736c0,154.239,125.462,279.727,279.664,279.727
		s279.655-125.488,279.664-279.727C559.396,125.488,433.944,0,279.732,0z M279.732,532.527
		c-139.361,0-252.728-113.403-252.728-252.791S140.371,26.945,279.732,26.945c139.343,0,252.728,113.403,252.728,252.791
		S419.084,532.527,279.732,532.527z"/>
</g>
<g>
</g>
<g>
</g>
<g>
</g>
<g>
</g>
<g>
</g>
<g>
</g>
<g>
</g>
<g>
</g>
<g>
</g>
<g>
</g>
<g>
</g>
<g>
</g>
<g>
</g>
<g>
</g>
<g>
</g>
</svg>
