<?xml version="1.0" encoding="iso-8859-1"?>
<!-- Generator: Adobe Illustrator 19.1.0, SVG Export Plug-In . SVG Version: 6.00 Build 0)  -->
<svg version="1.1" id="Capa_1" xmlns="http://www.w3.org/2000/svg" xmlns:xlink="http://www.w3.org/1999/xlink" x="0px" y="0px"
	 viewBox="0 0 559.463 559.463" style="enable-background:new 0 0 559.463 559.463;" xml:space="preserve">
<g>
	<path d="M312.514,341.622h-44.733c-57.707,0-102.916,43.348-102.916,98.981c0,7.443,6.034,13.351,13.468,13.351
		c7.435,0,13.468-6.321,13.468-13.764c0-41.204,32.665-72.567,75.979-72.567h44.733c42.605,0,75.97,32.804,75.97,74.367
		c0,7.443,6.034,13.596,13.468,13.596c7.452,0,13.468-5.739,13.468-13.182C415.42,385.728,370.212,341.622,312.514,341.622z"/>
	<path d="M279.732,0c-40.573,0-79.633,8.504-116.177,25.23c-6.272-7.309-11.148-12.291-12.634-13.782
		c-2.559-2.568-6.115-3.924-9.679-3.951c-3.628,0.036-7.084,1.535-9.589,4.157c-1.484,1.549-29.646,31.271-43.989,65.024
		c-0.639,0.431-1.256,0.911-1.831,1.464C30.524,131.379,0.067,202.967,0.067,279.727c0,154.248,125.453,279.736,279.664,279.736
		c154.203,0,279.664-125.488,279.664-279.736C559.396,125.488,433.935,0,279.732,0z M141.655,41.141
		c14.339,16.557,34.587,43.969,37.038,64.908c1.571,13.325-0.269,23.031-5.441,28.849c-5.639,6.339-16.359,9.553-31.875,9.553
		c-14.869,0-24.997-2.981-30.115-8.862c-4.911-5.648-6.42-15.489-4.507-29.244C110.058,82.767,129.641,55.795,141.655,41.141z
		 M279.732,532.518c-139.352,0-252.728-113.394-252.728-252.791c0-56.752,18.434-110.379,52.513-154.355
		c1.255,11.243,5.069,20.584,11.435,27.897c10.595,12.193,27.089,18.119,50.434,18.119c23.525,0,41.015-6.249,51.997-18.577
		c10.514-11.816,14.573-28.607,12.086-49.896c-2.236-18.999-13.258-39.176-24.855-55.773c31.32-13.393,64.605-20.197,99.119-20.197
		c139.361,0,252.728,113.394,252.728,252.782C532.46,419.124,419.093,532.518,279.732,532.518z"/>
	<path d="M209.364,250.86c2.631,2.631,6.079,3.942,9.527,3.942s6.887-1.311,9.518-3.942c5.262-5.262,5.262-13.792,0-19.053
		c-23.085-23.094-61.658-23.543-84.204-0.979c-5.262,5.262-5.262,13.792,0,19.053s13.792,5.262,19.044,0
		C175.496,237.652,196.596,238.092,209.364,250.86z"/>
	<path d="M327.418,230.828c-5.262,5.262-5.262,13.792,0,19.053s13.783,5.262,19.044,0c12.238-12.229,33.339-11.789,46.115,0.979
		c2.631,2.631,6.07,3.942,9.518,3.942c3.457,0,6.896-1.311,9.527-3.942c5.262-5.262,5.262-13.792,0-19.053
		C388.529,208.714,349.964,208.265,327.418,230.828z"/>
</g>
<g>
</g>
<g>
</g>
<g>
</g>
<g>
</g>
<g>
</g>
<g>
</g>
<g>
</g>
<g>
</g>
<g>
</g>
<g>
</g>
<g>
</g>
<g>
</g>
<g>
</g>
<g>
</g>
<g>
</g>
</svg>
