<?xml version="1.0" encoding="iso-8859-1"?>
<!-- Generator: Adobe Illustrator 19.1.0, SVG Export Plug-In . SVG Version: 6.00 Build 0)  -->
<svg version="1.1" id="Capa_1" xmlns="http://www.w3.org/2000/svg" xmlns:xlink="http://www.w3.org/1999/xlink" x="0px" y="0px"
	 viewBox="0 0 559.463 559.463" style="enable-background:new 0 0 559.463 559.463;" xml:space="preserve">
<g>
	<path d="M312.505,339.622h-44.733c-57.707,0-102.916,43.805-102.916,99.985c0,7.435,6.034,13.363,13.468,13.363
		s13.468-5.849,13.468-13.284c0-41.078,33.374-73.065,75.979-73.065h44.733c42.605,0,75.97,32.545,75.97,74.386
		c0,7.443,6.034,13.35,13.468,13.35c7.452,0,13.468-5.874,13.468-13.318C415.411,385.04,369.251,339.622,312.505,339.622z"/>
	<path d="M279.732,0c-40.576,0-79.637,8.505-116.182,25.241c-6.273-7.31-11.151-12.292-12.637-13.784
		c-2.568-2.568-5.702-4.067-9.679-3.96c-3.627,0.036-7.084,1.544-9.589,4.166c-1.484,1.542-29.647,31.264-43.99,65.022
		c-0.635,0.43-1.249,0.907-1.82,1.457C30.524,131.388,0.067,202.976,0.067,279.736c0,154.239,125.453,279.727,279.664,279.727
		c154.194,0,279.655-125.488,279.664-279.727C559.396,125.488,433.935,0,279.732,0z M141.646,41.159
		c14.348,16.584,34.605,44.023,37.038,64.899c1.571,13.325-0.269,23.031-5.441,28.849c-5.639,6.339-16.368,9.544-31.875,9.544
		c-14.869,0-24.997-2.981-30.115-8.853c-4.911-5.657-6.42-15.489-4.507-29.244C110.049,82.776,129.623,55.813,141.646,41.159z
		 M279.732,532.527c-139.352,0-252.728-113.403-252.728-252.791c0-56.756,18.431-110.374,52.505-154.346
		c1.256,11.237,5.07,20.573,11.433,27.888c10.595,12.193,27.089,18.119,50.434,18.119c23.534,0,41.024-6.249,51.997-18.577
		c10.514-11.825,14.573-28.607,12.086-49.904c-2.236-18.997-13.255-39.17-24.852-55.764c31.322-13.401,64.608-20.206,99.125-20.206
		c139.352,0,252.728,113.403,252.728,252.791S419.093,532.527,279.732,532.527z"/>
	<path d="M195.528,264.239c0,7.443,6.034,13.468,13.468,13.468c7.435,0,13.468-6.025,13.468-13.468
		c0-32.656-26.946-60.248-58.838-60.248c-7.443,0-13.477,6.025-13.477,13.468c0,7.443,6.034,13.468,13.477,13.468
		C180.919,230.927,195.528,246.182,195.528,264.239z"/>
	<path d="M346.13,277.016c7.434,0,13.468-6.025,13.468-13.468c0-17.311,15.246-31.92,33.294-31.92
		c7.435,0,13.468-6.034,13.468-13.477c0-7.443-6.034-13.468-13.468-13.468c-32.647,0-60.23,26.955-60.23,58.865
		C332.662,270.991,338.687,277.016,346.13,277.016z"/>
</g>
<g>
</g>
<g>
</g>
<g>
</g>
<g>
</g>
<g>
</g>
<g>
</g>
<g>
</g>
<g>
</g>
<g>
</g>
<g>
</g>
<g>
</g>
<g>
</g>
<g>
</g>
<g>
</g>
<g>
</g>
</svg>
