<?xml version="1.0" encoding="iso-8859-1"?>
<!-- Generator: Adobe Illustrator 19.1.0, SVG Export Plug-In . SVG Version: 6.00 Build 0)  -->
<svg version="1.1" id="Capa_1" xmlns="http://www.w3.org/2000/svg" xmlns:xlink="http://www.w3.org/1999/xlink" x="0px" y="0px"
	 viewBox="0 0 567.41 567.41" style="enable-background:new 0 0 567.41 567.41;" xml:space="preserve">
<g>
	<path d="M399.478,344.671c-7.435,0-13.468,6.095-13.468,13.539c0,42.254-33.958,75.412-77.308,75.412h-45.397
		c-42.632,0-77.308-34.307-77.308-76.409c0-7.443-6.034-13.499-13.468-13.499c-7.435,0-13.468,6.098-13.468,13.542
		c0,56.953,46.762,103.366,104.245,103.366h45.397c58.461,0,104.245-45.028,104.245-102.385
		C412.947,350.794,406.913,344.671,399.478,344.671z"/>
	<path d="M283.705,0C127.302,0,0.063,127.266,0.063,283.696c0,156.439,127.239,283.714,283.642,283.714
		s283.642-127.275,283.642-283.714C567.347,127.266,440.108,0,283.705,0z M283.705,26.937c111.922,0,207.332,72.03,242.372,172.167
		l-35.767,16.472c-9.055-38.571-43.736-67.545-85.013-67.545c-42.128,0-77.384,30.592-85.547,69.592h-61.934
		c-8.163-39-43.418-69.592-85.538-69.592c-41.414,0-76.186,29.073-85.108,67.827l-38.028-17.475
		c-2.33-1.076-4.798-1.396-7.164-1.126C77.53,98.071,172.458,26.937,283.705,26.937z M465.679,235.551
		c0,33.303-27.08,60.401-60.383,60.401s-60.392-27.098-60.392-60.401c0-33.312,27.089-60.41,60.392-60.41
		S465.679,202.24,465.679,235.551z M232.635,236.557c-0.541,32.839-27.392,59.395-60.357,59.395
		c-33.303,0-60.392-27.098-60.392-60.401c0-33.312,27.089-60.41,60.392-60.41c30.659,0,56.025,22.972,59.863,52.609
		c-0.332,1.171-0.521,2.402-0.521,3.679C231.619,233.247,231.983,234.977,232.635,236.557z M283.705,540.464
		c-141.552,0-256.705-115.181-256.705-256.768c0-21.654,2.707-42.686,7.777-62.788c0.916,0.779,1.942,1.456,3.087,1.983
		l47.575,21.914c4.636,43.828,41.809,77.955,86.838,77.955c44.988,0,82.14-34.137,86.818-78.137h59.373
		c4.678,44,41.831,78.137,86.827,78.137c45.166,0,82.437-34.417,86.876-78.45l41.524-19.089c4.388,18.78,6.714,38.36,6.714,58.458
		C540.41,425.266,425.248,540.464,283.705,540.464z"/>
</g>
<g>
</g>
<g>
</g>
<g>
</g>
<g>
</g>
<g>
</g>
<g>
</g>
<g>
</g>
<g>
</g>
<g>
</g>
<g>
</g>
<g>
</g>
<g>
</g>
<g>
</g>
<g>
</g>
<g>
</g>
</svg>
