<?xml version="1.0" encoding="iso-8859-1"?>
<!-- Generator: Adobe Illustrator 19.1.0, SVG Export Plug-In . SVG Version: 6.00 Build 0)  -->
<svg version="1.1" id="Capa_1" xmlns="http://www.w3.org/2000/svg" xmlns:xlink="http://www.w3.org/1999/xlink" x="0px" y="0px"
	 viewBox="0 0 567.41 567.41" style="enable-background:new 0 0 567.41 567.41;" xml:space="preserve">
<g>
	<path d="M390.935,372.64c-6.932-2.559-14.716,1.006-17.284,7.991c-11.996,32.548-30.717,54.25-55.66,64.495
		c-45.128,18.532-97.313-5.36-98.184-5.764c-6.716-3.17-14.752-0.305-17.922,6.42c-3.188,6.716-0.314,14.752,6.402,17.94
		c1.823,0.862,33.168,15.426,71.427,15.426c15.471,0,32.073-2.388,48.306-9.015c32.306-13.199,56.172-40.18,70.897-80.19
		C401.494,382.957,397.92,375.217,390.935,372.64z"/>
	<path d="M283.709,0C127.307,0,0.067,127.266,0.067,283.696c0,156.439,127.239,283.714,283.642,283.714
		c156.394,0,283.642-127.275,283.633-283.714C567.342,127.266,440.103,0,283.709,0z M283.709,26.937
		c111.922,0,207.334,72.031,242.368,172.169l-35.755,16.472c-9.057-38.571-43.744-67.547-85.021-67.547
		c-42.12,0-77.382,30.592-85.547,69.592h-61.925c-8.165-39-43.426-69.592-85.547-69.592c-41.407,0-76.184,29.073-85.108,67.827
		l-38.028-17.475c-2.328-1.077-4.797-1.397-7.165-1.125C77.534,98.072,172.462,26.937,283.709,26.937z M465.693,235.551
		c0,33.303-27.089,60.401-60.392,60.401s-60.383-27.098-60.383-60.401c0-33.312,27.08-60.41,60.383-60.41
		S465.702,202.24,465.693,235.551z M232.583,238.809c-1.698,31.794-28.092,57.143-60.301,57.143
		c-33.303,0-60.392-27.098-60.392-60.401c0-33.312,27.089-60.41,60.392-60.41c29.847,0,54.687,21.772,59.524,50.27
		c-0.908,1.813-1.431,3.853-1.431,6.019C230.375,234.157,231.191,236.69,232.583,238.809z M283.709,540.464
		c-141.552,0-256.705-115.181-256.705-256.768c0-21.655,2.707-42.688,7.778-62.791c0.916,0.779,1.941,1.458,3.087,1.986
		l47.575,21.914c4.637,43.828,41.818,77.955,86.838,77.955c44.988,0,82.148-34.137,86.827-78.137h59.365
		c4.68,44,41.839,78.137,86.827,78.137c45.165,0,82.443-34.415,86.884-78.447l41.51-19.089c4.386,18.779,6.712,38.358,6.71,58.455
		C540.406,425.266,425.252,540.464,283.709,540.464z"/>
</g>
<g>
</g>
<g>
</g>
<g>
</g>
<g>
</g>
<g>
</g>
<g>
</g>
<g>
</g>
<g>
</g>
<g>
</g>
<g>
</g>
<g>
</g>
<g>
</g>
<g>
</g>
<g>
</g>
<g>
</g>
</svg>
