<?xml version="1.0" encoding="iso-8859-1"?>
<!-- Generator: Adobe Illustrator 19.1.0, SVG Export Plug-In . SVG Version: 6.00 Build 0)  -->
<svg version="1.1" id="Capa_1" xmlns="http://www.w3.org/2000/svg" xmlns:xlink="http://www.w3.org/1999/xlink" x="0px" y="0px"
	 viewBox="0 0 567.41 567.41" style="enable-background:new 0 0 567.41 567.41;" xml:space="preserve">
<g>
	<g>
		<g id="group-34svg">
			<path id="path-1_26_" d="M407.757,469.028c-7.434,0-13.468-6.025-13.468-13.468c0-42.587-33.958-75.943-77.317-75.943h-45.388
				c-43.359,0-77.317,32.746-77.317,74.551c0,7.443-6.034,13.468-13.468,13.468c-7.443,0-13.468-6.025-13.468-13.468
				c0-56.917,45.792-101.497,104.253-101.497h45.388c57.483,0,104.253,46.151,104.253,102.889
				C421.225,463.004,415.191,469.028,407.757,469.028z"/>
			<path id="path-2_26_" d="M221.661,191.932c-3.439,0-6.887-1.311-9.518-3.942c-7.461-7.461-17.877-11.87-28.589-12.086
				c-10.712-0.395-20.75,3.663-28.032,10.945c-5.262,5.262-13.783,5.262-19.044,0s-5.262-13.792,0-19.053
				c12.526-12.526,29.19-19.206,47.642-18.838c17.841,0.368,34.56,7.47,47.067,19.978c5.262,5.262,5.262,13.792,0,19.053
				C228.557,190.621,225.109,191.932,221.661,191.932z"/>
			<path id="path-3_26_" d="M434.424,191.932c-3.448,0-6.896-1.311-9.527-3.942c-7.461-7.461-17.877-11.87-28.58-12.086
				c-10.757-0.395-20.759,3.663-28.032,10.945c-5.262,5.262-13.792,5.262-19.053,0c-5.262-5.262-5.262-13.792,0-19.053
				c12.526-12.526,28.993-19.206,47.642-18.838c17.841,0.368,34.569,7.47,47.067,19.978c5.262,5.262,5.262,13.792,0,19.053
				C441.311,190.621,437.872,191.932,434.424,191.932z"/>
			<path id="path-4_26_" d="M157.498,333.044c-17.078,0-29.801-4.678-37.819-13.89c-7.883-9.06-10.721-21.899-8.449-38.142
				c4.229-30.268,33.24-61.353,36.535-64.791c2.505-2.622,5.971-4.121,9.589-4.166c3.888,0.18,7.111,1.401,9.679,3.969
				c3.601,3.601,35.215,36.068,38.645,65.285c1.859,15.875-1.275,28.508-9.329,37.568
				C187.981,328.276,174.908,333.044,157.498,333.044z M157.758,246.048c-8.305,10.784-18.083,26.039-19.861,38.699
				c-0.79,5.621-1.06,13.091,2.11,16.719c2.595,2.99,8.808,4.633,17.491,4.633c6.465,0,14.95-0.889,18.721-5.136
				c3.394-3.807,3.34-11.08,2.703-16.512C177.539,272.661,166.719,257.011,157.758,246.048z"/>
			<path id="path-5_20_" d="M283.705,567.41c-156.394,0-283.633-127.275-283.633-283.714C0.072,127.266,127.311,0,283.705,0
				c156.403,0,283.633,127.266,283.633,283.696C567.338,440.135,440.108,567.41,283.705,567.41z M283.705,26.937
				c-141.543,0-256.697,115.19-256.697,256.759c0,141.588,115.154,256.768,256.697,256.768s256.696-115.181,256.696-256.768
				C540.401,142.126,425.248,26.937,283.705,26.937z"/>
		</g>
	</g>
</g>
<g>
</g>
<g>
</g>
<g>
</g>
<g>
</g>
<g>
</g>
<g>
</g>
<g>
</g>
<g>
</g>
<g>
</g>
<g>
</g>
<g>
</g>
<g>
</g>
<g>
</g>
<g>
</g>
<g>
</g>
</svg>
