<?xml version="1.0" encoding="iso-8859-1"?>
<!-- Generator: Adobe Illustrator 19.1.0, SVG Export Plug-In . SVG Version: 6.00 Build 0)  -->
<svg version="1.1" id="Capa_1" xmlns="http://www.w3.org/2000/svg" xmlns:xlink="http://www.w3.org/1999/xlink" x="0px" y="0px"
	 viewBox="0 0 567.41 567.41" style="enable-background:new 0 0 567.41 567.41;" xml:space="preserve">
<g>
	<path d="M169.382,262.452c4.48-27.655-15.946-65.483-18.29-69.703c-0.482-0.867-1.061-1.665-1.709-2.396
		c2.25-0.582,4.381-1.74,6.145-3.503c7.291-7.282,17.428-11.233,28.023-10.945c10.721,0.224,21.136,4.624,28.598,12.086
		c2.631,2.631,6.079,3.951,9.518,3.951c3.448,0,6.896-1.32,9.527-3.951c5.262-5.262,5.262-13.792,0-19.044
		c-12.517-12.517-29.226-19.61-47.076-19.978c-18.622-0.287-35.116,6.312-47.633,18.838c-5.07,5.07-5.24,13.167-0.538,18.45
		c-1.196,0.309-2.357,0.773-3.44,1.411c-3.897,2.281-38.43,23.094-50.183,49.68c-6.348,14.366-7.075,26.955-2.173,37.415
		c4.983,10.649,15.489,18.308,31.193,22.779c6.617,1.886,12.795,2.837,18.389,2.837C142.247,300.379,164.03,295.449,169.382,262.452
		z M142.795,258.142c-2.478,15.291-8.602,15.291-13.064,15.291c-3.098,0-6.797-0.602-11.008-1.805
		c-7.659-2.182-12.705-5.127-14.187-8.305c-1.41-3.008-0.548-8.359,2.424-15.076c4.687-10.622,16.889-21.54,26.981-29.091
		C139.096,231.232,144.519,247.511,142.795,258.142z"/>
	<path d="M488.849,237.347c-10.128-22.909-37.152-41.519-46.932-47.692c0.715-0.481,1.397-1.033,2.029-1.665
		c5.262-5.262,5.262-13.792,0-19.044c-12.508-12.517-29.226-19.61-47.076-19.978c-18.496-0.287-35.125,6.312-47.633,18.838
		c-5.262,5.262-5.262,13.792,0,19.044c5.262,5.262,13.783,5.262,19.044,0c7.291-7.282,17.212-11.233,28.032-10.945
		c10.642,0.223,20.988,4.57,28.439,11.943c-1.931,1.2-3.548,2.878-4.672,4.901c-2.343,4.22-22.77,42.048-18.29,69.703
		c5.351,32.997,27.134,37.927,39.651,37.927c5.594,0,11.771-0.952,18.38-2.837c15.713-4.471,26.209-12.13,31.201-22.779
		C495.925,264.302,495.197,251.713,488.849,237.347z M466.636,263.323c-1.482,3.179-6.528,6.124-14.187,8.305
		c-4.211,1.203-7.91,1.805-11.008,1.805c-4.463,0-10.586,0-13.064-15.291c-1.625-10.011,3.304-26.039,8.844-39.022
		c10.074,7.533,22.277,18.443,26.99,29.127C467.183,254.964,468.045,260.315,466.636,263.323z"/>
	<path d="M283.709,0C127.307,0,0.067,127.266,0.067,283.705S127.307,567.41,283.709,567.41
		c156.394,0,283.633-127.266,283.633-283.705S440.103,0,283.709,0z M283.709,540.464c-141.552,0-256.705-115.181-256.705-256.759
		S142.158,26.937,283.709,26.937c141.543,0,256.697,115.19,256.697,256.768S425.252,540.464,283.709,540.464z"/>
	<path d="M312.864,339.622h-54.897c-72.558,0-123.235,46.295-123.235,112.397c0,7.443,6.034,13.603,13.468,13.603h274.43
		c0.072,0,0.135-0.12,0.18-0.12c7.443,0,13.468-6.085,13.468-13.528c0-0.79-0.063-1.616-0.198-2.37
		C434.895,384.75,384.569,339.622,312.864,339.622z M162.558,438.622c6.806-50,51.296-72,95.409-72h54.897
		c44.113,0,88.603,22,95.409,72H162.558z"/>
</g>
<g>
</g>
<g>
</g>
<g>
</g>
<g>
</g>
<g>
</g>
<g>
</g>
<g>
</g>
<g>
</g>
<g>
</g>
<g>
</g>
<g>
</g>
<g>
</g>
<g>
</g>
<g>
</g>
<g>
</g>
</svg>
