<?xml version="1.0" encoding="iso-8859-1"?>
<!-- Generator: Adobe Illustrator 19.1.0, SVG Export Plug-In . SVG Version: 6.00 Build 0)  -->
<svg version="1.1" id="Capa_1" xmlns="http://www.w3.org/2000/svg" xmlns:xlink="http://www.w3.org/1999/xlink" x="0px" y="0px"
	 viewBox="0 0 567.41 567.41" style="enable-background:new 0 0 567.41 567.41;" xml:space="preserve">
<g>
	<path d="M169.377,262.443c4.48-27.646-15.946-65.474-18.29-69.694c-0.482-0.867-1.061-1.665-1.709-2.396
		c2.25-0.582,4.381-1.74,6.145-3.503c7.282-7.282,17.383-11.268,28.023-10.945c10.721,0.216,21.136,4.624,28.598,12.086
		c2.631,2.631,6.079,3.942,9.527,3.942c3.439,0,6.887-1.311,9.518-3.942c5.262-5.262,5.262-13.792,0-19.053
		c-12.508-12.508-29.226-19.61-47.076-19.978c-18.443-0.368-35.116,6.312-47.633,18.838c-5.07,5.07-5.24,13.167-0.538,18.458
		c-1.195,0.31-2.355,0.774-3.44,1.412c-3.897,2.281-38.421,23.094-50.183,49.68c-6.348,14.357-7.075,26.946-2.173,37.415
		c4.992,10.64,15.48,18.308,31.193,22.779c6.617,1.886,12.795,2.837,18.389,2.837C142.243,300.379,164.035,295.449,169.377,262.443z
		 M142.791,258.133c-2.478,15.3-8.602,15.3-13.064,15.3c-3.089,0-6.797-0.602-10.999-1.805c-7.668-2.182-12.705-5.127-14.187-8.305
		c-1.419-3.008-0.557-8.359,2.415-15.076c4.696-10.622,16.889-21.54,26.982-29.091C139.091,231.223,144.515,247.511,142.791,258.133
		z"/>
	<path d="M488.845,237.347c-10.121-22.912-37.157-41.524-46.93-47.694c0.714-0.48,1.395-1.031,2.026-1.663
		c5.262-5.262,5.262-13.792,0-19.053c-12.499-12.508-29.217-19.61-47.076-19.978c-18.317-0.368-35.116,6.312-47.624,18.838
		c-5.262,5.262-5.262,13.792,0,19.053c5.253,5.262,13.783,5.262,19.044,0c7.282-7.291,17.482-11.161,28.032-10.945
		c10.634,0.214,20.981,4.571,28.432,11.945c-1.928,1.2-3.546,2.877-4.674,4.899c-2.343,4.22-22.77,42.048-18.281,69.694
		c5.333,33.006,27.134,37.936,39.651,37.936c5.585,0,11.771-0.952,18.38-2.837c15.713-4.471,26.209-12.139,31.201-22.779
		C495.92,264.293,495.193,251.704,488.845,237.347z M466.631,263.323c-1.482,3.179-6.528,6.124-14.187,8.305
		c-4.202,1.203-7.91,1.805-10.999,1.805c-4.471,0-10.595,0-13.064-15.3c-1.625-10.011,3.304-26.03,8.835-39.013
		c10.074,7.524,22.277,18.443,26.99,29.127C467.179,254.964,468.041,260.315,466.631,263.323z"/>
	<path d="M283.705,0C127.302,0,0.063,127.266,0.063,283.696c0,156.439,127.239,283.714,283.642,283.714
		s283.642-127.275,283.642-283.714C567.347,127.266,440.108,0,283.705,0z M283.705,540.464
		c-141.552,0-256.705-115.181-256.705-256.768c0-141.57,115.154-256.759,256.705-256.759c141.543,0,256.706,115.19,256.706,256.759
		C540.41,425.283,425.248,540.464,283.705,540.464z"/>
	<path d="M422.626,343.622h-274.43c-7.435,0-13.468,6.159-13.468,13.603c0,61.9,55.283,112.397,123.244,112.397h54.888
		c67.952,0,123.235-50.497,123.235-112.397C436.094,349.782,430.069,343.622,422.626,343.622z M312.859,442.622h-54.888
		c-47.929,0-87.795-31-95.104-72h245.096C400.645,411.622,360.788,442.622,312.859,442.622z"/>
</g>
<g>
</g>
<g>
</g>
<g>
</g>
<g>
</g>
<g>
</g>
<g>
</g>
<g>
</g>
<g>
</g>
<g>
</g>
<g>
</g>
<g>
</g>
<g>
</g>
<g>
</g>
<g>
</g>
<g>
</g>
</svg>
