<?xml version="1.0" encoding="iso-8859-1"?>
<!-- Generator: Adobe Illustrator 19.1.0, SVG Export Plug-In . SVG Version: 6.00 Build 0)  -->
<svg version="1.1" id="Capa_1" xmlns="http://www.w3.org/2000/svg" xmlns:xlink="http://www.w3.org/1999/xlink" x="0px" y="0px"
	 viewBox="0 0 567.41 567.41" style="enable-background:new 0 0 567.41 567.41;" xml:space="preserve">
<g>
	<g>
		<g id="group-39svg">
			<path id="path-1_31_" d="M288.163,452.121c-38.268,0-69.613-14.564-71.436-15.426c-6.716-3.188-9.58-11.224-6.402-17.94
				c3.179-6.725,11.197-9.58,17.922-6.42c0.871,0.413,53.056,24.306,98.184,5.764c24.943-10.236,43.664-31.947,55.66-64.495
				c2.568-6.986,10.344-10.55,17.293-7.982c6.977,2.568,10.559,10.317,7.973,17.293c-14.725,40.019-38.582,66.991-70.897,80.19
				C320.226,449.742,303.633,452.121,288.163,452.121z"/>
			<path id="path-2_31_" d="M398.342,288.922c-38.025,0-68.958-30.941-68.958-68.976s30.932-68.976,68.958-68.976
				c38.016,0,68.949,30.941,68.949,68.976S436.359,288.922,398.342,288.922z M398.342,177.907
				c-23.174,0-42.021,18.856-42.021,42.039c0,23.174,18.847,42.03,42.021,42.03c23.165,0,42.012-18.856,42.012-42.03
				C440.354,196.763,421.508,177.907,398.342,177.907z"/>
			<path id="path-3_31_" d="M188.498,288.922c-38.034,0-68.967-30.941-68.967-68.976s30.932-68.976,68.967-68.976
				c38.016,0,68.949,30.941,68.949,68.976S226.514,288.922,188.498,288.922z M188.498,177.907c-23.183,0-42.03,18.856-42.03,42.039
				c0,23.174,18.847,42.03,42.03,42.03c23.165,0,42.012-18.856,42.012-42.03C230.51,196.763,211.663,177.907,188.498,177.907z"/>
			<path id="path-4_31_" d="M423.07,216.597c0,15.515-12.561,28.086-28.068,28.086c-15.515,0-28.086-12.57-28.086-28.086
				c0-15.506,12.57-28.086,28.086-28.086C410.509,188.511,423.07,201.09,423.07,216.597z"/>
			<path id="path-5_23_" d="M213.225,216.597c0,15.515-12.57,28.086-28.077,28.086c-15.506,0-28.086-12.57-28.086-28.086
				c0-15.506,12.579-28.086,28.086-28.086C200.655,188.511,213.225,201.09,213.225,216.597z"/>
			<path id="path-6_15_" d="M283.709,567.41c-156.403,0-283.642-127.275-283.642-283.714C0.067,127.266,127.307,0,283.709,0
				c156.394,0,283.633,127.266,283.633,283.696C567.351,440.135,440.103,567.41,283.709,567.41z M283.709,26.937
				c-141.552,0-256.705,115.19-256.705,256.759c0,141.588,115.154,256.768,256.705,256.768
				c141.543,0,256.697-115.181,256.697-256.768C540.415,142.126,425.252,26.937,283.709,26.937z"/>
		</g>
	</g>
</g>
<g>
</g>
<g>
</g>
<g>
</g>
<g>
</g>
<g>
</g>
<g>
</g>
<g>
</g>
<g>
</g>
<g>
</g>
<g>
</g>
<g>
</g>
<g>
</g>
<g>
</g>
<g>
</g>
<g>
</g>
</svg>
