<?xml version="1.0" encoding="iso-8859-1"?>
<!-- Generator: Adobe Illustrator 19.1.0, SVG Export Plug-In . SVG Version: 6.00 Build 0)  -->
<svg version="1.1" id="Capa_1" xmlns="http://www.w3.org/2000/svg" xmlns:xlink="http://www.w3.org/1999/xlink" x="0px" y="0px"
	 viewBox="0 0 567.41 567.41" style="enable-background:new 0 0 567.41 567.41;" xml:space="preserve">
<g>
	<g>
		<g id="group-40svg">
			<path id="path-1_33_" d="M398.333,288.922c-38.034,0-68.967-30.941-68.967-68.976s30.932-68.976,68.967-68.976
				c38.016,0,68.949,30.941,68.949,68.976S436.35,288.922,398.333,288.922z M398.333,177.916c-23.174,0-42.03,18.856-42.03,42.03
				s18.856,42.03,42.03,42.03c23.165,0,42.012-18.856,42.012-42.03S421.499,177.916,398.333,177.916z"/>
			<path id="path-2_33_" d="M188.489,288.922c-38.025,0-68.958-30.941-68.958-68.976s30.932-68.976,68.958-68.976
				s68.958,30.941,68.958,68.976S226.505,288.922,188.489,288.922z M188.489,177.916c-23.174,0-42.021,18.856-42.021,42.03
				s18.847,42.03,42.021,42.03s42.021-18.856,42.021-42.03S211.654,177.916,188.489,177.916z"/>
			<path id="path-3_33_" d="M222.501,452.112c-1.553,0-3.125-0.269-4.66-0.835c-6.977-2.568-10.559-10.317-7.982-17.302
				c14.734-40.01,38.591-66.982,70.906-80.181c56.387-23.031,117.174,5.199,119.733,6.411c6.716,3.188,9.58,11.215,6.402,17.94
				c-3.179,6.725-11.197,9.589-17.922,6.42c-0.862-0.395-53.047-24.297-98.184-5.773c-24.943,10.245-43.664,31.947-55.66,64.504
				C233.131,448.736,227.969,452.112,222.501,452.112z"/>
			<path id="path-4_33_" d="M423.061,216.606c0,15.506-12.57,28.086-28.077,28.086c-15.507,0-28.077-12.579-28.077-28.086
				c0-15.515,12.57-28.095,28.077-28.095S423.061,201.09,423.061,216.606z"/>
			<path id="path-5_24_" d="M213.216,216.606c0,15.506-12.57,28.086-28.077,28.086c-15.506,0-28.077-12.579-28.077-28.086
				c0-15.515,12.57-28.095,28.077-28.095S213.216,201.09,213.216,216.606z"/>
			<path id="path-6_16_" d="M283.7,567.41c-156.394,0-283.633-127.266-283.633-283.705S127.307,0,283.7,0
				c156.403,0,283.642,127.266,283.642,283.705S440.094,567.41,283.7,567.41z M283.7,26.937
				c-141.543,0-256.697,115.19-256.697,256.768S142.158,540.464,283.7,540.464c141.552,0,256.705-115.181,256.705-256.759
				S425.243,26.937,283.7,26.937z"/>
		</g>
	</g>
</g>
<g>
</g>
<g>
</g>
<g>
</g>
<g>
</g>
<g>
</g>
<g>
</g>
<g>
</g>
<g>
</g>
<g>
</g>
<g>
</g>
<g>
</g>
<g>
</g>
<g>
</g>
<g>
</g>
<g>
</g>
</svg>
