<?xml version="1.0" encoding="iso-8859-1"?>
<!-- Generator: Adobe Illustrator 19.1.0, SVG Export Plug-In . SVG Version: 6.00 Build 0)  -->
<svg version="1.1" id="Capa_1" xmlns="http://www.w3.org/2000/svg" xmlns:xlink="http://www.w3.org/1999/xlink" x="0px" y="0px"
	 viewBox="0 0 575.599 575.599" style="enable-background:new 0 0 575.599 575.599;" xml:space="preserve">
<g>
	<path d="M382.576,271.09c18.326,0,33.177-14.86,33.177-33.186s-14.851-33.186-33.177-33.186c-18.317,0-33.168,14.86-33.168,33.186
		C349.408,256.23,364.259,271.09,382.576,271.09z"/>
	<path d="M191.811,271.09c18.326,0,33.177-14.86,33.177-33.186s-14.851-33.186-33.177-33.186s-33.177,14.86-33.177,33.186
		C158.634,256.23,173.485,271.09,191.811,271.09z"/>
	<path d="M287.804,0c-41.876,0-82.178,8.8-119.881,26.121c-7.144-8.394-12.475-13.782-13.132-14.44
		c-2.559-2.577-6.052-3.798-9.679-3.96c-3.628,0.036-7.084,1.535-9.589,4.157c-1.529,1.594-30.58,32.245-45.302,66.998
		c-0.668,0.444-1.311,0.943-1.909,1.52C31.404,135.177,0.067,208.83,0.067,287.799c0,158.692,129.08,287.799,287.736,287.799
		s287.727-129.107,287.727-287.799S446.46,0,287.804,0z M145.534,41.348c14.815,17.06,36.014,45.631,38.573,67.458
		c1.634,13.854-0.296,23.956-5.719,30.052c-5.881,6.617-17.024,9.966-33.132,9.966c-15.444,0-25.994-3.116-31.336-9.266
		c-5.145-5.917-6.734-16.162-4.741-30.456C112.617,84.518,133.161,56.396,145.534,41.348z M287.804,548.662
		c-143.805,0-260.8-117.021-260.8-260.863c0-58.899,19.256-114.535,54.813-160.067c1.167,11.938,5.091,21.821,11.774,29.505
		c10.846,12.472,27.745,18.532,51.664,18.532c24.135,0,42.057-6.393,53.263-19.008c10.757-12.086,14.905-29.271,12.346-51.09
		c-2.282-19.449-13.871-40.431-25.932-57.634c32.488-13.993,67.039-21.101,102.872-21.101
		c143.796,0,260.791,117.021,260.791,260.863S431.6,548.662,287.804,548.662z"/>
	<path d="M428.835,348.601H150.239c-7.435,0-13.468,6.164-13.468,13.607c0,61.9,56.037,112.393,124.914,112.393h55.714
		c68.877,0,124.905-50.492,124.905-112.393C442.303,354.765,436.269,348.601,428.835,348.601z M317.398,447.601h-55.714
		c-48.764,0-89.322-31-96.756-72h249.217C406.711,416.601,366.153,447.601,317.398,447.601z"/>
</g>
<g>
</g>
<g>
</g>
<g>
</g>
<g>
</g>
<g>
</g>
<g>
</g>
<g>
</g>
<g>
</g>
<g>
</g>
<g>
</g>
<g>
</g>
<g>
</g>
<g>
</g>
<g>
</g>
<g>
</g>
</svg>
