<?xml version="1.0" encoding="iso-8859-1"?>
<!-- Generator: Adobe Illustrator 19.1.0, SVG Export Plug-In . SVG Version: 6.00 Build 0)  -->
<svg version="1.1" id="Capa_1" xmlns="http://www.w3.org/2000/svg" xmlns:xlink="http://www.w3.org/1999/xlink" x="0px" y="0px"
	 viewBox="0 0 586.912 586.912" style="enable-background:new 0 0 586.912 586.912;" xml:space="preserve">
<g>
	<path d="M375.797,298.838c15.884,0,28.768-12.885,28.768-28.777s-12.885-28.777-28.768-28.777
		c-15.893,0-28.768,12.885-28.768,28.777S359.904,298.838,375.797,298.838z"/>
	<path d="M210.361,298.838c15.893,0,28.777-12.885,28.777-28.777s-12.885-28.777-28.777-28.777
		c-15.884,0-28.768,12.885-28.768,28.777S194.478,298.838,210.361,298.838z"/>
	<path d="M395.379,375.966c-7.435,0-13.468,5.8-13.468,13.244c0,34.775-27.942,59.79-66.453,59.79h-39.965
		c-37.873,0-66.444-26.963-66.444-63.014c0-7.443-6.034-13.356-13.468-13.356c-7.435,0-13.468,5.884-13.468,13.327
		c0,50.569,41.015,90.042,93.38,90.042h39.965c53.236,0,93.389-37.191,93.389-86.763
		C408.848,381.794,402.814,375.966,395.379,375.966z"/>
	<path d="M445.263,135.387l12.106-21.424c1.14-2.02,1.751-4.5,1.751-6.826C459.12,39.177,409.306,0,322.453,0h-61.721
		c-86.844,0-136.658,39.177-136.658,107.137c0,2.263,0.575,4.589,1.661,6.573l13.034,23.835
		c-58.776,46.051-96.618,117.696-96.618,197.99c0,138.607,112.739,251.376,251.3,251.376c138.571,0,251.309-112.75,251.309-251.357
		C544.761,253.961,505.677,181.338,445.263,135.387z M151.065,103.807C153.058,40.577,211.537,27,260.732,27h61.721
		c49.168,0,107.621,13.569,109.677,76.717l-9.222,16.39c-37.834-22.838-82.136-35.952-129.456-35.952
		c-48.587,0-93.988,13.816-132.478,37.798L151.065,103.807z M293.451,559.988c-123.711,0-224.364-100.68-224.364-224.426
		s100.653-224.418,224.364-224.418c123.72,0,224.373,100.671,224.373,224.417S417.171,559.988,293.451,559.988z"/>
</g>
<g>
</g>
<g>
</g>
<g>
</g>
<g>
</g>
<g>
</g>
<g>
</g>
<g>
</g>
<g>
</g>
<g>
</g>
<g>
</g>
<g>
</g>
<g>
</g>
<g>
</g>
<g>
</g>
<g>
</g>
</svg>
