<?xml version="1.0" encoding="iso-8859-1"?>
<!-- Generator: Adobe Illustrator 19.1.0, SVG Export Plug-In . SVG Version: 6.00 Build 0)  -->
<svg version="1.1" id="Capa_1" xmlns="http://www.w3.org/2000/svg" xmlns:xlink="http://www.w3.org/1999/xlink" x="0px" y="0px"
	 viewBox="0 0 574.496 574.496" style="enable-background:new 0 0 574.496 574.496;" xml:space="preserve">
<g>
	<g>
		<g id="group-43svg">
			<path id="path-1_36_" d="M288.923,574.496c-146.741,0-266.124-119.41-266.124-266.187c0-51.584,14.492-100.868,42.093-143.707
				C23.14,140.054,19.692,36.564,19.44,13.614C19.386,8.37,22.376,3.566,27.117,1.313s10.344-1.571,14.384,1.787l100.5,83.306
				c43.646-29.011,94.215-44.293,146.921-44.293c50.892,0,99.98,14.312,142.647,41.491l97.106-80.504
				c4.04-3.358,9.652-4.04,14.393-1.787c4.723,2.254,7.722,7.048,7.668,12.301c-0.215,21.271-3.286,117.345-40.18,147.334
				c29.172,43.691,44.499,94.305,44.499,147.361C555.056,455.086,435.673,574.496,288.923,574.496z M87.168,142.721
				c4.813,0,9.302,2.577,11.717,6.824c2.649,4.669,2.272,10.478-0.97,14.77C66.4,206.066,49.735,255.863,49.735,308.309
				c0,131.917,107.297,239.242,239.188,239.242s239.197-107.324,239.197-239.242c0-52.508-16.71-102.359-48.315-144.165
				c-2.819-3.717-3.511-8.638-1.814-12.992c1.679-4.355,5.504-7.524,10.092-8.368c19.062-3.556,30.366-54.008,34.236-99.414
				l-81.277,67.359c-4.642,3.87-11.295,4.139-16.252,0.709c-40.064-27.727-87.05-42.38-135.868-42.38
				c-50.515,0-98.848,15.614-139.765,45.164c-4.974,3.583-11.762,3.367-16.476-0.557L47.867,43.369
				c4.274,49.581,17.114,101.811,37.837,99.432C86.198,142.747,86.692,142.721,87.168,142.721z"/>
			<path id="path-2_36_" d="M158.649,471.625c-7.434,0-13.468-6.034-13.468-13.477c0-68.141,54.861-125.704,119.787-125.704h53.164
				c64.917,0,119.778,56.226,119.778,122.759c0,7.443-6.034,13.477-13.468,13.477s-13.468-6.034-13.468-13.477
				c0-51.934-42.524-95.813-92.841-95.813h-53.164c-49.465,0-92.85,46.151-92.85,98.758
				C172.117,465.591,166.083,471.625,158.649,471.625z"/>
			<path id="path-3_36_" d="M222.183,226.592c-2.227,0-4.48-0.557-6.537-1.706l-22.923-12.759c-11.565-2.2-23.92,0.907-32.468,9.437
				c-5.262,5.262-13.783,5.262-19.044,0c-5.262-5.253-5.262-13.792,0-19.053c4.391-4.391,9.347-8.036,14.716-10.864l-11.744-6.546
				c-6.501-3.618-8.844-11.825-5.217-18.326c3.61-6.501,11.798-8.844,18.317-5.217l45.2,25.168
				c10.999,2.927,21.064,8.692,29.235,16.871c4.75,4.75,5.28,12.274,1.23,17.634C230.327,224.715,226.286,226.592,222.183,226.592z"
				/>
			<path id="path-4_36_" d="M351.676,226.592c-4.103,0-8.135-1.877-10.757-5.36c-4.049-5.36-3.529-12.885,1.23-17.634
				c8.171-8.18,18.236-13.944,29.235-16.871l45.2-25.168c6.465-3.61,14.68-1.284,18.317,5.217
				c3.618,6.501,1.275,14.707-5.217,18.326l-11.753,6.546c5.378,2.828,10.335,6.474,14.725,10.864
				c5.262,5.262,5.262,13.801,0,19.053c-5.262,5.262-13.783,5.262-19.044,0c-8.539-8.539-20.894-11.655-32.477-9.437l-22.914,12.759
				C356.156,226.035,353.903,226.592,351.676,226.592z"/>
		</g>
	</g>
</g>
<g>
</g>
<g>
</g>
<g>
</g>
<g>
</g>
<g>
</g>
<g>
</g>
<g>
</g>
<g>
</g>
<g>
</g>
<g>
</g>
<g>
</g>
<g>
</g>
<g>
</g>
<g>
</g>
<g>
</g>
</svg>
