<?xml version="1.0" encoding="iso-8859-1"?>
<!-- Generator: Adobe Illustrator 19.1.0, SVG Export Plug-In . SVG Version: 6.00 Build 0)  -->
<svg version="1.1" id="Capa_1" xmlns="http://www.w3.org/2000/svg" xmlns:xlink="http://www.w3.org/1999/xlink" x="0px" y="0px"
	 viewBox="0 0 559.464 559.464" style="enable-background:new 0 0 559.464 559.464;" xml:space="preserve">
<g>
	<g>
		<g id="group-44svg">
			<path id="path-1_37_" d="M218.613,222.792c-3.448,0-6.896-1.32-9.527-3.951c-15.363-15.363-40.782-15.866-55.516-1.122
				c-5.262,5.262-13.783,5.262-19.044,0s-5.262-13.792,0-19.044c25.06-25.069,67.943-24.566,93.605,1.122
				c5.262,5.253,5.262,13.792,0,19.044C225.508,221.472,222.052,222.792,218.613,222.792z"/>
			<path id="path-2_37_" d="M428.242,222.792c-3.448,0-6.887-1.32-9.518-3.951c-15.363-15.354-40.773-15.866-55.507-1.122
				c-5.262,5.262-13.783,5.262-19.044,0s-5.262-13.792,0-19.044c25.069-25.078,67.934-24.548,93.596,1.122
				c5.262,5.253,5.262,13.792,0,19.044C435.129,221.472,431.681,222.792,428.242,222.792z"/>
			<path id="path-3_37_" d="M322.184,459.197c-6.33,0-11.969-4.48-13.208-10.927c-1.401-7.309,3.376-14.375,10.676-15.776
				c7.776-1.491,12.804-4.067,13.809-7.066c2.326-6.923-6.941-22.483-14.24-30.6c-2.595-2.873-3.816-6.725-3.367-10.559
				c0.44-3.843,2.523-7.309,5.693-9.518c16.063-11.161,19.547-18.802,19.071-21.558c-0.907-5.306-13.621-12.005-21.971-14.294
				c-7.174-1.957-11.394-9.374-9.446-16.548c1.966-7.174,9.401-11.403,16.548-9.437c3.789,1.033,37.155,10.846,41.419,35.718
				c2.272,13.217-4.148,26.506-19.098,39.597c7.74,11.511,16.449,29.343,10.927,45.783c-3.008,8.952-11.385,20.544-34.254,24.943
				C323.881,459.116,323.019,459.197,322.184,459.197z"/>
			<path id="path-4_37_" d="M279.732,559.464c-154.212,0-279.664-125.488-279.664-279.736C0.067,125.488,125.52,0,279.732,0
				c154.203,0,279.664,125.488,279.664,279.727C559.396,433.975,433.935,559.464,279.732,559.464z M279.732,26.937
				c-139.343,0-252.728,113.403-252.728,252.791S140.38,532.518,279.732,532.518c139.361,0,252.728-113.403,252.728-252.791
				S419.093,26.937,279.732,26.937z"/>
		</g>
	</g>
</g>
<g>
</g>
<g>
</g>
<g>
</g>
<g>
</g>
<g>
</g>
<g>
</g>
<g>
</g>
<g>
</g>
<g>
</g>
<g>
</g>
<g>
</g>
<g>
</g>
<g>
</g>
<g>
</g>
<g>
</g>
</svg>
