<?xml version="1.0" encoding="iso-8859-1"?>
<!-- Generator: Adobe Illustrator 19.1.0, SVG Export Plug-In . SVG Version: 6.00 Build 0)  -->
<svg version="1.1" id="Capa_1" xmlns="http://www.w3.org/2000/svg" xmlns:xlink="http://www.w3.org/1999/xlink" x="0px" y="0px"
	 viewBox="0 0 592.191 592.191" style="enable-background:new 0 0 592.191 592.191;" xml:space="preserve">
<g>
	<g>
		<g id="group-45svg">
			<path id="path-1_38_" d="M215.079,202.204c-3.439,0-6.887-1.311-9.518-3.942c-15.515-15.506-41.186-16.018-56.064-1.131
				c-5.262,5.253-13.783,5.262-19.044,0c-5.262-5.271-5.262-13.792,0-19.062c25.231-25.222,68.338-24.683,94.152,1.14
				c5.262,5.262,5.262,13.792,0,19.053C221.975,200.893,218.527,202.204,215.079,202.204z"/>
			<path id="path-2_38_" d="M426.28,202.204c-3.448,0-6.896-1.311-9.527-3.942c-15.498-15.497-41.177-16.027-56.064-1.131
				c-5.262,5.262-13.783,5.262-19.044,0s-5.262-13.792,0-19.053c25.213-25.222,68.32-24.701,94.152,1.131
				c5.262,5.262,5.262,13.783,0,19.053C433.167,200.893,429.728,202.204,426.28,202.204z"/>
			<path id="path-3_38_" d="M319.423,440.377c-6.33,0-11.969-4.489-13.199-10.936c-1.401-7.3,3.376-14.366,10.676-15.767
				c7.856-1.508,12.965-4.13,13.989-7.174c2.343-6.941-7.012-22.708-14.393-30.968c-2.568-2.873-3.789-6.725-3.331-10.559
				c0.449-3.834,2.514-7.3,5.684-9.491c16.216-11.268,19.736-19.008,19.269-21.81c-0.916-5.378-13.576-12.077-22.259-14.501
				c-7.156-2.002-11.358-9.41-9.374-16.566c1.975-7.165,9.365-11.376,16.512-9.41c3.816,1.042,37.37,10.909,41.662,35.906
				c2.281,13.298-4.193,26.667-19.278,39.848c7.794,11.583,16.611,29.558,11.053,46.115c-3.026,8.997-11.457,20.642-34.443,25.069
				C321.129,440.296,320.267,440.377,319.423,440.377z"/>
			<path id="path-4_38_" d="M424.592,461.693c-0.305,0.009-0.476,0-0.718-0.018c-0.215,0.018-0.431,0.018-0.638,0.018
				c-17.365,0-57.052-52.67-57.052-70.744c0-22.716,18.469-41.195,41.177-41.195c6.752,0,12.229,3.188,16.512,6.617
				c4.283-3.43,9.751-6.617,16.512-6.617c22.708,0,41.186,18.478,41.186,41.195c0,9.967-7.479,24.306-22.223,42.623
				C436.857,461.513,428.579,461.693,424.592,461.693z M406.194,376.744c-7.318,0.593-13.082,6.743-13.082,14.205
				c1.068,7.417,20.346,32.396,30.762,41.797c10.415-9.41,29.702-34.434,30.78-42.156c-0.018-7.12-5.782-13.253-13.1-13.845
				c-1.176,0.817-3.053,2.595-4.256,3.726c-1.886,1.778-3.699,3.439-5.378,4.696c-4.768,3.547-11.304,3.547-16.072,0.009
				c-1.688-1.257-3.511-2.927-5.405-4.714C409.238,379.339,407.362,377.561,406.194,376.744z"/>
			<path id="path-5_27_" d="M535.239,583.338c-0.233,0-0.494-0.009-0.736-0.018c-0.224,0.009-0.431,0.018-0.646,0.018
				c-3.951,0-12.175,0-34.838-28.131c-14.734-18.308-22.214-32.647-22.214-42.623c0-22.708,18.469-41.195,41.186-41.195
				c6.761,0,12.229,3.188,16.512,6.626c4.283-3.439,9.76-6.626,16.503-6.626c22.716,0,41.186,18.487,41.186,41.195
				c0,9.976-7.479,24.315-22.214,42.632C547.522,583.096,539.234,583.338,535.239,583.338z M516.823,498.389
				c-7.318,0.593-13.082,6.734-13.082,14.196c1.06,7.417,20.337,32.387,30.762,41.806c10.415-9.419,29.693-34.434,30.771-42.156
				c-0.018-7.129-5.782-13.253-13.091-13.845c-1.176,0.817-3.062,2.586-4.247,3.717c-1.895,1.787-3.708,3.448-5.396,4.705
				c-4.786,3.556-11.34,3.538-16.09-0.009c-1.67-1.248-3.484-2.909-5.36-4.687C519.885,500.984,517.999,499.197,516.823,498.389z"/>
			<path id="path-6_17_" d="M278.156,565.291C124.779,565.291,0,440.485,0,287.072S124.779,8.853,278.156,8.853
				s278.147,124.806,278.147,278.219S431.533,565.291,278.156,565.291z M278.156,35.79c-138.526,0-251.219,112.73-251.219,251.282
				S139.63,538.345,278.156,538.345s251.21-112.721,251.21-251.273S416.682,35.79,278.156,35.79z"/>
		</g>
	</g>
</g>
<g>
</g>
<g>
</g>
<g>
</g>
<g>
</g>
<g>
</g>
<g>
</g>
<g>
</g>
<g>
</g>
<g>
</g>
<g>
</g>
<g>
</g>
<g>
</g>
<g>
</g>
<g>
</g>
<g>
</g>
</svg>
