<?xml version="1.0" encoding="iso-8859-1"?>
<!-- Generator: Adobe Illustrator 19.1.0, SVG Export Plug-In . SVG Version: 6.00 Build 0)  -->
<svg version="1.1" id="Capa_1" xmlns="http://www.w3.org/2000/svg" xmlns:xlink="http://www.w3.org/1999/xlink" x="0px" y="0px"
	 viewBox="0 0 567.41 567.41" style="enable-background:new 0 0 567.41 567.41;" xml:space="preserve">
<g>
	<path d="M384.039,180.96c-16.835,0-30.492,13.648-30.492,30.483c0,16.844,13.657,30.501,30.492,30.501
		c16.835,0,30.483-13.657,30.483-30.501C414.522,194.608,400.874,180.96,384.039,180.96z"/>
	<path d="M387.667,141.345c-40.647,0-73.707,33.078-73.707,73.734s33.06,73.734,73.707,73.734s73.716-33.078,73.716-73.734
		S428.314,141.345,387.667,141.345z M387.667,261.868c-25.787,0-46.771-20.993-46.771-46.789s20.984-46.789,46.771-46.789
		c25.796,0,46.78,20.993,46.78,46.789S413.463,261.868,387.667,261.868z"/>
	<path d="M261.047,215.079c0-40.656-33.06-73.734-73.716-73.734c-40.647,0-73.716,33.078-73.716,73.734s33.069,73.734,73.716,73.734
		C227.987,288.814,261.047,255.736,261.047,215.079z M187.33,261.868c-25.796,0-46.78-20.993-46.78-46.789
		s20.984-46.789,46.78-46.789c25.796,0,46.78,20.993,46.78,46.789S213.127,261.868,187.33,261.868z"/>
	<path d="M183.703,180.96c-16.835,0-30.483,13.648-30.483,30.483c0,16.844,13.648,30.501,30.483,30.501
		c16.835,0,30.483-13.657,30.483-30.501C214.186,194.608,200.538,180.96,183.703,180.96z"/>
	<path d="M387.065,322.251c-5.764-4.705-14.24-3.834-18.945,1.939c-6.947,8.532-14.716,22.209-18.413,38.157
		c-44.361-28.812-89.26-18.283-117.337-2.693c-3.908-14.795-11.196-27.424-17.753-35.473c-4.678-5.746-13.127-6.591-18.892-1.939
		c-5.773,4.66-6.662,13.136-2.02,18.918c1.302,1.625,31.489,40.1,0.736,72.244c-5.136,5.378-4.956,13.908,0.422,19.053
		c2.613,2.496,5.962,3.735,9.311,3.735c3.547,0,7.084-1.401,9.733-4.157c12.794-13.377,18.874-27.751,20.696-41.693
		c10.942-8.305,59.432-40.223,110.369,1.917c1.18,0.974,2.478,1.705,3.833,2.216c2.42,12.629,8.494,25.495,20.024,37.551
		c2.649,2.766,6.195,4.166,9.733,4.166c3.349,0,6.698-1.239,9.311-3.735c5.378-5.145,5.558-13.675,0.422-19.044
		c-30.708-32.117-0.638-70.52,0.736-72.244C393.7,335.405,392.829,326.938,387.065,322.251z"/>
	<path d="M283.7,0C127.307,0,0.067,127.266,0.067,283.705c0,156.43,127.239,283.705,283.633,283.705
		c156.403,0,283.642-127.275,283.642-283.705C567.342,127.266,440.103,0,283.7,0z M283.7,540.464
		c-141.543,0-256.696-115.181-256.696-256.759S142.158,26.937,283.7,26.937s256.706,115.19,256.706,256.768
		S425.243,540.464,283.7,540.464z"/>
</g>
<g>
</g>
<g>
</g>
<g>
</g>
<g>
</g>
<g>
</g>
<g>
</g>
<g>
</g>
<g>
</g>
<g>
</g>
<g>
</g>
<g>
</g>
<g>
</g>
<g>
</g>
<g>
</g>
<g>
</g>
</svg>
