<?xml version="1.0" encoding="iso-8859-1"?>
<!-- Generator: Adobe Illustrator 19.1.0, SVG Export Plug-In . SVG Version: 6.00 Build 0)  -->
<svg version="1.1" id="Capa_1" xmlns="http://www.w3.org/2000/svg" xmlns:xlink="http://www.w3.org/1999/xlink" x="0px" y="0px"
	 viewBox="0 0 567.419 567.419" style="enable-background:new 0 0 567.419 567.419;" xml:space="preserve">
<g>
	<g>
		<g id="group-47svg">
			<path id="path-1_40_" d="M387.685,289.46c-40.656,0-73.716-33.078-73.716-73.734s33.06-73.725,73.716-73.725
				c40.647,0,73.716,33.069,73.716,73.725S428.332,289.46,387.685,289.46z M387.685,168.937c-25.796,0-46.78,20.993-46.78,46.789
				s20.984,46.789,46.78,46.789c25.796,0,46.78-20.993,46.78-46.789S413.472,168.937,387.685,168.937z"/>
			<path id="path-2_40_" d="M187.348,289.46c-40.647,0-73.716-33.078-73.716-73.734s33.069-73.725,73.716-73.725
				s73.707,33.069,73.707,73.725S227.987,289.46,187.348,289.46z M187.348,168.937c-25.796,0-46.78,20.993-46.78,46.789
				s20.984,46.789,46.78,46.789c25.787,0,46.771-20.993,46.771-46.789S213.127,168.937,187.348,168.937z"/>
			<path id="path-3_40_" d="M414.531,212.099c0,16.844-13.648,30.492-30.483,30.492s-30.492-13.648-30.492-30.492
				s13.657-30.492,30.492-30.492S414.531,195.254,414.531,212.099z"/>
			<path id="path-4_40_" d="M214.195,212.099c0,16.844-13.648,30.492-30.483,30.492c-16.844,0-30.492-13.648-30.492-30.492
				s13.648-30.492,30.492-30.492C200.547,181.606,214.195,195.254,214.195,212.099z"/>
			<path id="path-5_29_" d="M229.684,444.759c-22.303,0-44.894-14.878-65.321-43.027c-3.367-4.642-3.43-10.909-0.153-15.614
				c3.152-4.516,8.709-6.635,14.025-5.432c1.23-0.467,6.761-3.214,16.638-17.859c20.059-29.684,42.129-35.915,57.106-35.915
				c12.84,0,23.471,4.382,30.438,8.332c6.968-3.951,17.554-8.332,30.366-8.332c14.95,0,36.975,6.231,57.034,35.915
				c11.268,16.701,16.871,17.922,16.916,17.94c5.522-1.616,10.99,0.503,14.312,5.217c3.313,4.714,2.801,11.053-0.575,15.713
				c-20.418,28.176-42.991,43.063-65.303,43.063c-19.089,0-36.777-10.505-52.733-31.255
				C266.47,434.253,248.773,444.759,229.684,444.759z M197.88,400.035c8.88,9.239,20.22,17.778,31.803,17.778
				c16.943,0,31.704-19.224,41.114-35.359c2.424-4.139,6.851-6.68,11.637-6.68l0,0c4.786,0,9.221,2.541,11.637,6.68
				c9.401,16.135,24.162,35.359,41.096,35.359c11.538,0,22.842-8.503,31.704-17.724c-6.285-4.911-12.678-12.247-19.385-22.178
				c-10.784-15.964-22.456-24.054-34.703-24.054c-12.032,0-21.406,7.713-21.486,7.785c-5.064,4.427-12.615,4.427-17.688,0.018
				c-0.009,0-9.464-7.803-21.63-7.803c-12.301,0-23.991,8.09-34.775,24.054C210.505,387.806,204.13,395.124,197.88,400.035z"/>
			<path id="path-6_19_" d="M283.709,567.419c-156.403,0-283.642-127.275-283.642-283.714C0.067,127.275,127.316,0,283.709,0
				s283.642,127.275,283.642,283.705C567.36,440.143,440.121,567.419,283.709,567.419z M283.709,26.946
				c-141.552,0-256.705,115.181-256.705,256.759c0,141.588,115.154,256.768,256.705,256.768
				c141.543,0,256.705-115.181,256.705-256.768C540.424,142.126,425.252,26.946,283.709,26.946z"/>
		</g>
	</g>
</g>
<g>
</g>
<g>
</g>
<g>
</g>
<g>
</g>
<g>
</g>
<g>
</g>
<g>
</g>
<g>
</g>
<g>
</g>
<g>
</g>
<g>
</g>
<g>
</g>
<g>
</g>
<g>
</g>
<g>
</g>
</svg>
