<?xml version="1.0" encoding="iso-8859-1"?>
<!-- Generator: Adobe Illustrator 19.1.0, SVG Export Plug-In . SVG Version: 6.00 Build 0)  -->
<svg version="1.1" id="Capa_1" xmlns="http://www.w3.org/2000/svg" xmlns:xlink="http://www.w3.org/1999/xlink" x="0px" y="0px"
	 viewBox="0 0 559.463 559.463" style="enable-background:new 0 0 559.463 559.463;" xml:space="preserve">
<g>
	<path d="M378.589,202.635c-16.593,0-30.034,13.45-30.034,30.043c0,16.593,13.441,30.052,30.034,30.052
		c16.593,0,30.043-13.459,30.043-30.052C408.632,216.085,395.182,202.635,378.589,202.635z"/>
	<path d="M382.163,163.406c-40.153,0-72.828,32.683-72.828,72.854c0,40.162,32.674,72.845,72.828,72.845
		c40.162,0,72.836-32.683,72.836-72.845C454.999,196.089,422.325,163.406,382.163,163.406z M382.163,282.161
		c-25.302,0-45.891-20.589-45.891-45.9c0-25.311,20.589-45.909,45.891-45.909c25.32,0,45.9,20.597,45.9,45.909
		C428.062,261.572,407.474,282.161,382.163,282.161z"/>
	<path d="M257.617,236.261c0-40.171-32.665-72.854-72.828-72.854s-72.828,32.683-72.828,72.854
		c0,40.162,32.665,72.845,72.828,72.845C224.943,309.106,257.617,276.423,257.617,236.261z M184.789,282.161
		c-25.302,0-45.891-20.589-45.891-45.9c0-25.311,20.589-45.909,45.891-45.909c25.293,0,45.891,20.597,45.891,45.909
		C230.68,261.572,210.092,282.161,184.789,282.161z"/>
	<path d="M181.207,202.635c-16.584,0-30.034,13.45-30.034,30.043c0,16.593,13.45,30.052,30.034,30.052
		c16.593,0,30.043-13.459,30.043-30.052C211.25,216.085,197.791,202.635,181.207,202.635z"/>
	<path d="M343.975,419.69l-32.98-22.437l32.971-22.431c6.151-4.184,7.749-12.57,3.565-18.721
		c-4.184-6.151-12.552-7.731-18.712-3.556l-41.77,28.416l-41.77-28.416c-6.151-4.184-14.528-2.604-18.712,3.556
		c-4.184,6.15-2.586,14.537,3.565,18.721l32.971,22.431l-32.98,22.437c-6.151,4.184-7.749,12.57-3.565,18.721
		c2.604,3.834,6.842,5.89,11.143,5.89c2.613,0,5.244-0.754,7.569-2.334l41.779-28.423l41.779,28.423
		c2.326,1.58,4.956,2.334,7.569,2.334c4.301,0,8.539-2.056,11.143-5.89C351.724,432.26,350.126,423.874,343.975,419.69z"/>
	<path d="M279.732,0C125.529,0,0.076,125.488,0.067,279.727c0,154.248,125.453,279.736,279.664,279.736
		c154.203,0,279.664-125.488,279.664-279.736C559.396,125.488,433.935,0,279.732,0z M279.741,532.518
		c-139.352,0-252.728-113.403-252.728-252.791S140.389,26.937,279.732,26.937c139.361,0,252.737,113.403,252.737,252.791
		S419.102,532.518,279.741,532.518z"/>
</g>
<g>
</g>
<g>
</g>
<g>
</g>
<g>
</g>
<g>
</g>
<g>
</g>
<g>
</g>
<g>
</g>
<g>
</g>
<g>
</g>
<g>
</g>
<g>
</g>
<g>
</g>
<g>
</g>
<g>
</g>
</svg>
