<?xml version="1.0" encoding="iso-8859-1"?>
<!-- Generator: Adobe Illustrator 19.1.0, SVG Export Plug-In . SVG Version: 6.00 Build 0)  -->
<svg version="1.1" id="Capa_1" xmlns="http://www.w3.org/2000/svg" xmlns:xlink="http://www.w3.org/1999/xlink" x="0px" y="0px"
	 viewBox="0 0 559.464 559.464" style="enable-background:new 0 0 559.464 559.464;" xml:space="preserve">
<g>
	<g>
		<g id="group-49svg">
			<path id="path-1_42_" d="M286.551,475.403c-42.371,0-76.85-34.488-76.85-76.877s34.479-76.868,76.85-76.868
				s76.85,34.479,76.85,76.868S328.922,475.403,286.551,475.403z M286.551,348.604c-27.52,0-49.913,22.393-49.913,49.922
				c0,27.529,22.393,49.931,49.913,49.931c27.529,0,49.913-22.402,49.913-49.931C336.465,370.997,314.08,348.604,286.551,348.604z"
				/>
			<path id="path-2_42_" d="M394.127,274.448c-17.751,0-34.757-6.168-48.504-17.715c-12.93-10.855-20.858-26.102-22.33-42.919
				c-1.464-16.826,3.708-33.204,14.564-46.142c18.883-22.501,52.535-25.428,75.027-6.546c19.134,16.063,21.63,44.697,5.567,63.831
				c-6.68,7.964-16.072,12.849-26.425,13.756c-10.353,0.88-20.463-2.281-28.418-8.97c-6.923-5.809-11.17-13.971-11.951-22.977
				c-0.386-4.427,0.081-8.799,1.356-12.921c-6.24,14.348-2.649,31.695,9.931,42.254c9.958,8.359,22.564,12.382,35.538,11.215
				c12.965-1.131,24.701-7.237,33.069-17.203c4.768-5.693,13.271-6.438,18.972-1.661c5.693,4.786,6.438,13.289,1.652,18.981
				c-12.992,15.48-31.219,24.97-51.35,26.73C398.571,274.358,396.345,274.448,394.127,274.448z M369.758,177.548
				c3.053,0,6.133,0.889,8.647,2.999c5.702,4.786,6.447,13.208,1.67,18.909c-1.194,1.41-1.76,3.161-1.598,5.001
				c0.153,1.841,1.024,3.475,2.433,4.669c2.451,2.065,5.504,3.017,8.763,2.748c3.187-0.269,6.088-1.778,8.135-4.238
				c6.519-7.758,5.495-19.224-2.254-25.724c-7.497-6.294-17.509-4.364-26.084-4.364C369.57,177.548,369.668,177.548,369.758,177.548
				z"/>
			<path id="path-3_42_" d="M173.489,274.448c-2.218,0-4.454-0.09-6.698-0.287c-20.14-1.76-38.367-11.251-51.35-26.73
				c-4.786-5.693-4.04-14.196,1.643-18.981c5.702-4.786,14.205-4.04,18.981,1.661c8.359,9.967,20.104,16.072,33.06,17.203
				c13.001,1.167,25.59-2.855,35.538-11.215c12.588-10.559,16.18-27.915,9.94-42.263c1.266,4.13,1.742,8.503,1.356,12.93
				c-0.79,9.006-5.028,17.168-11.96,22.977c-16.431,13.792-41.033,11.655-54.834-4.786c-7.785-9.275-11.493-21.02-10.433-33.069
				c1.051-12.059,6.734-22.986,16.009-30.762c10.873-9.14,24.647-13.558,38.861-12.265c14.169,1.23,27.017,7.919,36.158,18.811
				c10.846,12.939,16.018,29.316,14.555,46.142c-1.473,16.817-9.392,32.063-22.321,42.919
				C208.247,268.279,191.223,274.448,173.489,274.448z M188.924,175.59c-6.168,0-12.086,2.155-16.862,6.168
				c-3.762,3.152-6.07,7.578-6.501,12.472c-0.422,4.885,1.077,9.643,4.229,13.405c4.265,5.064,11.852,5.711,16.889,1.473
				c1.428-1.194,2.29-2.855,2.451-4.687c0.153-1.841-0.404-3.627-1.598-5.046c-4.777-5.702-4.031-14.196,1.67-18.972
				c2.604-2.2,5.935-3.277,8.988-3.152c-2.2-0.817-4.525-1.347-6.932-1.553C190.477,175.626,189.696,175.59,188.924,175.59z"/>
			<path id="path-4_42_" d="M279.727,559.464c-154.203,0-279.664-125.488-279.664-279.727C0.063,125.488,125.533,0,279.727,0
				c154.221,0,279.673,125.488,279.673,279.736C559.401,433.975,433.948,559.464,279.727,559.464z M279.727,26.946
				c-139.361,0-252.728,113.403-252.728,252.791s113.367,252.791,252.728,252.791c139.352,0,252.728-113.403,252.728-252.791
				S419.079,26.946,279.727,26.946z"/>
		</g>
	</g>
</g>
<g>
</g>
<g>
</g>
<g>
</g>
<g>
</g>
<g>
</g>
<g>
</g>
<g>
</g>
<g>
</g>
<g>
</g>
<g>
</g>
<g>
</g>
<g>
</g>
<g>
</g>
<g>
</g>
<g>
</g>
</svg>
