<?xml version="1.0" encoding="iso-8859-1"?>
<!-- Generator: Adobe Illustrator 19.1.0, SVG Export Plug-In . SVG Version: 6.00 Build 0)  -->
<svg version="1.1" id="Capa_1" xmlns="http://www.w3.org/2000/svg" xmlns:xlink="http://www.w3.org/1999/xlink" x="0px" y="0px"
	 viewBox="0 0 559.463 559.463" style="enable-background:new 0 0 559.463 559.463;" xml:space="preserve">
<g>
	<path d="M278.403,234.213c-60.275,0-109.318,49.051-109.318,109.344c0,59.488,47.743,108.038,106.912,109.323
		c1.913,0.114,3.803,0.183,5.674,0.183c49.779,0,79.939-38.474,81.187-40.109c0.066-0.086,0.121-0.177,0.185-0.265
		c15.421-18.854,24.686-42.931,24.686-69.133C387.729,283.265,338.687,234.213,278.403,234.213z M196.022,343.558
		c0-45.433,36.957-82.399,82.381-82.399c45.433,0,82.39,36.966,82.39,82.399c0,15.122-4.111,29.293-11.246,41.488
		c-13.197-9.58-36.139-22.345-64.733-22.345c-25.461,0-49.898,10.002-72.694,29.726C202.012,378.744,196.022,361.84,196.022,343.558
		z M235.762,407.909c15.911-12.13,32.378-18.263,49.052-18.263c20.286,0,37.277,9.083,47.455,16.19
		c-14.455,12.525-33.283,20.13-53.866,20.13c-0.674,0-1.339-0.035-2.01-0.051C253.069,424.165,241.297,414.725,235.762,407.909z"/>
	<path d="M191.11,190.926l20.858,11.601c2.056,1.149,4.31,1.706,6.537,1.706c4.103,0,8.135-1.877,10.757-5.351
		c4.049-5.369,3.529-12.894-1.221-17.643c-7.605-7.605-16.943-12.965-27.161-15.713l-41.285-22.986
		c-6.474-3.627-14.698-1.284-18.317,5.217s-1.275,14.707,5.217,18.326l8.988,5.001c-4.328,2.487-8.35,5.558-11.96,9.167
		c-5.253,5.262-5.253,13.792,0,19.053c5.262,5.262,13.792,5.262,19.053,0C170.073,191.788,180.946,189.059,191.11,190.926z"/>
	<path d="M414.37,147.756c-3.618-6.501-11.807-8.844-18.317-5.217l-41.276,22.986c-10.227,2.748-19.565,8.108-27.17,15.713
		c-4.75,4.75-5.271,12.274-1.221,17.643c2.622,3.475,6.653,5.351,10.757,5.351c2.227,0,4.48-0.557,6.537-1.706l20.858-11.601
		c10.263-1.912,21.046,0.871,28.544,8.377c5.262,5.262,13.792,5.262,19.053,0c5.253-5.262,5.253-13.792,0-19.053
		c-3.609-3.609-7.632-6.68-11.969-9.167l8.988-5.001C415.654,162.463,417.997,154.257,414.37,147.756z"/>
	<path d="M279.732,0C125.529,0,0.067,125.488,0.067,279.727c0,154.248,125.462,279.736,279.664,279.736
		s279.664-125.488,279.664-279.736C559.396,125.488,433.935,0,279.732,0z M279.732,532.518
		c-139.352,0-252.728-113.403-252.728-252.791S140.38,26.937,279.732,26.937c139.361,0,252.728,113.403,252.728,252.791
		S419.093,532.518,279.732,532.518z"/>
</g>
<g>
</g>
<g>
</g>
<g>
</g>
<g>
</g>
<g>
</g>
<g>
</g>
<g>
</g>
<g>
</g>
<g>
</g>
<g>
</g>
<g>
</g>
<g>
</g>
<g>
</g>
<g>
</g>
<g>
</g>
</svg>
