<?xml version="1.0" encoding="iso-8859-1"?>
<!-- Generator: Adobe Illustrator 19.1.0, SVG Export Plug-In . SVG Version: 6.00 Build 0)  -->
<svg version="1.1" id="Capa_1" xmlns="http://www.w3.org/2000/svg" xmlns:xlink="http://www.w3.org/1999/xlink" x="0px" y="0px"
	 viewBox="0 0 567.41 567.41" style="enable-background:new 0 0 567.41 567.41;" xml:space="preserve">
<g>
	<g>
		<g id="group-51svg">
			<path id="path-1_45_" d="M433.643,395.312H146.319c-7.434,0-13.468-6.034-13.468-13.468c0-7.443,6.034-13.477,13.468-13.477
				h287.323c7.435,0,13.468,6.034,13.468,13.477C447.111,389.278,441.077,395.312,433.643,395.312z"/>
			<path id="path-2_45_" d="M433.643,224.669h-80.81c-7.434,0-13.468-6.025-13.468-13.468c0-7.443,6.034-13.468,13.468-13.468h80.81
				c7.435,0,13.468,6.025,13.468,13.468C447.111,218.644,441.077,224.669,433.643,224.669z"/>
			<path id="path-3_45_" d="M236.108,224.669h-89.789c-7.434,0-13.468-6.025-13.468-13.468c0-7.443,6.034-13.468,13.468-13.468
				h89.789c7.434,0,13.468,6.025,13.468,13.468C249.576,218.644,243.542,224.669,236.108,224.669z"/>
			<path id="path-4_45_" d="M283.705,567.41c-156.403,0-283.642-127.275-283.642-283.705C0.063,127.266,127.302,0,283.705,0
				s283.642,127.266,283.642,283.705C567.347,440.135,440.108,567.41,283.705,567.41z M283.705,26.937
				c-141.552,0-256.705,115.19-256.705,256.768s115.154,256.759,256.705,256.759c141.543,0,256.705-115.181,256.705-256.759
				S425.248,26.937,283.705,26.937z"/>
		</g>
	</g>
</g>
<g>
</g>
<g>
</g>
<g>
</g>
<g>
</g>
<g>
</g>
<g>
</g>
<g>
</g>
<g>
</g>
<g>
</g>
<g>
</g>
<g>
</g>
<g>
</g>
<g>
</g>
<g>
</g>
<g>
</g>
</svg>
