<?xml version="1.0" encoding="iso-8859-1"?>
<!-- Generator: Adobe Illustrator 19.1.0, SVG Export Plug-In . SVG Version: 6.00 Build 0)  -->
<svg version="1.1" id="Capa_1" xmlns="http://www.w3.org/2000/svg" xmlns:xlink="http://www.w3.org/1999/xlink" x="0px" y="0px"
	 viewBox="0 0 559.463 559.463" style="enable-background:new 0 0 559.463 559.463;" xml:space="preserve">
<g>
	<path d="M416.623,339.622H146.207c-7.434,0-13.468,5.82-13.468,13.263c0,15.811,3.567,30.762,9.986,44.421
		c-0.004,0.128-0.019,0.201-0.019,0.329c0,4.916,2.641,9.015,6.57,11.366c21.112,33.35,60.315,55.621,105.1,55.621h54.089
		c67.063,0,121.637-49.997,121.628-111.897C430.092,345.282,424.058,339.622,416.623,339.622z M395.8,385.614
		c-1.851-0.958-3.948-1.991-6.176-1.991h-50.396v-17h62.76C400.787,372.622,398.674,379.452,395.8,385.614z M250.228,383.622v-17h62
		v17H250.228z M223.228,366.622v17H166.35c-2.523-5-4.386-11-5.49-17H223.228z M254.384,437.622c-27.172,0-51.692-10-68.979-27
		h192.037c-17.287,17-41.807,27-68.979,27H254.384z"/>
	<path d="M371.9,238.631c17.787,0,32.198-14.42,32.198-32.216c0-17.787-14.411-32.207-32.198-32.207
		c-17.778,0-32.198,14.42-32.198,32.207C339.702,224.211,354.122,238.631,371.9,238.631z"/>
	<path d="M186.738,238.631c17.787,0,32.207-14.42,32.207-32.216c0-17.787-14.42-32.207-32.207-32.207
		c-17.778,0-32.198,14.42-32.198,32.207C154.54,224.211,168.96,238.631,186.738,238.631z"/>
	<path d="M279.723,0C125.538,0,0.076,125.488,0.067,279.736c0,154.239,125.462,279.727,279.655,279.727
		c154.212,0,279.673-125.488,279.673-279.727C559.396,125.488,433.935,0,279.723,0z M279.723,532.527
		c-139.352,0-252.719-113.403-252.719-252.791S140.371,26.945,279.723,26.945c139.361,0,252.737,113.403,252.737,252.791
		S419.084,532.527,279.723,532.527z"/>
</g>
<g>
</g>
<g>
</g>
<g>
</g>
<g>
</g>
<g>
</g>
<g>
</g>
<g>
</g>
<g>
</g>
<g>
</g>
<g>
</g>
<g>
</g>
<g>
</g>
<g>
</g>
<g>
</g>
<g>
</g>
</svg>
