<?xml version="1.0" encoding="iso-8859-1"?>
<!-- Generator: Adobe Illustrator 19.1.0, SVG Export Plug-In . SVG Version: 6.00 Build 0)  -->
<svg version="1.1" id="Capa_1" xmlns="http://www.w3.org/2000/svg" xmlns:xlink="http://www.w3.org/1999/xlink" x="0px" y="0px"
	 viewBox="0 0 559.464 559.464" style="enable-background:new 0 0 559.464 559.464;" xml:space="preserve">
<g>
	<g>
		<g id="group-7svg">
			<path id="path-1_47_" d="M169.265,428.516c-7.434,0-13.468-6.034-13.468-13.477c0-61.622,49.527-111.751,110.404-111.751h48.477
				c60.877,0,110.404,49.833,110.404,111.095c0,7.434-6.034,13.468-13.468,13.468s-13.468-6.034-13.468-13.468
				c0-46.403-37.442-84.159-83.467-84.159h-48.477c-46.026,0-83.467,38.052-83.467,84.814
				C182.733,422.482,176.699,428.516,169.265,428.516z"/>
			<path id="path-2_47_" d="M227.205,204.889c-3.448,0-6.896-1.32-9.527-3.951c-12.768-12.759-33.859-13.217-46.106-0.979
				c-5.262,5.262-13.783,5.262-19.044,0s-5.262-13.792,0-19.053c22.555-22.555,61.11-22.115,84.195,0.988
				c5.262,5.253,5.262,13.792,0,19.044C234.092,203.569,230.644,204.889,227.205,204.889z"/>
			<path id="path-3_47_" d="M410.401,204.889c-3.448,0-6.896-1.32-9.527-3.951c-12.768-12.759-33.859-13.217-46.106-0.979
				c-5.253,5.262-13.783,5.262-19.044,0c-5.253-5.262-5.253-13.792,0-19.053c22.555-22.555,61.11-22.115,84.195,0.988
				c5.262,5.253,5.262,13.792,0,19.044C417.288,203.569,413.849,204.889,410.401,204.889z"/>
			<path id="path-4_47_" d="M279.732,559.464c-154.212,0-279.664-125.488-279.664-279.727C0.067,125.488,125.511,0,279.732,0
				c154.203,0,279.664,125.488,279.664,279.736C559.387,433.975,433.926,559.464,279.732,559.464z M279.732,26.946
				c-139.352,0-252.728,113.403-252.728,252.791S140.38,532.527,279.732,532.527c139.361,0,252.728-113.403,252.728-252.791
				S419.084,26.946,279.732,26.946z"/>
		</g>
	</g>
</g>
<g>
</g>
<g>
</g>
<g>
</g>
<g>
</g>
<g>
</g>
<g>
</g>
<g>
</g>
<g>
</g>
<g>
</g>
<g>
</g>
<g>
</g>
<g>
</g>
<g>
</g>
<g>
</g>
<g>
</g>
</svg>
