<?xml version="1.0" standalone="no"?>
<!DOCTYPE svg PUBLIC "-//W3C//DTD SVG 20010904//EN"
 "http://www.w3.org/TR/2001/REC-SVG-20010904/DTD/svg10.dtd">
<svg version="1.0" xmlns="http://www.w3.org/2000/svg"
 width="21.000000pt" height="693.000000pt" viewBox="0 0 21.000000 693.000000"
 preserveAspectRatio="xMidYMid meet">

<g transform="translate(0.000000,693.000000) scale(0.100000,-0.100000)"
fill="#000000" stroke="none">

<path d="M49 2085 c-34 -19 -48 -57 -46 -125 l2 -55 55 -2 c69 -2 107 12 125
48 48 92 -45 183 -136 134z m108 -27 c32 -30 31 -87 0 -116 -19 -18 -34 -22
-78 -20 l-54 2 -3 54 c-3 45 1 59 19 78 29 31 84 32 116 2z"/>
<path d="M54 2036 c-13 -34 49 -92 84 -78 18 7 9 27 -14 28 -40 2 -44 5 -44
28 0 30 -18 44 -26 22z"/>

</g>
</svg>
