<svg id="Capa_1" enable-background="new 0 0 512.001 512.001" height="512" viewBox="0 0 512.001 512.001" width="512" xmlns="http://www.w3.org/2000/svg"><path d="m466.38 46.626c-29.147-29.417-67.837-45.968-108.943-46.606-37.333-.591-72.848 11.788-101.437 35.066-28.588-23.278-64.11-35.656-101.436-35.066-41.107.638-79.797 17.189-108.944 46.606-29.144 29.413-45.344 68.253-45.616 109.365-.327 49.391 22.524 95.8 61.504 125.705v44.979c0 34.634 7.864 69.473 22.741 100.75s36.943 59.359 63.812 81.213l4.135 3.363h65.804v-127c0-20.953 17.047-38 38-38s38 17.047 38 38v127h65.805l4.135-3.363c26.869-21.854 48.935-49.937 63.812-81.213s22.741-66.115 22.741-100.75v-44.979c38.98-29.905 61.831-76.314 61.504-125.704-.273-41.113-16.472-79.953-45.617-109.366z"/></svg>