<svg id="Capa_1" enable-background="new 0 0 512.001 512.001" height="512" viewBox="0 0 512.001 512.001" width="512" xmlns="http://www.w3.org/2000/svg"><g><path d="m147.669 113.626c-12.332 0-22.364 10.032-22.364 22.364s10.033 22.364 22.364 22.364 22.364-10.033 22.364-22.364-10.032-22.364-22.364-22.364z"/><path d="m352.43 186.893c-12.332 0-22.364 10.032-22.364 22.364s10.033 22.364 22.364 22.364 22.364-10.032 22.364-22.364-10.032-22.364-22.364-22.364z"/><path d="m466.38 46.626c-29.147-29.417-67.837-45.968-108.943-46.606-37.338-.591-72.848 11.788-101.437 35.066-28.588-23.278-64.101-35.656-101.436-35.066-41.107.638-79.797 17.189-108.944 46.606-29.144 29.413-45.344 68.253-45.616 109.365-.327 49.391 22.524 95.8 61.504 125.705v44.979c0 34.634 7.864 69.473 22.741 100.75s36.943 59.359 63.812 81.213l4.135 3.363h65.804v-127c0-20.953 17.047-38 38-38s38 17.047 38 38v127h65.805l4.135-3.363c26.869-21.854 48.935-49.937 63.812-81.213s22.741-66.115 22.741-100.75v-44.979c38.98-29.905 61.831-76.314 61.504-125.704-.273-41.113-16.472-79.953-45.617-109.366zm-288.38 230.161h-30v-30.167h30zm-30.331-88.433c-28.874 0-52.364-23.491-52.364-52.364s23.491-52.364 52.364-52.364 52.364 23.49 52.364 52.364-23.49 52.364-52.364 52.364zm111.665 35.986h-30v-30.167h30zm85.666-140.798h30v30.167h-30zm39.829 259.655h-30v-30.167h30zm-32.399-81.577c-28.874 0-52.364-23.49-52.364-52.364s23.491-52.364 52.364-52.364 52.364 23.49 52.364 52.364-23.49 52.364-52.364 52.364z"/></g></svg>