<svg id="Capa_1" enable-background="new 0 0 512.356 512.356" height="512" viewBox="0 0 512.356 512.356" width="512" xmlns="http://www.w3.org/2000/svg"><g><path d="m413.449 60.293h59.638v30h-59.638z" transform="matrix(.707 -.707 .707 .707 76.59 335.49)"/><path d="m450.683 131.78h59.638v30h-59.638z" transform="matrix(.987 -.162 .162 .987 -17.426 79.742)"/><path d="m341.962 23.059h59.638v30h-59.638z" transform="matrix(.162 -.987 .987 .162 274.015 398.768)"/><path d="m361.749 138.075-41.086-21.049-12.425-48.452-12.173.544c-28.332 1.266-55.37 11.406-77.466 28.843-24.319-19.254-54.296-29.465-85.736-28.972-35.338.548-68.597 14.775-93.65 40.06-25.051 25.283-38.976 58.67-39.209 94.012-.279 42.07 19.004 81.623 51.957 107.35v36.855c0 60.6 26.964 117.286 73.977 155.523l4.135 3.363h58.745v-109.614c0-16.417 13.356-29.773 29.773-29.773s29.773 13.356 29.773 29.773v109.614h58.745l4.135-3.363c47.013-38.237 73.977-94.923 73.977-155.523v-36.851c30.032-23.41 48.697-58.047 51.563-96.21l.875-11.657-67.078-22.359z"/></g></svg>