<svg id="Capa_1" fill="#fff" enable-background="new 0 0 512 512" height="512" viewBox="0 0 512 512" width="512" xmlns="http://www.w3.org/2000/svg"><g><path d="m162.37 238.139c0 8.91 7.25 16.16 16.16 16.16h26.2v-37.65h-42.36z"/><path d="m234.73 216.649h42.54v37.65h-42.54z"/><path d="m307.27 254.299h26.2c8.91 0 16.16-7.25 16.16-16.16v-21.49h-42.36z"/><path d="m162.37 165.159v21.49h42.36v-37.65h-26.2c-8.91 0-16.16 7.25-16.16 16.16z"/><path d="m234.73 148.999h42.54v37.65h-42.54z"/><path d="m333.47 148.999h-26.2v37.65h42.36v-21.49c0-8.91-7.25-16.16-16.16-16.16z"/><path d="m379.63 238.139c0 25.45-20.71 46.16-46.16 46.16h-154.94c-25.45 0-46.16-20.71-46.16-46.16v-21.49h-98.42c9.12 24.69 25.02 46.64 46.29 63.13v39.52c0 63.97 28.47 123.82 78.1 164.19l4.13 3.36h61.06v-115.31c0-17.91 14.57-32.47 32.47-32.47s32.47 14.56 32.47 32.47v115.31h61.06l4.13-3.36c49.63-40.37 78.1-100.22 78.1-164.19v-39.52c21.27-16.49 37.17-38.44 46.29-63.13h-98.42z"/><path d="m132.37 165.159c0-25.45 20.71-46.16 46.16-46.16h154.94c25.45 0 46.16 20.71 46.16 46.16v21.49h105.91c.91-6.65 1.35-13.41 1.31-20.23-.25-37.24-14.92-72.41-41.31-99.05-26.4-26.64-61.44-41.63-98.66-42.2-33.34-.52-65.16 10.39-90.88 30.96-25.72-20.57-57.47-31.47-90.88-30.96-37.22.57-72.26 15.56-98.66 42.2-26.39 26.64-41.06 61.81-41.31 99.05-.04 6.82.4 13.58 1.31 20.23h105.91z"/><path d="m0 186.649v30h33.95c-3.56-9.64-6.08-19.69-7.49-30z"/><path d="m485.54 186.649c-1.41 10.31-3.93 20.36-7.49 30h33.95v-30z"/></g></svg>