<svg id="Capa_1" fill="#fff" enable-background="new 0 0 512 512" height="512" viewBox="0 0 512 512" width="512" xmlns="http://www.w3.org/2000/svg"><g><path d="m379.553 239.561c-15.817-15.816-36.593-23.725-57.369-23.725s-41.552 7.908-57.369 23.725c-31.633 31.633-31.633 83.104 0 114.737 31.634 31.633 83.104 31.633 114.737 0 31.634-31.633 31.634-83.103.001-114.737z"/><path d="m243.603 218.349c43.33-43.33 113.833-43.33 157.163 0 3.465 3.465 6.65 7.106 9.561 10.891 13.331-21.183 20.617-45.995 20.447-71.77-.23-34.849-13.961-67.77-38.662-92.699-24.703-24.932-57.498-38.959-92.341-39.5-30.954-.481-60.431 9.539-84.383 28.444-23.952-18.905-53.466-28.928-84.382-28.444-34.844.541-67.638 14.568-92.341 39.5-24.701 24.929-38.432 57.85-38.662 92.699-.274 41.442 18.707 80.409 51.14 105.777v36.161c0 59.718 26.571 115.579 72.9 153.26l4.135 3.363h58.141v-108.126c0-15.323 11.919-27.906 26.971-28.985-7.063-35.255 3.037-73.296 30.313-100.571z"/><path d="m322.184 408.009c-28.088 0-56.171-10.56-77.727-31.665v79.687h58.141l4.135-3.363c16.962-13.796 31.262-30.036 42.59-48.004-8.897 2.226-18.018 3.345-27.139 3.345z"/><path d="m502.318 430.313-52.948-52.948-12.768 12.769-25.948-25.948c-3 3.94-6.291 7.728-9.888 11.325s-7.385 6.888-11.325 9.888l25.948 25.948-12.769 12.769 52.947 52.948c12.91 12.91 33.84 12.91 46.75 0 12.91-12.91 12.91-33.841.001-46.751z"/></g></svg>