<svg id="Capa_1" enable-background="new 0 0 512.519 512.519" height="512" fill="#fff" viewBox="0 0 512.519 512.519" width="512" xmlns="http://www.w3.org/2000/svg"><g><path d="m396.92 205.836h-13.142l-59.037-30.948c-14.632 22.322-39.856 37.105-68.481 37.105-28.701 0-53.982-14.863-68.596-37.284l-60.347 31.128h-11.718c-11.883 0-21.516 9.633-21.516 21.516v29.06c0 11.883 9.633 21.516 21.516 21.516h17.417v22.052c0 19.368 4.494 37.685 12.486 53.974l32.775-42.343c8.601-11.113 22.126-17.747 36.179-17.747h84.174c14.441 0 28.191 6.931 36.78 18.541l30.618 41.385c7.942-16.248 12.404-34.507 12.404-53.811v-22.052h18.488c11.883 0 21.516-9.633 21.516-21.516v-29.04c0-11.887-9.63-21.525-21.516-21.536zm-188.731 59.308h-30.03v-29.642h30.03zm126.171 0h-30.03v-29.642h30.03z"/><path d="m265.611.26h-19.773c-40.646 0-80.21 13.103-112.821 37.365v131.482l43.122-22.243c-1.124-5.398-1.721-10.986-1.721-16.712 0-45.128 36.714-81.843 81.842-81.843s81.843 36.714 81.843 81.843c0 5.796-.615 11.45-1.766 16.908l42.096 22.068v-131.503c-32.612-24.262-72.176-37.365-112.822-37.365z"/><path d="m255.724 422.688c36.992 0 70.158-16.37 92.656-42.259l-37.112-50.163c-2.951-3.989-7.676-6.371-12.638-6.371h-84.174c-4.829 0-9.476 2.28-12.432 6.098l-39.001 50.387c22.5 25.917 55.686 42.308 92.701 42.308z"/><path d="m411.417 396.142h-37.022c-3.336 4.107-6.889 8.061-10.669 11.84-14.018 14.018-30.349 25.026-48.541 32.721-18.85 7.973-38.856 12.015-59.462 12.015s-40.612-4.042-59.462-12.015c-18.192-7.694-34.523-18.703-48.54-32.721-3.78-3.78-7.333-7.733-10.669-11.84h-35.95c-55.747 0-101.102 45.355-101.102 101.102v15.015h512.519v-15.015c0-55.747-45.354-101.102-101.102-101.102z"/><path d="m204.448 130.151c0 28.569 23.243 51.812 51.812 51.812s51.812-23.243 51.812-51.812-23.243-51.812-51.812-51.812-51.812 23.242-51.812 51.812zm66.827 14.739h-30.03v-29.479h30.03z"/></g></svg>