<svg id="Capa_1" enable-background="new 0 0 512 512" height="512" viewBox="0 0 512 512" width="512" xmlns="http://www.w3.org/2000/svg"><g><path d="m258.726 204.774h48v110h-48z" transform="matrix(.707 -.707 .707 .707 -100.879 276.005)"/><path d="m203.572 259.928h48v109.999h-48z" transform="matrix(.707 -.707 .707 .707 -156.033 253.158)"/><path d="m481.5 0h-30v67.936l-88.04 89.692-28.185-28.185-53.256 53.256 77.782 77.781 53.256-53.255-28.382-28.383 96.825-98.643z"/><path d="m150.498 314.221-103.889 103.888c-10.388 10.389-16.109 24.2-16.109 38.891s5.721 28.502 16.109 38.891c10.388 10.388 24.201 16.109 38.891 16.109s28.503-5.721 38.891-16.109l103.889-103.889z"/></g></svg>