<svg id="Capa_1" fill="#fff" enable-background="new 0 0 512.084 512.084" height="512" viewBox="0 0 512.084 512.084" width="512" xmlns="http://www.w3.org/2000/svg"><g><path d="m317.023 251.153v-46.242c0-11.978-9.744-21.722-21.722-21.722h-78.518c-11.978 0-21.722 9.744-21.722 21.722v46.242l7.603 55.016h106.756z"/><path d="m134.042 362.584c0 14.566 11.851 26.417 26.416 26.417h191.168c14.565 0 26.416-11.851 26.416-26.417s-11.851-26.416-26.416-26.416h-191.168c-14.565 0-26.416 11.85-26.416 26.416z"/><path d="m451.35 43.442c-27.157-27.407-63.207-42.829-101.509-43.423-34.431-.547-67.283 10.776-93.799 32.095-26.515-21.318-59.351-32.641-93.799-32.095-38.301.594-74.351 16.016-101.508 43.423-27.155 27.406-42.248 63.595-42.502 101.902-.31 46.738 22.011 91.196 59.706 118.923l3.965 2.917h85.089l-1.93-13.968v-48.306c0-28.52 23.202-51.722 51.722-51.722h78.518c28.52 0 51.722 23.202 51.722 51.722v48.306l-1.931 13.968h85.089l3.965-2.917c37.695-27.728 60.016-72.185 59.706-118.923-.256-38.307-15.35-74.496-42.504-101.902z"/><path d="m218.258 419.001 12.863 93.083h49.842l12.864-93.083z"/></g></svg>