<svg id="Capa_1" enable-background="new 0 0 511.988 511.988" height="512" viewBox="0 0 511.988 511.988" width="512" xmlns="http://www.w3.org/2000/svg"><g><path d="m420.245 278.654c32.434-25.368 51.414-64.335 51.14-105.777-.23-34.849-13.961-67.77-38.662-92.699-24.703-24.932-57.497-38.959-92.341-39.5-30.965-.492-60.432 9.539-84.383 28.444-23.952-18.905-53.438-28.941-84.382-28.444-34.844.541-67.638 14.568-92.341 39.5-24.701 24.929-38.431 57.85-38.662 92.698-.274 41.442 18.707 80.41 51.14 105.777v36.161c0 59.718 26.571 115.579 72.9 153.26l4.135 3.363h58.141v-108.125c0-16.029 13.04-29.069 29.069-29.069s29.069 13.04 29.069 29.069v108.126h58.142l4.135-3.363c46.329-37.681 72.9-93.542 72.9-153.26z"/><path d="m30 30.05h66v-30h-96v96h30z"/><path d="m30 415.938h-30v96h96v-30h-66z"/><path d="m415.988.05v30h66v66h30v-96z"/><path d="m481.988 481.938h-66v30h96v-96h-30z"/></g></svg>