<svg id="Capa_1" enable-background="new 0 0 512 512" height="512" viewBox="0 0 512 512" width="512" xmlns="http://www.w3.org/2000/svg"><g><path d="m274.515 263.548c-12.93-12.93-29.877-19.395-46.823-19.395-14.289 0-28.569 4.615-40.45 13.808l96.285 96.285c20.095-25.972 18.246-63.441-5.587-87.274z"/><path d="m301.766 54.024h40.945v72.704h-40.945z" transform="matrix(.707 -.707 .707 .707 30.476 254.327)"/><path d="m139.264 498.402-96.178-96.178c-19.926 26.203-17.943 63.744 5.983 87.67l2.525 2.525c13.055 13.054 30.164 19.581 47.274 19.581 14.249 0 28.489-4.544 40.396-13.598z"/><path d="m91.296 309.569h143.966v137.28h-143.966z" transform="matrix(.707 -.707 .707 .707 -219.61 226.231)"/><path d="m351.915 3.848h40.999v72.704h-40.999z" transform="matrix(.707 -.707 .707 .707 80.652 275.111)"/><path d="m468.849 73.846-1.202-1.203c-6.185-6.185-13.687-10.265-21.612-12.246l-167.973 167.974c6.335 3.908 12.262 8.577 17.657 13.973l3.425 3.425c11.312 11.312 19.458 24.945 23.998 39.825l145.701-145.702c18.211-18.21 18.211-47.84.006-66.046z"/><path d="m159.663 242.344c1.976-1.976 4.027-3.85 6.139-5.63-21.24-18.588-53.653-17.774-73.896 2.47-20.158 20.158-21.049 52.379-2.705 73.622z"/><path d="m251.564 104.2h40.998v72.704h-40.998z" transform="matrix(.707 -.707 .707 .707 -19.7 233.544)"/></g></svg>