<svg id="Capa_1" enable-background="new 0 0 512 512" height="512" viewBox="0 0 512 512" width="512" xmlns="http://www.w3.org/2000/svg"><g><path d="m313.142 82.113c-2.114 8.46-3.198 17.202-3.198 26.015 0 59.139 48.108 107.253 107.241 107.253 4.405 0 8.869-.28 13.279-.819.001-.417.012-.833.01-1.25-.23-34.825-13.951-67.723-38.635-92.634-21.449-21.647-49.002-35.062-78.697-38.565z"/><path d="m279.965 108.128c0-8.793.842-17.54 2.497-26.11-24.591 2.744-47.749 12.24-67.223 27.611-23.936-18.892-53.436-28.907-84.324-28.424-34.82.54-67.591 14.558-92.277 39.473-24.684 24.911-38.405 57.809-38.635 92.634-.274 41.413 18.693 80.354 51.104 105.704v36.135c0 59.676 26.553 115.499 72.85 153.154l4.132 3.361h58.101v-108.052c0-16.018 13.031-29.049 29.049-29.049 16.017 0 29.048 13.031 29.048 29.049v108.051h58.101l4.132-3.361c46.297-37.655 72.85-93.477 72.85-153.154v-36.135c23.957-18.739 40.558-44.906 47.483-74.005-3.228.225-6.459.35-9.667.35-75.664 0-137.221-61.562-137.221-137.232z"/><path d="m413.161 54.386h59.597v29.979h-59.597z" transform="matrix(.707 -.707 .707 .707 80.683 333.537)"/><path d="m450.37 125.824h59.596v29.979h-59.596z" transform="matrix(.987 -.162 .162 .987 -16.464 79.609)"/><path d="m341.724 17.178h59.596v29.979h-59.596z" transform="matrix(.162 -.987 .987 .162 279.618 393.577)"/></g></svg>