<svg id="Capa_1" enable-background="new 0 0 512 512" height="512" viewBox="0 0 512 512" width="512" xmlns="http://www.w3.org/2000/svg"><g><path d="m256.018 205.794c-32.915 0-60.524 23.156-67.393 54.033l-115.033-.018v78.333c0 66.434 29.56 128.578 81.099 170.496l4.135 3.363h62.743v-119.461c0-18.986 15.446-34.432 34.432-34.432s34.432 15.446 34.432 34.432v119.46h62.743l4.135-3.363c51.539-41.918 81.099-104.062 81.099-170.496v-78.333l-114.998.018c-6.87-30.876-34.479-54.032-67.394-54.032z"/><path d="m452.935 43.785c-27.372-27.624-63.706-43.168-102.311-43.767-34.764-.53-67.886 10.888-94.624 32.415-26.737-21.526-59.83-32.953-94.624-32.415-38.604.599-74.939 16.143-102.311 43.767-27.369 27.622-42.582 64.098-42.837 102.707-.178 26.829 6.933 53.154 20.564 76.129l4.358 7.346h126.157l4.374-7.259c17.991-29.859 49.512-47.685 84.319-47.685s66.328 17.826 84.319 47.686l4.374 7.258h126.157l4.358-7.346c13.631-22.976 20.742-49.3 20.564-76.129-.255-38.609-15.468-75.085-42.837-102.707z"/></g></svg>