<svg id="Capa_1" enable-background="new 0 0 512 512" height="512" viewBox="0 0 512 512" width="512" xmlns="http://www.w3.org/2000/svg"><g><path d="m173.115 259.833h48.012v110.027h-48.012z" transform="matrix(.707 -.707 .707 .707 -164.895 231.601)"/><path d="m228.283 204.665h48.012v110.027h-48.012z" transform="matrix(.707 -.707 .707 .707 -109.727 254.454)"/><path d="m120.028 314.139-103.915 103.915c-10.39 10.391-16.113 24.205-16.113 38.9s5.723 28.509 16.113 38.9 24.206 16.113 38.9 16.113 28.509-5.723 38.9-16.113l103.915-103.914z"/><path d="m491.823 43.52-43.488-43.488-21.218 21.218 43.487 43.487c15.203 15.203 15.203 39.941 0 55.144-7.365 7.365-17.157 11.42-27.572 11.42s-20.207-4.056-27.572-11.42l-22.616-22.617-60.022 60.022-27.971-27.971-53.269 53.269 77.801 77.801 53.269-53.269-28.611-28.611 38.804-38.803 1.398 1.398c13.032 13.033 30.359 20.21 48.79 20.21 18.43 0 35.758-7.178 48.79-20.21 26.903-26.903 26.903-70.677 0-97.58z"/></g></svg>