<svg id="Capa_1" fill="#fff" enable-background="new 0 0 511.969 511.969" height="512" viewBox="0 0 511.969 511.969" width="512" xmlns="http://www.w3.org/2000/svg"><g><path d="m305.551 117.387c0-23.061 6.644-44.597 18.11-62.805-7.803-1.554-15.789-2.426-23.89-2.552-30.925-.487-60.43 9.539-84.382 28.444-23.952-18.905-53.44-28.938-84.382-28.444-34.844.541-67.638 14.568-92.341 39.5-24.701 24.929-38.431 57.85-38.662 92.699-.274 41.442 18.707 80.409 51.14 105.777v36.161c0 59.718 26.571 115.579 72.9 153.26l4.135 3.363h58.141v-108.126c0-16.029 13.04-29.069 29.069-29.069s29.069 13.04 29.069 29.069v108.126h58.142l4.135-3.363c46.329-37.681 72.9-93.542 72.9-153.26v-36.161c18.449-14.43 32.537-33.263 41.209-54.447-63.839-1.554-115.293-53.966-115.293-118.172z"/><path d="m423.76 205.596c48.639 0 88.209-39.57 88.209-88.209s-39.57-88.209-88.209-88.209-88.209 39.57-88.209 88.209 39.57 88.209 88.209 88.209zm-36.062-105.99 23.728 24.143 48.635-48.634 21.213 21.214-70.034 70.031-44.938-45.726z"/></g></svg>