<svg id="Capa_1" enable-background="new 0 0 512 512" height="512" viewBox="0 0 512 512" width="512" xmlns="http://www.w3.org/2000/svg"><g><path d="m224.416 454.022 162.326-189.684c-8.229-5.702-13.742-11.984-18.588-17.508-7.595-8.657-13.594-15.496-29.618-20.143s-24.752-2.079-35.8 1.172c-12.551 3.693-28.174 8.29-52.605 1.204-24.43-7.084-35.167-19.325-43.795-29.16-6.703-7.643-12.169-13.867-24.381-18.417l-123.978 106.098zm12.837-123.945-21.191 21.191-55.331-55.332 21.191-21.191z"/><path d="m80.647 376.709h46.111v63.175h-46.111z" transform="matrix(.707 -.707 .707 .707 -258.335 192.916)"/><path d="m474.698 111.66 37.302-48.956-62.705-62.704-48.955 37.302z"/><path d="m76.479 348.467-41.339-41.339-35.14 30.071 43.874 43.874z"/><path d="m369.277 48.621c-12.825-5.318-28.119-3.377-39.198 6.106l-123.376 105.582c10.264 6.278 16.648 13.546 22.163 19.833 7.594 8.657 13.592 15.495 29.613 20.141 16.022 4.646 24.751 2.079 35.8-1.172 12.55-3.693 28.174-8.291 52.605-1.204 24.432 7.085 35.17 19.326 43.799 29.161 4.87 5.551 9.088 10.353 15.71 14.31l50.88-59.455c9.483-11.081 11.425-26.376 6.106-39.2z"/><path d="m163.532 435.52-32.606 32.606 43.874 43.874 30.072-35.14z"/></g></svg>