<svg id="Capa_1" enable-background="new 0 0 512 512" height="512" viewBox="0 0 512 512" width="512" xmlns="http://www.w3.org/2000/svg"><g><path d="m173.072 259.928h48v110h-48z" transform="matrix(.707 -.707 .707 .707 -164.966 231.591)"/><path d="m228.226 204.773h48v110h-48z" transform="matrix(.707 -.707 .707 .707 -109.812 254.437)"/><path d="m119.998 314.221-103.889 103.888c-10.388 10.389-16.109 24.2-16.109 38.891s5.721 28.502 16.109 38.891 24.2 16.109 38.891 16.109 28.502-5.721 38.891-16.109l103.889-103.889z"/><path d="m492.666 19.335c-12.469-12.468-29.046-19.335-46.678-19.335-17.633 0-34.21 6.867-46.678 19.334-12.468 12.468-19.335 29.045-19.335 46.678 0 13.101 3.797 25.615 10.859 36.297l-56.596 56.596-29.463-29.463-53.256 53.256 77.782 77.781 53.256-53.256-27.106-27.106 57.144-57.144c10.019 5.896 21.461 9.05 33.393 9.05 17.632 0 34.209-6.867 46.677-19.334s19.335-29.044 19.335-46.677c0-17.632-6.867-34.209-19.334-46.677z"/></g></svg>