<svg id="Capa_1" enable-background="new 0 0 512 512" height="512" viewBox="0 0 512 512" width="512" xmlns="http://www.w3.org/2000/svg"><g><path d="m455.908 148.883c-43.743.985-66.448 9.85-90.395 19.208-26.872 10.5-54.659 21.359-109.513 21.359s-82.641-10.858-109.513-21.359c-23.947-9.358-46.652-18.223-90.395-19.208l28.523 263.117h342.77zm-297.408 222.373h-30v-29.75h30zm18.5-66h-30v-29.75h30zm48 54.5h-30v-29.75h30z"/><path d="m157.406 140.148c25.402 9.926 49.394 19.302 98.594 19.302s73.192-9.375 98.594-19.301c26.053-10.181 52.968-20.697 104.573-21.329l12.88-118.82h-432.094l12.881 118.82c51.604.632 78.519 11.148 104.572 21.328z"/><path d="m87.867 442 7.589 70h321.088l7.589-70z"/></g></svg>