<svg id="Capa_1" enable-background="new 0 0 512 512" height="512" viewBox="0 0 512 512" width="512" xmlns="http://www.w3.org/2000/svg"><g><path d="m160.961 209.961h57.825v224.33h-57.825z" transform="matrix(.707 -.707 .707 .707 -172.165 228.61)"/><path d="m115.148 330.794-58.238 58.238-35.658-35.657-21.252 21.253 137.372 137.372 21.252-21.252-35.657-35.658 58.239-58.238z"/><path d="m512 21.253-21.252-21.253-42.978 42.977-76.188-13.602-43.65 43.65 38.889 38.889-21.253 21.253-38.889-38.889-28.966 28.966 38.941 38.941-21.253 21.253-38.941-38.942-29.028 29.029 38.9 38.899-21.253 21.253-38.9-38.9-30.13 30.13 111.044 111.044 195.532-195.533-13.603-76.188z"/></g></svg>