<svg id="Capa_1" enable-background="new 0 0 512.001 512.001" height="512" viewBox="0 0 512.001 512.001" width="512" xmlns="http://www.w3.org/2000/svg"><g><path d="m345.84 365.28c0-10.629-23.647-25.667-61.46-30.943-5.314 7.361-28.656 38.213-28.656 38.213l-28.029-38.229c-37.86 5.266-61.535 20.322-61.535 30.958 0 13.087 35.832 32.873 89.84 32.873s89.84-19.785 89.84-32.872z"/><circle cx="256.001" cy="157.346" r="33.639"/><path d="m466.38 46.626c-29.147-29.417-67.837-45.968-108.943-46.606-34.542-.546-67.516 10.015-94.897 30.029 67.26 3.415 120.93 59.203 120.93 127.297 0 38.534-19.357 68.127-40.924 97.541l-38.473 52.471c11.79 2.552 22.709 6.049 32.29 10.424 25.457 11.625 39.477 28.492 39.477 47.496s-14.02 35.872-39.477 47.496c-12.26 5.599-26.698 9.775-42.363 12.352v86.873h65.805l4.135-3.363c26.869-21.854 48.935-49.937 63.813-81.213 14.877-31.276 22.74-66.115 22.74-100.75v-44.979c38.979-29.905 61.831-76.314 61.505-125.704-.273-41.111-16.473-79.951-45.618-109.364z"/><path d="m353.47 157.347c0-53.745-43.725-97.47-97.47-97.47h-.553c-53.488.292-96.917 43.904-96.917 97.468 0 29.504 15.904 53.597 35.117 79.802l62.425 85.139c1.407-1.942 62.28-85.138 62.28-85.138 19.214-26.204 35.118-50.297 35.118-79.801zm-97.469 63.638c-35.091 0-63.64-28.548-63.64-63.639s28.549-63.64 63.64-63.64 63.64 28.549 63.64 63.64-28.55 63.639-63.64 63.639z"/><path d="m175.637 412.776c-25.457-11.625-39.477-28.492-39.477-47.496s14.02-35.872 39.477-47.496c9.582-4.375 20.502-7.871 32.292-10.421l-38.475-52.476c-21.566-29.415-40.924-59.008-40.924-97.541 0-68.095 53.665-123.89 120.919-127.304-26.717-19.523-61.251-30.041-94.866-30.041-.835 0 .816.006-.02.02-41.105.637-79.796 17.188-108.943 46.605-29.144 29.413-45.344 68.253-45.617 109.366-.326 49.39 22.525 95.799 61.505 125.704v44.979c0 34.634 7.863 69.473 22.74 100.75 14.878 31.276 36.943 59.359 63.813 81.213l4.135 3.363h65.805v-86.873c-15.666-2.577-30.104-6.754-42.364-12.352z"/></g></svg>