<svg id="Capa_1" enable-background="new 0 0 512.931 512.931" height="512" viewBox="0 0 512.931 512.931" width="512" xmlns="http://www.w3.org/2000/svg"><g><path d="m254.464 108.599h44.454v73.586h-44.454z" transform="matrix(.707 -.707 .707 .707 -21.767 238.235)"/><path d="m358.123 4.941h44.454v73.586h-44.454z" transform="matrix(.707 -.707 .707 .707 81.892 281.171)"/><path d="m307.449 56.77h42.142v73.586h-42.142z" transform="matrix(.707 -.707 .707 .707 30.063 259.703)"/><path d="m443.297 73.246-140.411 140.411-94.351 38.521-76.692 76.692 63.378 63.379 85.592-85.592 76.09-30.113 144.846-144.845z"/><path d="m64.6 396.113-40.313 40.313c-17.474 17.474-17.474 45.905 0 63.378 8.464 8.465 19.719 13.126 31.689 13.126s23.225-4.662 31.688-13.126l40.314-40.313z"/><path d="m112.363 349.365h35.096v89.631h-35.096z" transform="matrix(.707 -.707 .707 .707 -240.678 207.313)"/></g></svg>