<svg id="Capa_1" enable-background="new 0 0 511.969 511.969" height="512" viewBox="0 0 511.969 511.969" width="512" xmlns="http://www.w3.org/2000/svg"><g><path d="m423.76 205.596c48.639 0 88.209-39.57 88.209-88.209s-39.57-88.209-88.209-88.209-88.209 39.57-88.209 88.209 39.57 88.209 88.209 88.209zm-47.565-103.209h95.129v30h-95.129z"/><path d="m305.551 117.387c0-23.062 6.645-44.597 18.11-62.806-7.803-1.554-15.789-2.426-23.89-2.551-30.957-.45-60.431 9.54-84.383 28.444-23.952-18.905-53.461-28.896-84.382-28.444-34.844.54-67.638 14.568-92.342 39.5-24.7 24.93-38.431 57.85-38.661 92.698-.274 41.442 18.707 80.41 51.14 105.778v36.16c0 59.719 26.571 115.58 72.9 153.261l4.135 3.363h58.141v-108.126c0-16.028 13.04-29.068 29.069-29.068s29.069 13.04 29.069 29.068v108.127h58.141l4.135-3.363c46.329-37.681 72.9-93.542 72.9-153.261v-36.16c18.449-14.43 32.537-33.263 41.209-54.447-63.838-1.555-115.291-53.967-115.291-118.173z"/></g></svg>