<svg id="Capa_1" fill="#fff" enable-background="new 0 0 511.999 511.999" height="512" viewBox="0 0 511.999 511.999" width="512" xmlns="http://www.w3.org/2000/svg"><path d="m466.38 46.624c-13.051-13.172-28.02-23.755-44.258-31.494l-71.062 95.767 55.405 45.065-69.356 94.241-24.162-17.781 52.413-71.222-55.492-45.138 82.732-111.492c-11.399-2.817-23.177-4.365-35.163-4.551-37.338-.57-72.847 11.787-101.437 35.065-28.59-23.278-64.103-35.631-101.437-35.065-41.106.638-79.796 17.189-108.943 46.605-29.145 29.413-45.344 68.254-45.616 109.366-.327 49.391 22.524 95.8 61.504 125.704v44.979c0 34.635 7.864 69.474 22.741 100.75s36.943 59.359 63.813 81.213l4.135 3.363h65.803v-127c0-20.953 17.047-38 38-38s38 17.047 38 38v127h65.805l4.135-3.363c26.869-21.854 48.935-49.937 63.812-81.213s22.741-66.115 22.741-100.75v-44.979c38.98-29.904 61.831-76.313 61.504-125.704-.273-41.112-16.473-79.953-45.617-109.366z"/></svg>