<svg id="Capa_1" fill="#fff" enable-background="new 0 0 512.094 512.094" height="512" viewBox="0 0 512.094 512.094" width="512" xmlns="http://www.w3.org/2000/svg"><g><path d="m90.349 335.748c0 16.639 13.536 30.175 30.174 30.175s30.174-13.536 30.174-30.175v-64.701h-60.348z"/><path d="m150.698 176.345c0-16.638-13.536-30.174-30.174-30.174s-30.174 13.536-30.174 30.174v64.702h60.349v-64.702z"/><path d="m241.047 155.538c0-16.638-13.536-30.174-30.174-30.174-16.639 0-30.175 13.536-30.175 30.174v85.509h60.349z"/><path d="m180.698 356.555c0 16.638 13.536 30.174 30.175 30.174 16.638 0 30.174-13.536 30.174-30.174v-85.508h-60.349z"/><path d="m447.991 41.201h-383.889c-35.346 0-64.102 28.756-64.102 64.102v36.194c8.835-5.125 19.08-8.075 30.008-8.075h.333c14.302 0 27.446 5.037 37.767 13.42 10.336-18.289 29.951-30.671 52.415-30.671 13.746 0 26.422 4.643 36.565 12.43 9.902-19.688 30.284-33.236 53.784-33.236 17.984 0 34.138 7.94 45.174 20.487 11.036-12.547 27.191-20.487 45.175-20.487 23.499 0 43.882 13.548 53.783 33.236 10.143-7.786 22.819-12.43 36.565-12.43 22.464 0 42.08 12.382 52.415 30.671 10.321-8.383 23.465-13.42 37.767-13.42h.333c10.928 0 21.173 2.951 30.008 8.075v-36.194c.002-35.346-28.754-64.102-64.101-64.102z"/><path d="m361.396 335.748c0 16.639 13.536 30.175 30.175 30.175s30.175-13.536 30.175-30.175v-64.701h-60.35z"/><path d="m271.047 356.555c0 16.638 13.536 30.174 30.175 30.174 16.638 0 30.174-13.536 30.174-30.174v-85.508h-60.349z"/><path d="m482.086 163.422h-.333c-16.546 0-30.008 13.462-30.008 30.008v47.617h60.349v-47.617c0-16.546-13.462-30.008-30.008-30.008z"/><path d="m331.396 155.538c0-16.638-13.536-30.174-30.174-30.174-16.639 0-30.175 13.536-30.175 30.174v85.509h60.349z"/><path d="m64.102 470.893h383.889c35.347 0 64.103-28.756 64.103-64.103v-36.193c-8.834 5.125-19.08 8.075-30.008 8.075h-.333c-14.302 0-27.446-5.037-37.767-13.42-10.336 18.289-29.951 30.671-52.415 30.671-13.746 0-26.423-4.643-36.566-12.43-9.902 19.688-30.284 33.236-53.783 33.236-17.984 0-34.139-7.94-45.175-20.487-11.036 12.547-27.191 20.487-45.174 20.487-23.499 0-43.882-13.548-53.784-33.236-10.143 7.787-22.819 12.43-36.565 12.43-22.464 0-42.079-12.382-52.415-30.671-10.321 8.383-23.465 13.42-37.767 13.42h-.333c-10.928 0-21.173-2.951-30.008-8.075v36.193c-.001 35.347 28.755 64.103 64.101 64.103z"/><path d="m451.745 318.664c0 16.546 13.462 30.008 30.008 30.008h.333c16.546 0 30.008-13.462 30.008-30.008v-47.617h-60.349z"/><path d="m30.008 348.672h.333c16.546 0 30.008-13.462 30.008-30.008v-47.617h-60.349v47.617c0 16.546 13.461 30.008 30.008 30.008z"/><path d="m421.745 176.345c0-16.638-13.536-30.174-30.175-30.174s-30.175 13.536-30.175 30.174v64.702h60.35z"/><path d="m60.349 193.43c0-16.546-13.461-30.008-30.008-30.008h-.333c-16.547 0-30.008 13.462-30.008 30.008v47.617h60.349z"/></g></svg>