<svg id="Capa_1" enable-background="new 0 0 512 512" height="512" viewBox="0 0 512 512" width="512" xmlns="http://www.w3.org/2000/svg"><g><path d="m410.488 205.594v104.735l101.512-175.274h-81.986l48.512-111.361h-92.181l-71.068 181.898z"/><path d="m380.351 235.732-109.205-.004 67.988-174.016c-12.167-3.84-24.931-5.942-37.987-6.144-31.068-.466-60.707 9.583-84.769 28.575-24.061-18.993-53.703-29.061-84.77-28.575-35.004.542-67.949 14.635-92.766 39.681-24.814 25.044-38.607 58.115-38.839 93.124-.276 41.633 18.792 80.778 51.374 106.263v36.327c0 59.993 26.693 116.111 73.235 153.964l4.154 3.379h58.409v-108.623c0-16.102 13.1-29.202 29.203-29.202 16.102 0 29.202 13.1 29.202 29.202v108.623h58.409l4.154-3.379c41.295-33.586 66.946-81.554 72.209-133.846v-115.349z"/></g></svg>