<svg id="Capa_1" enable-background="new 0 0 512 512" height="512" viewBox="0 0 512 512" width="512" xmlns="http://www.w3.org/2000/svg"><g><path d="m0 252.209h79v221.227h-79z"/><path d="m497.72 264.259c-18.431-18.437-47.986-19.149-67.284-1.623l-57.839 52.528c.748 3.952 1.156 8.024 1.156 12.19 0 36.099-29.369 65.467-65.467 65.467h-94.457v-30h94.58c19.484 0 35.279-15.795 35.279-35.279s-15.795-35.279-35.279-35.279h-69.724c-19.766-20.101-46.763-31.5-75.12-31.5-19.467 0-38.281 5.392-54.564 15.265v167.971l64.094 21.663h187.313l136.678-131.812c9.497-9.159 14.793-21.468 14.914-34.661.119-13.194-4.952-25.599-14.28-34.93z"/><path d="m238.54 162.567v13.348c0 28.071 15.09 54.248 39.382 68.315l23.393 13.546h7.685v-84.291h30v84.291h7.686l23.394-13.546c24.291-14.067 39.381-40.244 39.381-68.315v-13.348c15.648-13.689 24.55-33.585 24.131-54.67-.754-37.932-32.238-69.033-70.186-69.33-14.214-.092-27.802 3.944-39.405 11.594-11.449-7.548-24.851-11.596-38.839-11.596-.188 0-.377.001-.565.002-37.947.297-69.433 31.397-70.187 69.329-.42 21.085 8.482 40.981 24.13 54.671z"/></g></svg>