<svg id="Capa_1" enable-background="new 0 0 512 512" height="512" viewBox="0 0 512 512" width="512" xmlns="http://www.w3.org/2000/svg"><g><path d="m206.959 341.23 6.484 4.472v24.747c0 13.239 7.117 25.586 18.574 32.221l8.982 5.202v-45.118h30v45.118l8.982-5.202c11.457-6.635 18.574-18.981 18.574-32.221v-24.747l6.485-4.472c8.49-5.854 13.437-15.5 13.232-25.802-.325-16.371-13.917-29.793-30.298-29.921-8.076-.075-15.729 3.002-21.526 8.632l-10.448 10.149-10.45-10.148c-5.797-5.63-13.413-8.733-21.525-8.632-16.381.128-29.974 13.55-30.299 29.921-.205 10.3 4.742 19.946 13.233 25.801z"/><path d="m0 491h512v-282.21h-512zm437.82-217h30v29.33h-30zm0 59.12h30v29.33h-30zm0 59.12h30v29.33h-30zm-55.57-118.24h30v29.33h-30zm0 59.12h30v29.33h-30zm0 59.12h30v29.33h-30zm-158.46-136.73c11.52-.06 22.62 3.03 32.21 8.96 9.59-5.93 20.67-9.06 32.21-8.96 32.47.25 59.41 26.87 60.06 59.32.35 17.62-6.91 34.27-19.71 45.95v9.67c0 23.91-12.85 46.2-33.54 58.18l-19.75 11.44h-38.54l-19.75-11.44c-20.69-11.98-33.54-34.27-33.54-58.18v-9.67c-12.8-11.68-20.06-28.33-19.71-45.95.65-32.45 27.59-59.07 60.06-59.32zm-124.04 18.49h30v29.33h-30zm0 59.12h30v29.33h-30zm0 59.12h30v29.33h-30zm-55.57-118.24h30v29.33h-30zm0 59.12h30v29.33h-30zm0 59.12h30v29.33h-30z"/><path d="m408.47 56.67v49.38h33.6v30h-97.2v-30h33.6v-49.38h-107.47v49.38h33.6v30h-97.2v-30h33.6v-49.38h-107.47v49.38h33.6v30h-97.2v-30h33.6v-49.38h-103.53v122.12h512v-122.12z"/><path d="m103.53 21h30v35.67h-30z"/><path d="m241 21h30v35.67h-30z"/><path d="m378.47 21h30v35.67h-30z"/></g></svg>