<svg id="Capa_1" enable-background="new 0 0 511.996 511.996" height="512" viewBox="0 0 511.996 511.996" width="512" xmlns="http://www.w3.org/2000/svg"><g><path d="m331.438 92.872c-27.637-.405-53.927 8.369-75.44 24.993-21.513-16.625-47.832-25.42-75.44-24.993-31.561.49-61.263 13.195-83.636 35.775-22.371 22.577-34.806 52.395-35.015 83.958-.247 37.274 16.703 72.337 45.706 95.322v31.544c0 53.854 23.962 104.229 65.742 138.211l4.135 3.363h54.124v-98.23c0-13.446 10.939-24.386 24.386-24.386s24.386 10.939 24.386 24.386v98.23h54.124l4.135-3.363c41.779-33.98 65.741-84.356 65.741-138.211v-31.544c29.002-22.986 45.952-58.049 45.706-95.322-.209-31.563-12.645-61.381-35.016-83.958-22.375-22.58-52.077-35.285-83.638-35.775z"/><path d="m459.05 85.073c-33.835-34.146-78.813-53.359-126.66-54.101-26.321-.38-52.59 4.901-76.383 15.358-23.969-10.583-49.653-15.765-76.409-15.358-47.839.741-92.818 19.955-126.653 54.101-33.825 34.138-52.628 79.284-52.945 127.122l29.999.199c.266-39.952 15.982-77.671 44.256-106.206 28.282-28.541 65.858-44.6 105.792-45.22 24.471-.34 47.801 4.817 69.354 15.372l6.597 3.23 6.596-3.23c21.27-10.416 45.235-15.749 69.339-15.372 39.948.62 77.524 16.679 105.806 45.22 28.274 28.536 43.991 66.255 44.256 106.207l30-.199c-.317-47.838-19.12-92.984-52.945-127.123z"/></g></svg>