<svg id="Capa_1" enable-background="new 0 0 511.875 511.875" height="512" viewBox="0 0 511.875 511.875" width="512" xmlns="http://www.w3.org/2000/svg"><g><path d="m424.104 181.819c58.253-37.703 87.771-71.216 87.771-99.681 0-24.066-19.579-43.646-43.646-43.646-12.567 0-24.537 5.438-32.84 14.92l-11.284 12.888-11.285-12.887c-8.304-9.481-20.274-14.92-32.841-14.92-24.066 0-43.646 19.579-43.646 43.646 0 28.464 29.519 61.977 87.771 99.68z"/><path d="m416.145 212.313c-37.813-23.676-65.016-45.712-83.16-67.368-17.685-21.107-26.651-42.238-26.651-62.807 0-13.945 3.897-26.997 10.657-38.125-5.665-.83-11.413-1.303-17.22-1.393-30.934-.451-60.43 9.539-84.382 28.444-23.952-18.906-53.453-28.902-84.383-28.444-34.844.54-67.638 14.568-92.342 39.5-24.7 24.93-38.431 57.85-38.661 92.698-.274 41.442 18.706 80.409 51.14 105.777v36.161c0 59.719 26.571 115.58 72.9 153.261l4.135 3.363h58.142v-108.125c0-16.028 13.04-29.068 29.069-29.068 16.028 0 29.068 13.04 29.068 29.068v108.127h58.142l4.135-3.363c46.329-37.681 72.9-93.542 72.9-153.261v-36.161c20.982-16.411 36.323-38.517 44.47-63.3z"/></g></svg>