<svg id="Capa_1" fill="#fff" enable-background="new 0 0 511.937 511.937" height="512" viewBox="0 0 511.937 511.937" width="512" xmlns="http://www.w3.org/2000/svg"><g><path d="m328.356 115.99c-26.461-.396-51.707 7.969-72.388 23.818-20.681-15.851-45.917-24.241-72.388-23.818-30.439.472-59.087 12.726-80.665 34.503-21.575 21.774-33.568 50.532-33.77 80.976-.237 35.85 16.02 69.579 43.85 91.751v29.97c0 51.853 23.071 100.355 63.298 133.073l4.135 3.363h52.752v-94.853c0-12.564 10.222-22.787 22.787-22.787s22.787 10.223 22.787 22.787v94.853h52.752l4.135-3.363c40.227-32.718 63.298-81.221 63.298-133.073v-29.97c27.83-22.172 44.087-55.901 43.85-91.751-.201-30.443-12.194-59.201-33.77-80.976-21.576-21.778-50.224-34.032-80.663-34.503z"/><path d="m240.968 22.311h30v58.324h-30z"/><path d="m355.615 49.622h58.325v30h-58.325z" transform="matrix(.341 -.94 .94 .341 192.931 404.364)"/><path d="m450.051 134.012h58.324v29.999h-58.324z" transform="matrix(.858 -.515 .515 .858 -8.365 267.828)"/><path d="m112.159 35.459h30v58.325h-30z" transform="matrix(.94 -.341 .341 .94 -14.409 47.186)"/><path d="m17.724 119.849h29.999v58.324h-29.999z" transform="matrix(.515 -.857 .857 .515 -111.885 100.393)"/></g></svg>