<svg id="Capa_1" enable-background="new 0 0 511.979 511.979" height="512" viewBox="0 0 511.979 511.979" width="512" xmlns="http://www.w3.org/2000/svg"><g><path d="m203.759 224.658 6.484 4.472v25.683c0 14.269 7.671 27.575 20.019 34.727l10.729 6.213v-49.063h30v49.062l10.729-6.213c12.348-7.15 20.019-20.457 20.019-34.727v-25.682l6.484-4.472c9.192-6.339 14.548-16.78 14.326-27.933-.353-17.725-15.067-32.258-32.803-32.396-.088-.001-.177-.002-.264-.002-8.654 0-16.827 3.313-23.041 9.349l-10.45 10.149-10.45-10.149c-6.276-6.096-14.531-9.404-23.305-9.347-17.735.138-32.45 14.671-32.803 32.395-.222 11.153 5.133 21.595 14.326 27.934z"/><path d="m345.692 34.979v56.063h-179.154v-56.063h-99.116v477h377.135v-477zm-177.536 421.667h-28.833v-30h28.833zm0-63.667h-28.833v-30h28.833zm-8.718-196.85c.672-33.812 28.738-61.534 62.563-61.799.167-.001.336-.002.503-.002 12.011 0 23.533 3.347 33.485 9.605 9.952-6.258 21.476-9.605 33.485-9.605.168 0 .335.001.504.002 33.825.265 61.891 27.988 62.563 61.8.366 18.476-7.295 35.926-20.805 48.104v10.579c0 24.937-13.405 48.19-34.983 60.688l-20.648 11.958h-40.229l-20.649-11.959c-21.58-12.497-34.985-35.751-34.985-60.688v-10.579c-13.509-12.178-21.171-29.629-20.804-48.104zm213.219 260.517h-175.334v-30h175.333v30zm0-63.667h-175.334v-30h175.333v30z"/><path d="m196.538 0h119.154v61.043h-119.154z"/></g></svg>