<svg id="Capa_1" enable-background="new 0 0 512 512" height="512" viewBox="0 0 512 512" width="512" xmlns="http://www.w3.org/2000/svg"><g><path d="m106.836 165.244 6.483 4.472v28.527c0 17.403 9.355 33.633 24.417 42.354l16.044 9.291v-64.222h30v64.222l16.043-9.291c15.062-8.722 24.417-24.951 24.417-42.354v-28.528l6.484-4.472c11.326-7.811 17.926-20.679 17.652-34.422-.434-21.844-18.568-39.755-40.426-39.925-10.769-.113-20.986 4.005-28.721 11.518l-10.449 10.148-10.45-10.147c-7.735-7.513-17.93-11.615-28.72-11.519-21.857.17-39.993 18.081-40.427 39.925-.273 13.743 6.326 26.611 17.653 34.423z"/><path d="m512 427v-69h-512v69h191.292v18c0 20.402-16.598 37-37 37h-43.625v30h290.666v-30h-43.625c-20.402 0-37-16.598-37-37v-18z"/><path d="m512 328v-328h-512v328zm-178-234.108h119v30h-119zm0 61.5h119v30h-119zm0 61.5h119v30h-119zm-204.624-155.996c14.229-.078 27.801 3.945 39.404 11.594 11.604-7.649 25.2-11.663 39.405-11.594 37.947.297 69.432 31.397 70.186 69.329.419 21.085-8.482 40.981-24.131 54.671v13.347c0 28.07-15.091 54.248-39.382 68.315l-23.392 13.547h-45.373l-23.393-13.547c-24.291-14.067-39.382-40.245-39.382-68.315v-13.348c-15.648-13.689-24.55-33.586-24.13-54.671.755-37.93 32.241-69.031 70.188-69.328z"/></g></svg>