<svg id="Capa_1" enable-background="new 0 0 512 512" fill="#fff" height="512" viewBox="0 0 512 512" width="512" xmlns="http://www.w3.org/2000/svg"><g><path d="m322.844 439.798h-148.338l-22.5 42.202h-38.331v30h270v-30h-38.332z"/><path d="m467.082 352.269-130.453-83.353h-.12v-43.566h44.453c6.321 19.235 24.44 33.167 45.763 33.167 26.56 0 48.167-21.607 48.167-48.167s-21.607-48.167-48.167-48.167c-21.323 0-39.442 13.932-45.763 33.167h-44.453v-150.916c-.001-24.501-19.933-44.434-44.434-44.434-11.895 0-23.483 4.882-31.795 13.394l-37.498 38.409c-26.457-16.67-61.916-13.513-84.938 9.51l-24.692 24.692 96.87 96.87 24.692-24.692c23.103-23.103 26.204-58.732 9.335-85.218l37.697-38.613c2.7-2.766 6.465-4.352 10.329-4.352 7.959 0 14.434 6.475 14.434 14.434v224.482h-105.825l-96.569-96.693c-8.966-8.978-20.891-13.926-33.578-13.934-.011 0-.02 0-.03 0-12.676 0-24.596 4.933-33.565 13.89-8.978 8.966-13.927 20.892-13.935 33.579-.009 12.688 4.925 24.619 13.891 33.597l124.4 124.562h41.378v45.882h92v-45.882h14.195l107.063 68.405c7.732 4.94 16.521 7.49 25.48 7.489 3.429 0 6.884-.373 10.313-1.129 12.39-2.729 22.976-10.121 29.808-20.813 14.1-22.071 7.617-51.499-14.453-65.6z"/></g></svg>