<svg id="Capa_1" enable-background="new 0 0 512 512" height="512" viewBox="0 0 512 512" width="512" xmlns="http://www.w3.org/2000/svg"><g><path d="m134.068 244.995c-13.241 13.241-13.241 34.709 0 47.951l52.687 53.792-21.582 20.838-52.829-54.71c-11.956-12.383-17.865-28.48-17.797-44.544l-.011.01v-140.312c0-26.063-21.205-47.268-47.268-47.268s-47.268 21.205-47.268 47.268v149.585c0 15.413 4.172 30.559 12.064 43.798l.23.386 88.899 130.645-10.202 59.566h150.009v-207.914l-58.981-59.092c-13.242-13.241-34.71-13.241-47.951.001z"/><path d="m464.732 80.752c-26.063 0-47.268 21.204-47.268 47.268v140.311l-.011-.01c.068 16.063-5.841 32.16-17.797 44.544l-52.829 54.71-21.582-20.838 52.687-53.792c13.241-13.241 13.241-34.709 0-47.951-13.241-13.241-34.709-13.241-47.951 0l-58.981 59.092v207.914h150.009l-10.203-59.566 88.899-130.645.23-.386c7.893-13.239 12.065-28.384 12.065-43.798v-149.585c0-26.063-21.204-47.268-47.268-47.268z"/><path d="m271 219.211h7.686l23.392-13.547c24.292-14.067 39.382-40.244 39.382-68.315v-13.348c15.648-13.689 24.549-33.585 24.131-54.67-.753-37.932-32.238-69.032-70.186-69.329-.19-.001-.376-.002-.566-.002-13.987 0-27.39 4.049-38.839 11.595-11.449-7.547-24.85-11.595-38.838-11.595-.188 0-.377.001-.566.002-37.948.296-69.434 31.396-70.187 69.328-.419 21.085 8.482 40.98 24.13 54.67v13.349c0 28.07 15.09 54.248 39.382 68.315l23.392 13.547h7.687v-84.211h30z"/></g></svg>