<svg id="Capa_1" enable-background="new 0 0 512 512" height="512" viewBox="0 0 512 512" width="512" xmlns="http://www.w3.org/2000/svg"><g><path d="m220.601 280.348-10.45 10.149-10.45-10.149c-6.277-6.096-14.507-9.399-23.304-9.346-17.736.138-32.451 14.669-32.803 32.394-.222 11.152 5.134 21.595 14.326 27.934l6.484 4.472v25.683c0 14.27 7.671 27.576 20.019 34.727l10.729 6.213v-49.062h30v49.062l10.729-6.213c12.348-7.15 20.019-20.457 20.019-34.727v-25.683l6.484-4.472c9.192-6.339 14.547-16.781 14.326-27.933-.352-17.725-15.066-32.257-32.802-32.395-8.777-.09-17.03 3.25-23.307 9.346z"/><path d="m268.465 191.32h-116.62l-12.75-48.39h-106.92v314.08c0 30.32 24.67 54.99 54.99 54.99h245.97c30.32 0 54.99-24.67 54.99-54.99v-314.08h-106.91zm38.24 111.48c.36 18.48-7.3 35.93-20.81 48.1v10.58c0 24.94-13.4 48.19-34.98 60.69l-20.65 11.96h-40.23l-20.65-11.96c-21.58-12.5-34.98-35.75-34.98-60.69v-10.58c-13.51-12.17-21.17-29.63-20.81-48.1.68-33.81 28.74-61.53 62.57-61.8 12.17-.11 23.89 3.26 33.99 9.6 10.09-6.34 21.8-9.69 33.99-9.6 33.82.27 61.89 27.99 62.56 61.8z"/><path d="m333.135 0h-245.97c-30.32 0-54.99 24.67-54.99 54.99v57.94h130.04l12.75 48.39h70.38l12.75-48.39h130.03v-57.94c0-30.32-24.67-54.99-54.99-54.99z"/><path d="m479.825 162.45v-.63c-.2-26.96-22.37-48.89-49.42-48.89h-42.28v30h42.28c10.63 0 19.34 8.58 19.42 19.13v.39c0 12.24-3.97 17.52-9.98 25.5-7.14 9.47-16.02 21.27-16.02 43.54 0 22.28 8.88 34.07 16.02 43.55 6.01 7.98 9.98 13.25 9.98 25.49s-3.97 17.51-9.98 25.49c-7.14 9.48-16.02 21.27-16.02 43.55h30c0-12.25 3.97-17.52 9.98-25.5 7.14-9.47 16.02-21.27 16.02-43.54 0-22.28-8.88-34.07-16.02-43.54-6.01-7.98-9.98-13.25-9.98-25.5 0-12.24 3.97-17.51 9.98-25.49 7.14-9.48 16.02-21.27 16.02-43.55z"/></g></svg>