<svg id="Capa_1" enable-background="new 0 0 512 512" height="512" viewBox="0 0 512 512" width="512" xmlns="http://www.w3.org/2000/svg"><g><path d="m170.74 254.592-49.23 49.23 87.028 87.028 48.983-48.983c-18.98-8.62-36.113-20.492-50.999-35.378-15.435-15.433-27.354-33.067-35.782-51.897z"/><path d="m467.33 161.627-28.666 28.666-115.945-115.947 30.036-30.036-44.312-44.31-80.867 80.867c-56.4 56.4-56.4 148.168 0 204.568 28.2 28.2 65.242 42.3 102.284 42.3s74.084-14.1 102.284-42.3l79.497-79.497zm-137.47 103.472c-20.995 0-41.99-7.992-57.973-23.975-31.967-31.966-31.967-83.98 0-115.946l29.776-29.776 115.946 115.947-29.776 29.776c-15.983 15.982-36.978 23.974-57.973 23.974z"/><path d="m18.384 406.948c-11.623 11.623-18.025 27.076-18.025 43.514 0 16.437 6.401 31.891 18.025 43.514 11.623 11.623 27.076 18.024 43.514 18.024 16.437 0 31.891-6.401 43.514-18.024l82.071-82.071-87.028-87.028z"/></g></svg>