<svg id="Capa_1" enable-background="new 0 0 512.002 512.002" height="512" viewBox="0 0 512.002 512.002" width="512" xmlns="http://www.w3.org/2000/svg"><g><path d="m419.865 36.803c-23.005-23.219-53.546-36.282-85.998-36.785-28.532-.46-55.689 8.684-77.866 25.927-22.177-17.243-49.325-26.407-77.866-25.927-32.451.503-62.992 13.566-85.998 36.785-23.003 23.215-35.789 53.874-36.004 86.329-.238 36.071 15.209 70.392 42.383 94.16l4.241 3.71h306.49l4.241-3.71c27.173-23.77 42.619-58.09 42.381-94.159-.215-32.456-13.001-63.115-36.004-86.33z"/><path d="m295.062 249.602h-70.126c-27.938 0-50.667 22.729-50.667 50.666v10.367h171.46v-10.367c0-27.938-22.73-50.666-50.667-50.666z"/><path d="m103.313 366.346c0 55.444 24.67 107.309 67.684 142.293l4.135 3.363h55.214v-87.915c0-14.146 11.51-25.656 25.656-25.656s25.656 11.51 25.656 25.656v87.915h55.214l4.135-3.363c43.014-34.984 67.684-86.849 67.684-142.293v-25.711h-305.378z"/></g></svg>