<svg id="Capa_1" enable-background="new 0 0 512 512" height="512" viewBox="0 0 512 512" width="512" xmlns="http://www.w3.org/2000/svg"><g><path d="m125.119 194.191h66.31v68.89h-66.31z"/><path d="m15 202.283c0 21.378 3.888 41.864 10.978 60.798h69.141v-68.89h-80.119z"/><path d="m320.571 194.191h66.31v68.89h-66.31z"/><path d="m95.119 348.653v-55.573h-54.469c13.748 22.361 32.407 41.393 54.469 55.573z"/><path d="m323.133 406.151h-134.266c-85.286 0-158.494-52.648-188.867-127.146v83.691c4.358 5.062 8.922 9.987 13.694 14.76 49.931 49.932 116.316 77.429 186.928 77.429h110.755c70.612 0 136.998-27.498 186.928-77.429 4.772-4.772 9.336-9.697 13.694-14.76v-83.691c-30.372 74.497-103.58 127.146-188.866 127.146z"/><path d="m356.701 60.589c-6.556-2.322-13.391-3.474-20.211-3.474-9.283 0-18.539 2.136-27.012 6.36l-53.974 26.91-53.038-26.615c-8.515-4.273-17.818-6.43-27.151-6.43-7.059 0-14.137 1.235-20.898 3.722l-154.417 56.805v46.323h512v-48.59z"/><path d="m221.429 194.191h69.143v68.89h-69.143z"/><path d="m471.35 293.08h-54.469v55.573c22.062-14.18 40.721-33.212 54.469-55.573z"/><path d="m497 194.191h-80.119v68.89h69.141c7.09-18.934 10.978-39.419 10.978-60.798z"/><path d="m386.881 364.047v-70.967h-66.31v83.07h2.562c22.492.001 44-4.293 63.748-12.103z"/><path d="m191.429 376.151v-83.07h-66.31v70.967c19.748 7.81 41.256 12.104 63.748 12.104h2.562z"/><path d="m221.429 293.08h69.143v83.07h-69.143z"/></g></svg>