<svg id="Capa_1" enable-background="new 0 0 512 512" height="512" viewBox="0 0 512 512" width="512" xmlns="http://www.w3.org/2000/svg"><g><path d="m124.919 323.193v38.42c0 48.253 21.732 93.94 59.167 124.387h33.21v-81.792c0-21.376 17.329-38.706 38.705-38.706s38.705 17.329 38.705 38.706v81.792h33.21c10.462-8.509 19.682-18.217 27.555-28.832-6.664-8.691-10.638-19.549-10.638-31.323 0-25.05 17.951-45.978 41.663-50.617.385-4.509.586-9.05.586-13.616v-38.42c27.311-18.834 45.153-50.416 44.916-86.156-.371-56.121-45.974-102.153-102.089-103.024-.549-.009-1.1-.013-1.647-.013-28.098 0-53.58 11.175-72.261 29.317-18.68-18.141-44.165-29.317-72.261-29.317-.549 0-1.096.004-1.647.013-56.116.871-101.718 46.903-102.089 103.024-.238 35.74 17.604 67.322 44.915 86.157zm74.331-56.563c38.718 34.055 74.783 34.055 113.501 0l19.813 22.525c-25.044 22.03-50.804 33.043-76.564 33.043s-51.52-11.014-76.564-33.043z"/><path d="m374.833 425.846c0 11.901 9.682 21.584 21.583 21.584s21.584-9.683 21.584-21.584-9.683-21.584-21.584-21.584-21.583 9.682-21.583 21.584z"/><path d="m337.333 26h-162.666c-96.312 0-174.667 78.355-174.667 174.668v54.499c0 29.315 23.851 53.166 53.167 53.166h16.987c-13.147-21.146-20.321-45.846-20.151-71.495.161-24.349 6.879-47.753 19.288-68.171h-16.124c-7.246 0-14.155 1.462-20.456 4.098 13.04-66.463 71.73-116.765 141.956-116.765h162.665c70.227 0 128.917 50.302 141.957 116.765-6.3-2.636-13.21-4.098-20.456-4.098h-16.124c12.409 20.418 19.127 43.822 19.288 68.171.17 25.649-7.004 50.349-20.151 71.495h16.987c8.3 0 16.16-1.915 23.167-5.321v82.988c0 13.969-11.365 25.333-25.333 25.333h-10.759c1.353 4.607 2.093 9.474 2.093 14.513 0 5.394-.836 10.596-2.379 15.487h11.045c30.51 0 55.333-24.822 55.333-55.333v-185.332c0-96.313-78.355-174.668-174.667-174.668z"/></g></svg>