<svg id="Capa_1" fill="#fff" enable-background="new 0 0 511.999 511.999" height="512" viewBox="0 0 511.999 511.999" width="512" xmlns="http://www.w3.org/2000/svg"><g><path d="m160.06 344.999h43.27v30h-43.27z"/><path d="m308.67 344.999h43.27v30h-43.27z"/><path d="m160.06 407.499h43.27v30h-43.27z"/><path d="m308.67 407.499h43.27v30h-43.27z"/><path d="m430.071 38.956c-24.354-24.578-56.683-38.407-91.033-38.94-30.445-.464-59.453 9.363-83.038 27.924-23.586-18.562-52.605-28.385-83.04-27.924-34.35.533-66.679 14.362-91.033 38.94-24.35 24.575-37.885 57.029-38.113 91.384-.216 32.665 11.895 64.085 33.248 88.131h357.874c21.354-24.047 33.465-55.467 33.248-88.131-.226-34.355-13.762-66.809-38.113-91.384z"/><path d="m203.33 374.999h105.34v32.5h-105.34z"/><path d="m203.33 459.329c0 29.04 23.63 52.67 52.67 52.67s52.67-23.63 52.67-52.67v-21.83h-105.34z"/><path d="m136.01 270.149c0 23.13 18.81 41.94 41.94 41.94h25.38v32.91h105.34v-32.91h25.38c23.13 0 41.94-18.81 41.94-41.94v-21.68h-239.98z"/></g></svg>