<svg id="Capa_1" fill="#fff" enable-background="new 0 0 512 512" height="512" viewBox="0 0 512 512" width="512" xmlns="http://www.w3.org/2000/svg"><g><path d="m289.694 182.589c-8.734-.115-16.998 3.245-23.263 9.329l-10.431 10.131-10.431-10.131c-6.202-6.023-14.36-9.331-22.999-9.331-.088 0-.175.001-.264.002-17.703.138-32.392 14.645-32.744 32.337-.221 11.132 5.125 21.556 14.301 27.884l6.472 4.464v25.636c0 14.244 7.657 27.527 19.983 34.664l10.71 6.202v-48.973h29.946v48.974l10.71-6.202c12.325-7.138 19.982-20.42 19.982-34.665v-25.636l6.473-4.464c9.176-6.328 14.522-16.751 14.301-27.884-.354-17.693-15.042-32.199-32.746-32.337z"/><path d="m309.196 89.839h-106.393l-37.816 44.769h-43.645v64.806c0 91.646 52.625 175.534 134.658 215.621 82.033-40.087 134.658-123.974 134.658-215.621v-64.806h-43.645zm22.415 172.51v10.559c0 24.893-13.381 48.105-34.921 60.58l-20.612 11.936h-40.157l-20.611-11.937c-21.54-12.474-34.922-35.686-34.922-60.579v-10.559c-13.486-12.157-21.133-29.577-20.767-48.018.671-33.751 28.686-61.424 62.451-61.688 12.191-.065 23.856 3.253 33.928 9.585 9.934-6.247 21.437-9.587 33.425-9.587.168 0 .334.001.503.002 33.765.264 61.78 27.937 62.451 61.688.365 18.442-7.282 35.862-20.768 48.018z"/><path d="m388.727 44.769-37.816-44.769h-189.822l-37.816 44.769h-91.77v154.645c0 68.504 20.887 134.29 60.403 190.248s94.527 97.646 159.084 120.56l5.01 1.778 5.009-1.778c64.558-22.914 119.569-64.603 159.085-120.56s60.403-121.744 60.403-190.248v-154.645zm31.877 154.645c0 105.65-62.182 202.135-158.417 245.806l-6.187 2.809-6.188-2.808c-96.234-43.672-158.417-140.158-158.417-245.807v-94.752h59.687l37.816-44.769h134.203l37.816 44.769h59.687z"/></g></svg>