<svg id="Capa_1" fill="#fff" enable-background="new 0 0 511.557 511.557" height="512" viewBox="0 0 511.557 511.557" width="512" xmlns="http://www.w3.org/2000/svg"><g><path d="m236.778 263.278h37.557v31.376h-37.557z"/><path d="m304.335 324.654h-97.557v-61.376h-40.343v31.592c0 46.685 37.981 84.666 84.666 84.666h8.91c46.686 0 84.667-37.981 84.667-84.666v-31.592h-40.344v61.376z"/><path d="m457.028 214.868c-19.261-61.404-65.167-109.424-122.805-132.603v-46.062h-30v36.54c-10.955-2.597-22.205-4.335-33.667-5.148v-45.392h-30v45.391c-11.461.813-22.711 2.55-33.666 5.146v-36.537h-30v46.058c-57.684 23.193-103.613 71.266-122.848 132.742-31.414 8.894-54.042 38.01-54.042 71.422 0 36.237 25.906 66.563 60.583 72.973 15.195 36.522 40.186 67.837 72.698 90.968 35.853 25.506 78.135 38.988 122.275 38.988 44.139 0 86.419-13.48 122.271-38.985 32.493-23.115 57.47-54.397 72.67-90.89 34.951-6.196 61.06-36.55 61.06-73.054 0-33.675-22.83-62.84-54.529-71.557zm-82.349 80.002c0 63.227-51.439 114.666-114.667 114.666h-8.91c-63.228 0-114.666-51.439-114.666-114.666v-61.592h238.243z"/></g></svg>