<svg id="Capa_1" enable-background="new 0 0 512.004 512.004" height="512" viewBox="0 0 512.004 512.004" width="512" xmlns="http://www.w3.org/2000/svg"><g><path d="m330.978 91.918c-24.254-.378-47.152 8.71-64.525 25.583l-10.45 10.149-10.45-10.149c-17.027-16.537-39.381-25.594-63.079-25.594-.482 0-.962.003-1.446.011-48.815.758-88.793 41.103-89.116 89.937-.198 30.027 14.464 58.148 39.222 75.223l6.484 4.472v46.972c0 43.043 18.405 83.412 50.68 111.574h13.32v-68.23c0-29.988 24.397-54.386 54.386-54.386s54.386 24.397 54.386 54.386v68.23h13.32c32.274-28.162 50.68-68.531 50.68-111.573v-46.973l6.484-4.472c24.758-17.074 39.42-45.195 39.222-75.224-.325-48.833-40.303-89.178-89.118-89.936z"/><path d="m459.055 54.123c-33.834-34.146-78.813-53.359-126.66-54.101-26.334-.389-52.592 4.902-76.384 15.358-23.968-10.582-49.613-15.745-76.409-15.357-47.839.741-92.819 19.955-126.653 54.1-33.825 34.139-52.628 79.285-52.945 127.123-.299 45.221 15.89 88.314 45.705 122.022v5.253c0 72.568 32.289 140.45 88.588 186.238l21.199 17.242h201.012l21.199-17.242c56.299-45.788 88.588-113.67 88.588-186.238v-5.253c29.815-33.708 46.004-76.801 45.705-122.022-.317-47.838-19.12-92.984-52.945-127.123zm-54.667 222.855v31.544c0 53.854-23.962 104.23-65.741 138.21l-4.135 3.363h-54.124v-98.23c0-13.446-10.939-24.386-24.386-24.386s-24.386 10.939-24.386 24.386v98.23h-54.123l-4.135-3.362c-41.78-33.98-65.742-84.356-65.742-138.212v-31.543c-29.002-22.986-45.952-58.049-45.706-95.321.209-31.565 12.645-61.383 35.016-83.96 22.373-22.58 52.075-35.285 83.636-35.774 27.613-.41 53.928 8.369 75.44 24.993 21.515-16.624 47.816-25.423 75.44-24.993 31.561.489 61.263 13.194 83.636 35.774 22.371 22.577 34.807 52.395 35.016 83.959.246 37.273-16.704 72.335-45.706 95.322z"/></g></svg>