<?xml version="1.0" encoding="iso-8859-1"?>
<!-- Generator: Adobe Illustrator 19.0.0, SVG Export Plug-In . SVG Version: 6.00 Build 0)  -->
<svg version="1.1" id="Capa_1" fill="#fff" xmlns="http://www.w3.org/2000/svg" xmlns:xlink="http://www.w3.org/1999/xlink" x="0px" y="0px"
	 viewBox="0 0 512.001 512.001" style="enable-background:new 0 0 512.001 512.001;" xml:space="preserve">
<g>
	<g>
		<path d="M256.137,0c-90.981,0-164.6,74.019-164.6,165v62c0,24.899,19.7,45,44.6,45h25.201c17.75,36.544,53.651,60,94.799,60
			c41.139,0,77.047-23.451,94.799-60h25.201c2.373,0,4.651-0.344,6.923-0.696C364.62,323.927,314.982,362,256.137,362
			c-19.773,0-19.854,30,0,30c90.981,0,165-74.019,165-165v-62C421.137,74.019,347.118,0,256.137,0z M350.638,120.2
			c0.11,0.216,0.141,0.469,0.249,0.685C334.069,156.239,298.103,180,256.137,180h-105v-15c0-5.167,0.976-10.045,1.699-15h103.301
			c36.301,0,66.301-25.201,73.5-59.401c-18.9-18.898-45-30.599-73.5-30.599c-41.7,0-77.999,24.8-94.501,60.2
			c-7.412,0-25.733-0.539-32.422,0.496C147.655,68.073,197.293,30,256.137,30c58.845,0,108.483,38.073,126.923,90.696
			C376.371,119.661,358.05,120.2,350.638,120.2z"/>
	</g>
</g>
<g>
	<g>
		<path d="M396.237,366.2l-2.699-1.201C358.437,400.099,309.837,422,256.137,422c-35.421,0-55.973-39.065-39.3-66
			c-13.801-4.2-26.4-10.499-37.8-18.6l-61.8,28.2c-24.3,8.101-38.699,33.9-32.401,57.9L99.538,500c1.5,6.899,7.5,12.001,14.7,12.001
			h283.499c7.202,0,13.2-5.101,14.702-12.001l14.7-75.601C433.437,399.5,419.337,373.7,396.237,366.2z"/>
	</g>
</g>
<g>
</g>
<g>
</g>
<g>
</g>
<g>
</g>
<g>
</g>
<g>
</g>
<g>
</g>
<g>
</g>
<g>
</g>
<g>
</g>
<g>
</g>
<g>
</g>
<g>
</g>
<g>
</g>
<g>
</g>
</svg>
