<svg id="Capa_1" fill="#fff" enable-background="new 0 0 512.009 512.009" height="512" viewBox="0 0 512.009 512.009" width="512" xmlns="http://www.w3.org/2000/svg"><g><path d="m251.665 169.542-12.263 22.422-22.422 12.263 22.422 12.262 12.263 22.422 12.263-22.422 22.422-12.262-22.422-12.263z"/><path d="m361.496 323.566-29.423 16.091 29.423 16.092 16.091 29.422 16.091-29.422 29.423-16.092-29.423-16.091-16.091-29.422z"/><path d="m419.556 146.162 24.149 44.155 24.149-44.155 44.155-24.149-44.155-24.149-24.149-44.155-24.149 44.155-44.156 24.149z"/><path d="m339.391 377.854-50.54-27.641v-21.11l50.54-27.641 28.879-52.803h18.634l8.452 15.454c12.76-13.789 22.415-30.075 28.395-47.758l-26.3-48.088-64.37-35.206v-22.097l58.082-31.766c-24.592-24.343-56.991-38.032-91.392-38.565-30.964-.481-60.431 9.539-84.383 28.444-23.952-18.905-53.465-28.928-84.382-28.444-34.844.541-67.638 14.568-92.341 39.5-24.701 24.929-38.431 57.85-38.662 92.699-.274 41.442 18.707 80.409 51.14 105.777v36.161c0 59.718 26.571 115.579 72.9 153.26l4.135 3.363h58.141v-108.126c0-16.029 13.04-29.069 29.069-29.069s29.069 13.04 29.069 29.069v108.126h58.141l4.135-3.363c20.547-16.712 37.191-37.008 49.367-59.625zm-78.469-93.348h-18.514l-25.11-45.912-43.967-24.046v-20.642l43.967-24.046 25.11-45.912h18.514l25.11 45.912 43.968 24.046v20.642l-43.967 24.046z"/></g></svg>